<svg width="133" height="49" viewBox="0 0 133 49" fill="none" xmlns="http://www.w3.org/2000/svg">
<path d="M49.7167 24.4454C49.7167 23.4534 48.9046 22.6432 47.9108 22.6432C46.9166 22.6432 46.1047 23.4534 46.1047 24.4454C46.1047 25.0112 46.369 25.5178 46.7802 25.8486C46.0427 37.5181 36.3782 46.7117 24.4971 46.7284C12.1436 46.711 2.18467 36.7729 2.16723 24.4454C2.18467 12.1182 12.1438 2.18005 24.4971 2.16264C30.6122 2.16264 36.4156 4.63674 40.6395 9.04908C41.458 9.8997 42.8727 9.00741 42.4236 7.88683C42.369 7.76076 42.3018 7.65434 42.2059 7.55461C37.5824 2.74031 31.2658 0.0169182 24.5779 0.000385284L24.4971 -2.67029e-05C17.041 0.0289726 10.2332 3.26177 5.5014 9.00861C1.90248 13.4445 0.0222948 18.7384 0 24.4454C0.0290607 31.8856 3.26868 38.6795 9.02768 43.4012C13.4729 46.9926 18.778 48.8688 24.4971 48.8911C31.8418 48.8625 38.581 45.7194 43.3062 40.108C46.7059 36.0177 48.6264 31.1645 48.9462 25.9201C49.4114 25.5934 49.7167 25.0537 49.7167 24.4454Z" fill="white"/>
<path d="M3.72192 24.4603C3.73953 25.462 4.5365 26.2482 5.54148 26.2482C6.54519 26.2306 7.33316 25.4354 7.33316 24.4325C7.32311 23.8653 7.06328 23.3675 6.65745 23.042C7.31351 13.8862 14.8579 6.69693 24.2152 6.59704C34.0462 6.5447 41.9885 14.3572 42.0937 24.1642C42.1461 33.9747 34.3175 41.9004 24.4894 42.0054C21.3809 42.0226 18.868 41.5139 16.1373 39.998C15.7035 39.7528 15.1476 39.8397 14.8106 40.2064C14.3363 40.7228 14.4647 41.5375 15.0753 41.8828C18.0733 43.5871 21.0828 44.184 24.5062 44.1676C35.5346 44.0628 44.3133 35.1469 44.2605 24.1474C44.1554 13.1425 35.221 4.38204 24.1985 4.43479C13.7591 4.53405 5.18413 12.5964 4.48879 22.9742C4.02254 23.3009 3.72192 23.8409 3.72192 24.4603Z" fill="white"/>
<path d="M24.4973 9.17276C28.729 9.17276 32.5611 10.8847 35.3349 13.6526C38.1082 16.4201 39.8241 20.2442 39.8241 24.4671C39.8241 28.6901 38.1082 32.5142 35.3349 35.2819C32.5613 38.0494 28.7291 39.7617 24.4973 39.7617C20.2654 39.7617 16.4332 38.0494 13.6597 35.2819C10.8863 32.5142 9.17041 28.6901 9.17041 24.4671C9.17041 20.2442 10.8863 16.4201 13.6597 13.6526C16.4334 10.8847 20.2656 9.17276 24.4973 9.17276ZM33.8028 15.1814C31.4216 12.8052 28.1315 11.3355 24.4973 11.3355C20.8631 11.3355 17.573 12.8052 15.1917 15.1814C12.8107 17.5574 11.3376 20.8406 11.3376 24.4671C11.3376 28.0935 12.8107 31.3769 15.1917 33.7531C17.573 36.1291 20.8633 37.5991 24.4973 37.5991C28.1315 37.5991 31.4216 36.1291 33.8028 33.7531C36.1838 31.3769 37.6569 28.0935 37.6569 24.4671C37.6569 20.8406 36.1838 17.5574 33.8028 15.1814Z" fill="white"/>
<path d="M25.7317 35.3677C25.7317 35.9647 25.2464 36.449 24.6481 36.449C24.0498 36.449 23.5645 35.9647 23.5645 35.3677V13.6636C23.5645 13.0665 24.0498 12.5822 24.6481 12.5822C25.2464 12.5822 25.7317 13.0665 25.7317 13.6636V35.3677Z" fill="white"/>
<path d="M25.3845 22.7198C24.9475 23.1256 24.2632 23.1011 23.8565 22.665C23.4499 22.229 23.4744 21.5461 23.9114 21.1403L30.1361 15.3397C30.573 14.9339 31.2573 14.9583 31.664 15.3944C32.0707 15.8305 32.0461 16.5134 31.6092 16.9192L25.3845 22.7198Z" fill="white"/>
<path d="M25.4011 27.8762C25.8289 28.2912 25.8383 28.974 25.4224 29.4009C25.0065 29.8277 24.3222 29.8371 23.8945 29.4221L14.4255 20.2537C13.9977 19.8387 13.9883 19.1558 14.4042 18.7289C14.8201 18.3021 15.5044 18.2927 15.9322 18.7077L25.4011 27.8762Z" fill="white"/>
<path d="M25.3845 36.1607C24.9475 36.5665 24.2632 36.542 23.8565 36.106C23.4499 35.6699 23.4744 34.987 23.9114 34.5812L33.1598 25.963C33.5968 25.5573 34.2811 25.5817 34.6878 26.0178C35.0945 26.4538 35.0699 27.1368 34.6329 27.5425L25.3845 36.1607Z" fill="white"/>
<path d="M57.8633 22.3173H58.0778C58.4765 22.3173 58.8406 22.1876 59.1729 21.931C59.5053 21.6714 59.6727 21.3024 59.6727 20.8208C59.6727 20.4113 59.5399 20.0596 59.2712 19.7657C59.0026 19.4714 58.5922 19.3245 58.0375 19.3245C57.5143 19.3245 56.9874 19.4879 56.46 19.8147C56.2403 19.9508 55.9579 19.9038 55.7941 19.7043L55.7638 19.6675C55.669 19.5519 55.6315 19.4164 55.6534 19.2687C55.6755 19.1209 55.7509 19.002 55.8754 18.9191C56.5773 18.4514 57.3142 18.2172 58.0864 18.2172C58.8608 18.2172 59.5081 18.445 60.0311 18.8976C60.554 19.3504 60.817 19.9356 60.817 20.6537C60.817 21.3559 60.5854 21.8919 60.1214 22.2624C60.0167 22.3459 59.9631 22.463 59.968 22.5965C59.9729 22.7301 60.0352 22.8429 60.1457 22.9185C60.8481 23.3987 61.1984 24.1006 61.1984 25.0219C61.1984 25.7542 60.9384 26.4147 60.4212 27.0058C59.9011 27.5939 59.1266 27.8881 58.0953 27.8881C57.0366 27.8881 56.1506 27.6004 55.4374 27.0266C55.3241 26.9357 55.2607 26.8155 55.2486 26.6711C55.2365 26.5266 55.2795 26.3977 55.3762 26.2894L55.4288 26.2303C55.6108 26.026 55.9216 26.0009 56.1342 26.1733C56.6482 26.5904 57.2678 26.7982 57.9941 26.7982C58.598 26.7982 59.0718 26.6365 59.4158 26.3137C59.7595 25.9937 59.9328 25.5697 59.9328 25.0421C59.9328 24.5288 59.7596 24.1165 59.4127 23.8051C59.066 23.4937 58.6585 23.338 58.1876 23.338H57.8633C57.6376 23.338 57.4537 23.1545 57.4537 22.9293V22.726C57.4537 22.5008 57.6376 22.3173 57.8633 22.3173ZM65.9199 27.6631H63.6509C63.4253 27.6631 63.2414 27.4796 63.2414 27.2544V18.8853C63.2414 18.6602 63.4253 18.4767 63.6509 18.4767H65.8794C66.885 18.4767 67.6102 18.7074 68.0552 19.1657C68.4973 19.6271 68.7197 20.1663 68.7197 20.7834C68.7197 21.4506 68.5076 21.9624 68.0836 22.3211C67.9802 22.4085 67.9297 22.5293 67.9399 22.6641C67.9504 22.799 68.0188 22.9105 68.1344 22.9812C68.8944 23.4459 69.2746 24.1598 69.2746 25.1229C69.2746 26.8154 68.1564 27.6631 65.9199 27.6631ZM64.4202 19.906V21.9432C64.4202 22.1684 64.6041 22.3519 64.8298 22.3519H65.1946C65.8996 22.3519 66.362 22.3231 66.5758 22.2683C66.7924 22.2107 66.9947 22.0721 67.1854 21.8531C67.3762 21.631 67.4714 21.3398 67.4714 20.9736C67.4714 20.593 67.3733 20.2759 67.1739 20.0192C66.9745 19.7597 66.7664 19.6099 66.5469 19.5637C66.3272 19.5204 65.8765 19.4973 65.1946 19.4973H64.8298C64.6041 19.4973 64.4202 19.6809 64.4202 19.906ZM64.4202 23.8505V26.2509C64.4202 26.4762 64.6041 26.6596 64.8298 26.6596H65.6945C66.2955 26.6596 66.726 26.6223 66.9833 26.5444C67.2405 26.4694 67.4628 26.3051 67.6448 26.0513C67.8298 25.7976 67.9223 25.4776 67.9223 25.0883C67.9223 24.5865 67.7634 24.1887 67.4454 23.8887C67.1276 23.5918 66.7087 23.4418 66.1886 23.4418H64.8298C64.6041 23.4418 64.4202 23.6253 64.4202 23.8505ZM79.4602 24.7945L79.7545 24.949C79.8575 25.0031 79.9263 25.0877 79.958 25.1995C79.9895 25.3114 79.9754 25.4193 79.916 25.5193C79.6381 25.9864 79.3287 26.3775 78.986 26.6884C78.5562 27.0784 78.0729 27.3776 77.5356 27.5824C76.9953 27.7872 76.3884 27.8881 75.7093 27.8881C74.201 27.8881 73.025 27.3979 72.1755 26.4175C71.3261 25.4371 70.9012 24.3298 70.9012 23.0959C70.9012 21.9338 71.2624 20.8958 71.982 19.9875C72.8922 18.8312 74.1144 18.2517 75.643 18.2517C77.2176 18.2517 78.4775 18.8457 79.4166 20.0309C80.0047 20.7675 80.3395 21.6651 80.4185 22.726C80.4273 22.8435 80.3907 22.9479 80.3102 23.0343C80.2299 23.1208 80.1282 23.1651 80.01 23.1651H72.5527C72.4316 23.1651 72.3272 23.2117 72.2468 23.302C72.1663 23.3922 72.1319 23.5008 72.1458 23.621C72.2455 24.4804 72.5791 25.1991 73.1436 25.7773C73.8081 26.4578 74.6288 26.7982 75.6024 26.7982C76.0734 26.7982 76.5329 26.7175 76.9779 26.5558C77.4228 26.3944 77.8014 26.1811 78.1135 25.913C78.368 25.6941 78.6397 25.368 78.9272 24.9316C79.0435 24.755 79.2729 24.6962 79.4602 24.7945ZM78.9676 21.5942C78.8271 21.2139 78.6528 20.8935 78.4427 20.6334C78.1374 20.2552 77.7349 19.953 77.235 19.7223C76.7352 19.4916 76.2094 19.3764 75.6602 19.3764C74.75 19.3764 73.9698 19.6647 73.3168 20.2442C72.9501 20.5683 72.6542 21.0141 72.4255 21.5836C72.3733 21.7133 72.3878 21.8488 72.4664 21.9647C72.5449 22.0803 72.6655 22.1443 72.8055 22.1443H78.5834C78.7216 22.1443 78.8404 22.0824 78.9194 21.9693C78.9982 21.8562 79.0153 21.7235 78.9676 21.5942ZM73.9438 14.8437C74.2156 14.8437 74.4439 14.9386 74.6374 15.1291C74.828 15.3222 74.9234 15.55 74.9234 15.821C74.9234 16.0893 74.828 16.32 74.6374 16.513C74.4439 16.7033 74.2156 16.7985 73.9438 16.7985C73.6752 16.7985 73.444 16.7033 73.2505 16.513C73.0597 16.32 72.9644 16.0893 72.9644 15.821C72.9644 15.55 73.0597 15.3222 73.2505 15.1291C73.444 14.9386 73.6752 14.8437 73.9438 14.8437ZM77.3939 14.8437C77.6657 14.8437 77.8938 14.9386 78.0875 15.1291C78.2781 15.3222 78.3735 15.55 78.3735 15.821C78.3735 16.0893 78.2781 16.32 78.0875 16.513C77.8938 16.7033 77.6657 16.7985 77.3939 16.7985C77.1253 16.7985 76.8941 16.7033 76.7004 16.513C76.5098 16.32 76.4143 16.0893 76.4143 15.821C76.4143 15.55 76.5098 15.3222 76.7004 15.1291C76.8941 14.9386 77.1253 14.8437 77.3939 14.8437ZM84.5562 22.3173H84.7708C85.1695 22.3173 85.5336 22.1876 85.8659 21.931C86.1982 21.6714 86.3657 21.3024 86.3657 20.8208C86.3657 20.4113 86.2328 20.0596 85.9642 19.7657C85.6955 19.4714 85.2852 19.3245 84.7305 19.3245C84.1846 19.3245 83.6343 19.5024 83.0837 19.8582C82.908 19.9718 82.6771 19.9361 82.5444 19.7744L82.3861 19.5815C82.3113 19.4904 82.2812 19.3839 82.2972 19.2672C82.313 19.1506 82.3707 19.0562 82.4672 18.9883C83.1992 18.4744 83.97 18.2172 84.7794 18.2172C85.5538 18.2172 86.2011 18.445 86.724 18.8976C87.247 19.3504 87.5099 19.9356 87.5099 20.6537C87.5099 21.3559 87.2783 21.8919 86.8143 22.2624C86.7097 22.3459 86.6561 22.463 86.6609 22.5965C86.6659 22.7301 86.7281 22.8429 86.8387 22.9185C87.541 23.3987 87.8914 24.1006 87.8914 25.0219C87.8914 25.7542 87.6313 26.4147 87.1141 27.0058C86.594 27.5939 85.8196 27.8881 84.7882 27.8881C83.6835 27.8881 82.7668 27.5744 82.038 26.9498C81.9516 26.8756 81.9039 26.7806 81.8963 26.6672C81.8887 26.5538 81.9231 26.4533 81.9989 26.3683L82.1879 26.1562C82.3363 25.9896 82.5923 25.9727 82.7614 26.1184C83.2879 26.572 83.9294 26.7982 84.687 26.7982C85.2909 26.7982 85.7648 26.6365 86.1088 26.3137C86.4525 25.9937 86.6258 25.5697 86.6258 25.0421C86.6258 24.5288 86.4525 24.1165 86.1056 23.8051C85.759 23.4937 85.3515 23.338 84.8806 23.338H84.5562C84.3305 23.338 84.1467 23.1545 84.1467 22.9293V22.726C84.1467 22.5008 84.3305 22.3173 84.5562 22.3173ZM90.125 26.4134L93.4653 18.7229C93.5317 18.5701 93.6742 18.4767 93.8411 18.4767H93.9209C94.088 18.4767 94.231 18.5705 94.297 18.7235L97.6175 26.4128C97.6837 26.566 97.8266 26.6596 97.9937 26.6596H98.4186C98.6443 26.6596 98.8281 26.8431 98.8281 27.0683V28.4308C98.8281 28.656 98.6443 28.8395 98.4186 28.8395H98.0934C97.8678 28.8395 97.6839 28.656 97.6839 28.4308V28.0718C97.6839 27.8466 97.5 27.6631 97.2743 27.6631H90.4825C90.2569 27.6631 90.073 27.8466 90.073 28.0718V28.4827C90.073 28.7079 89.8891 28.8914 89.6634 28.8914H89.3037C89.078 28.8914 88.8941 28.7079 88.8941 28.4827V27.0683C88.8941 26.8431 89.078 26.6596 89.3037 26.6596H89.7492C89.9161 26.6596 90.0586 26.5663 90.125 26.4134ZM93.4762 21.2303L91.4097 26.0914C91.3544 26.2215 91.3671 26.3589 91.4451 26.4766C91.5233 26.5945 91.6452 26.6596 91.7866 26.6596H95.8354C95.9759 26.6596 96.0967 26.5955 96.1752 26.479C96.2538 26.3627 96.2677 26.2269 96.2147 26.0969L94.2326 21.2358C94.1689 21.0795 94.0251 20.9824 93.8562 20.9812C93.6873 20.98 93.5421 21.075 93.4762 21.2303ZM106.567 23.2342H102.012C101.786 23.2342 101.602 23.4177 101.602 23.6429V27.2544C101.602 27.4796 101.418 27.6631 101.193 27.6631H100.833C100.607 27.6631 100.423 27.4796 100.423 27.2544V18.8853C100.423 18.6602 100.607 18.4767 100.833 18.4767H101.193C101.418 18.4767 101.602 18.6602 101.602 18.8853V21.7185C101.602 21.9436 101.786 22.1271 102.012 22.1271H106.567C106.793 22.1271 106.977 21.9436 106.977 21.7185V18.8853C106.977 18.6602 107.16 18.4767 107.386 18.4767H107.746C107.971 18.4767 108.155 18.6602 108.155 18.8853V27.2544C108.155 27.4796 107.971 27.6631 107.746 27.6631H107.386C107.16 27.6631 106.977 27.4796 106.977 27.2544V23.6429C106.977 23.4177 106.793 23.2342 106.567 23.2342ZM112.373 22.1098H113.093C113.992 22.1098 114.694 22.179 115.203 22.3202C115.711 22.4614 116.151 22.7728 116.518 23.2544C116.884 23.736 117.069 24.2896 117.069 24.9152C117.069 25.6707 116.804 26.3166 116.272 26.8558C115.743 27.3951 114.937 27.6631 113.859 27.6631H111.203C110.977 27.6631 110.794 27.4796 110.794 27.2544V18.8853C110.794 18.6602 110.977 18.4767 111.203 18.4767H111.554C111.78 18.4767 111.964 18.6602 111.964 18.8853V21.7011C111.964 21.9262 112.148 22.1098 112.373 22.1098ZM112.007 23.6083V26.2509C112.007 26.4762 112.191 26.6596 112.417 26.6596H113.374C114.983 26.6596 115.787 26.0975 115.787 24.9757C115.787 24.6558 115.7 24.3415 115.526 24.033C115.356 23.7244 115.102 23.5082 114.772 23.3842C114.44 23.2602 113.856 23.1997 113.018 23.1997H112.417C112.191 23.1997 112.007 23.3832 112.007 23.6083ZM119.126 18.4767H119.486C119.712 18.4767 119.895 18.6602 119.895 18.8853V27.2544C119.895 27.4796 119.712 27.6631 119.486 27.6631H119.126C118.9 27.6631 118.717 27.4796 118.717 27.2544V18.8853C118.717 18.6602 118.9 18.4767 119.126 18.4767ZM130.532 24.7945L130.826 24.949C130.929 25.0031 130.998 25.0877 131.029 25.1995C131.061 25.3114 131.047 25.4193 130.987 25.5193C130.71 25.9864 130.4 26.3775 130.057 26.6884C129.628 27.0784 129.144 27.3776 128.607 27.5824C128.067 27.7872 127.46 27.8881 126.781 27.8881C125.272 27.8881 124.097 27.3979 123.247 26.4175C122.398 25.4371 121.973 24.3298 121.973 23.0959C121.973 21.9338 122.334 20.8958 123.053 19.9875C123.964 18.8312 125.186 18.2517 126.714 18.2517C128.289 18.2517 129.549 18.8457 130.488 20.0309C131.076 20.7675 131.411 21.6651 131.49 22.726C131.499 22.8435 131.462 22.9479 131.382 23.0343C131.301 23.1208 131.2 23.1651 131.081 23.1651H123.624C123.503 23.1651 123.399 23.2117 123.318 23.302C123.238 23.3922 123.203 23.5008 123.217 23.621C123.317 24.4804 123.651 25.1991 124.215 25.7773C124.88 26.4578 125.7 26.7982 126.674 26.7982C127.145 26.7982 127.604 26.7175 128.049 26.5558C128.494 26.3944 128.873 26.1811 129.185 25.913C129.439 25.6941 129.711 25.368 129.999 24.9316C130.115 24.755 130.344 24.6962 130.532 24.7945ZM130.039 21.5942C129.899 21.2139 129.724 20.8935 129.514 20.6334C129.209 20.2552 128.806 19.953 128.306 19.7223C127.807 19.4916 127.281 19.3764 126.732 19.3764C125.821 19.3764 125.041 19.6647 124.388 20.2442C124.022 20.5683 123.726 21.0141 123.497 21.5836C123.445 21.7133 123.459 21.8488 123.538 21.9647C123.616 22.0803 123.737 22.1443 123.877 22.1443H129.655C129.793 22.1443 129.912 22.0824 129.991 21.9693C130.07 21.8562 130.087 21.7235 130.039 21.5942ZM55.9276 35.2672H56.2606C56.4254 35.2672 56.5668 35.3595 56.634 35.5081L59.322 41.4708C59.3894 41.6201 59.5319 41.7127 59.6975 41.7118C59.8632 41.711 60.0043 41.6183 60.0706 41.4669L62.6795 35.5122C62.7461 35.3602 62.8884 35.2672 63.0546 35.2672H63.4236C63.5659 35.2672 63.6884 35.3332 63.7662 35.4521C63.844 35.5711 63.855 35.7108 63.7988 35.8395L58.661 47.5648C58.5951 47.7154 58.4507 47.8098 58.2859 47.8098H57.9171C57.7762 47.8098 57.6521 47.7436 57.5743 47.6247C57.4965 47.5057 57.4848 47.3674 57.542 47.2373L59.0212 43.8643C59.0693 43.7548 59.0685 43.642 59.0195 43.5329L55.5541 35.8434C55.4958 35.7134 55.5064 35.5739 55.5838 35.454C55.6612 35.334 55.7844 35.2672 55.9276 35.2672ZM68.2567 44.4536H65.9877C65.7635 44.4536 65.5782 44.2701 65.5782 44.045V35.6758C65.5782 35.4507 65.762 35.2672 65.9877 35.2672H68.2162C69.2217 35.2672 69.9493 35.4973 70.392 35.9562C70.8347 36.4153 71.0564 36.9568 71.0564 37.5739C71.0564 38.5053 70.6435 39.1338 69.817 39.4654C71.0132 39.8892 71.6113 40.7051 71.6113 41.9133C71.6113 43.6059 70.4901 44.4536 68.2567 44.4536ZM66.757 36.6965V38.7337C66.757 38.9575 66.9409 39.1424 67.1665 39.1424H67.5314C68.2365 39.1424 68.7 39.1138 68.9125 39.0588C69.1288 39.003 69.3332 38.8625 69.5221 38.6436C69.713 38.4229 69.8082 38.1303 69.8082 37.7641C69.8082 37.3835 69.7087 37.0659 69.5107 36.8097C69.3114 36.5514 69.1028 36.3982 68.8837 36.3542C68.6652 36.3103 68.2117 36.2878 67.5314 36.2878H67.1665C66.9423 36.2878 66.757 36.4742 66.757 36.6965ZM66.757 40.641V43.0415C66.757 43.2652 66.9409 43.4502 67.1665 43.4502H68.0313C68.6322 43.4502 69.0633 43.4105 69.3201 43.3349C69.576 43.2593 69.7996 43.0942 69.9816 42.8418C70.1649 42.5882 70.2591 42.2681 70.2591 41.8788C70.2591 41.377 70.1002 40.9775 69.7822 40.6792C69.466 40.3823 69.0438 40.2323 68.5254 40.2323H67.1665C66.9423 40.2323 66.757 40.4186 66.757 40.641ZM82.8601 35.6758V44.045C82.8601 44.2687 82.6748 44.4536 82.4506 44.4536H82.0906C81.8664 44.4536 81.6811 44.2701 81.6811 44.045V43.8796C81.6811 43.716 81.591 43.5758 81.4422 43.508C81.2933 43.4401 81.1272 43.4641 81.0039 43.5703C80.6935 43.8378 80.3612 44.0589 80.011 44.2287C79.3961 44.527 78.7194 44.6786 77.9883 44.6786C76.6881 44.6786 75.5742 44.2084 74.654 43.2685C73.7323 42.3271 73.2728 41.1839 73.2728 39.8344C73.2728 38.5167 73.7395 37.3863 74.6683 36.4493C75.5957 35.5136 76.7141 35.0422 78.0229 35.0422C78.7771 35.0422 79.4602 35.201 80.0716 35.5179C80.3991 35.6877 80.7076 35.9068 80.9929 36.1706C81.1141 36.2829 81.2826 36.3122 81.4352 36.2457C81.5877 36.1793 81.6811 36.0373 81.6811 35.8712V35.6758C81.6811 35.4507 81.865 35.2672 82.0906 35.2672H82.4506C82.6763 35.2672 82.8601 35.4536 82.8601 35.6758ZM78.1155 36.184C77.4568 36.184 76.8474 36.3481 76.2923 36.6685C75.7365 36.9895 75.2916 37.4421 74.9632 38.0237C74.6345 38.6054 74.4691 39.2231 74.4691 39.8747C74.4691 40.5178 74.6345 41.1357 74.9661 41.7231C75.2975 42.3104 75.7448 42.7695 76.3038 43.0956C76.8642 43.4223 77.4654 43.5887 78.1069 43.5887C78.7511 43.5887 79.367 43.4256 79.9445 43.1013C80.5242 42.7757 80.9705 42.3359 81.2824 41.7808C81.5931 41.2276 81.7505 40.6013 81.7505 39.9066C81.7505 38.8483 81.3993 37.963 80.6986 37.2509C79.9996 36.5402 79.1383 36.184 78.1155 36.184ZM92.6993 44.4536H92.3622C92.2005 44.4536 92.059 44.3645 91.9906 44.2168L89.3661 38.5625C89.2975 38.4143 89.157 38.3253 88.9934 38.3257C88.8298 38.3261 88.6892 38.4176 88.622 38.5647L86.0409 44.2146C85.9738 44.3621 85.8311 44.4536 85.6683 44.4536H85.3003C85.1582 44.4536 85.0333 44.3864 84.9559 44.2659C84.8785 44.1453 84.8668 44.0049 84.9279 43.8751L88.6058 36.051C88.6746 35.9045 88.8134 35.8162 88.9757 35.8158C89.1378 35.8154 89.2775 35.9043 89.3464 36.0492L93.0709 43.8733C93.1322 44.0016 93.1217 44.1441 93.0443 44.265C92.9669 44.386 92.8404 44.4536 92.6993 44.4536ZM96.7203 38.9002H97.4404C98.3391 38.9002 99.0421 38.9703 99.5497 39.1107C100.058 39.2511 100.498 39.5633 100.864 40.0449C101.231 40.5265 101.416 41.08 101.416 41.7057C101.416 42.4612 101.149 43.1071 100.619 43.6463C100.09 44.1839 99.2823 44.4536 98.2062 44.4536H95.55C95.3258 44.4536 95.1405 44.2701 95.1405 44.045V35.6758C95.1405 35.4507 95.3244 35.2672 95.55 35.2672H95.9012C96.1268 35.2672 96.3107 35.4521 96.3107 35.6758V38.4916C96.3107 38.7153 96.4946 38.9002 96.7203 38.9002ZM96.3539 40.3988V43.0415C96.3539 43.2652 96.5378 43.4502 96.7634 43.4502H97.7208C99.3302 43.4502 100.133 42.888 100.133 41.7662C100.133 41.4462 100.045 41.1318 99.8734 40.8234C99.7027 40.5163 99.448 40.2973 99.1193 40.1747C98.788 40.0508 98.2017 39.9901 97.3653 39.9901H96.7634C96.5392 39.9901 96.3539 40.1765 96.3539 40.3988ZM103.473 35.2672H103.833C104.058 35.2672 104.242 35.4521 104.242 35.6758V44.045C104.242 44.2687 104.057 44.4536 103.833 44.4536H103.473C103.249 44.4536 103.063 44.2701 103.063 44.045V35.6758C103.063 35.4507 103.247 35.2672 103.473 35.2672Z" fill="white"/>
<path d="M57.8634 21.7765H58.078C58.2166 21.7765 58.3477 21.7545 58.4703 21.7111C58.5989 21.6658 58.7234 21.5965 58.843 21.5042L58.8491 21.4997C58.9407 21.4261 59.0096 21.3392 59.0545 21.2393C59.1053 21.1265 59.1311 20.9868 59.1311 20.8207C59.1311 20.6795 59.1098 20.5521 59.067 20.4398C59.0252 20.3294 58.9599 20.2254 58.8714 20.1288C58.7969 20.047 58.6994 19.9843 58.5803 19.9416C58.4336 19.8913 58.2527 19.865 58.0376 19.865C57.829 19.865 57.6197 19.8974 57.411 19.9622C57.1897 20.0309 56.9675 20.1345 56.7451 20.272C56.521 20.4122 56.263 20.4578 56.0195 20.4175C55.775 20.3771 55.545 20.2504 55.3773 20.0462L55.3452 20.0072C55.2506 19.8924 55.1832 19.7628 55.1443 19.6216C55.1056 19.481 55.0964 19.3366 55.1181 19.1905C55.1407 19.0397 55.1914 18.902 55.269 18.78L55.2983 18.7385C55.3718 18.6347 55.4645 18.5448 55.5749 18.4712C55.9675 18.2097 56.3737 18.0121 56.7917 17.8793C57.2176 17.744 57.6492 17.6763 58.0866 17.6763C58.532 17.6763 58.947 17.744 59.3309 17.8784C59.7202 18.015 60.0718 18.2191 60.3846 18.4898C60.7066 18.7685 60.95 19.0912 61.1136 19.4571C61.277 19.8219 61.3589 20.2207 61.3589 20.6535C61.3589 21.0781 61.286 21.459 61.1406 21.7955C61.0125 22.0922 60.828 22.3509 60.5876 22.5714C60.9494 22.8466 61.2271 23.1776 61.42 23.5634C61.6338 23.9903 61.7404 24.4766 61.7404 25.0217C61.7404 25.4539 61.6624 25.8679 61.5076 26.2631C61.3557 26.6503 61.1286 27.0167 60.8278 27.3604L60.8155 27.3738C60.4989 27.7281 60.1074 27.9946 59.6426 28.1711C59.1921 28.343 58.6759 28.4286 58.0954 28.4286C57.5112 28.4286 56.9692 28.3475 56.4702 28.1859C55.9646 28.0222 55.5072 27.7755 55.0989 27.4468C54.9846 27.3551 54.8933 27.2455 54.8269 27.1203C54.7608 26.9954 54.7211 26.8595 54.709 26.7153C54.6971 26.5738 54.7141 26.4341 54.7595 26.2974C54.8048 26.1607 54.8758 26.0379 54.9721 25.9302L55.0247 25.8711C55.2119 25.6613 55.4658 25.5428 55.7279 25.5217C55.9871 25.5009 56.256 25.5771 56.4751 25.7549C56.6817 25.9227 56.909 26.0481 57.1561 26.1309C57.407 26.2153 57.6866 26.2574 57.9943 26.2574C58.2381 26.2574 58.45 26.2267 58.6288 26.1658C58.7914 26.1104 58.9309 26.0283 59.0455 25.9208L59.0478 25.9186C59.1604 25.8137 59.2453 25.6913 59.3018 25.5522C59.3612 25.4063 59.3911 25.2361 59.3911 25.0419C59.3911 24.8562 59.3617 24.6936 59.3035 24.5549C59.2488 24.4243 59.1643 24.308 59.051 24.2063C58.9277 24.0957 58.7955 24.013 58.6542 23.9592C58.5131 23.9055 58.3577 23.8785 58.1877 23.8785H57.8634C57.6008 23.8785 57.3627 23.7716 57.1909 23.6002L57.1488 23.553C57.0015 23.3853 56.912 23.1666 56.912 22.9292V22.7259C56.912 22.4666 57.0187 22.2295 57.1909 22.0571L57.1932 22.0549C57.3668 21.8826 57.6039 21.7765 57.8634 21.7765ZM58.8303 22.7292C58.7244 22.7667 58.6167 22.7959 58.5072 22.8172C58.6917 22.8407 58.8692 22.885 59.0396 22.9498C59.3062 23.0514 59.5513 23.2032 59.7747 23.4037C60.0077 23.6129 60.184 23.8589 60.3024 24.1409C60.417 24.4142 60.4747 24.7146 60.4747 25.0419C60.4747 25.375 60.418 25.6805 60.3052 25.9576C60.1895 26.2427 60.0153 26.4931 59.7841 26.7085C59.5555 26.9223 59.2857 27.0824 58.9761 27.1879C58.6814 27.2882 58.3536 27.3387 57.9943 27.3387C57.5755 27.3387 57.1817 27.2768 56.8134 27.153C56.4499 27.031 56.1169 26.8495 55.8156 26.609L55.8006 26.6256C56.0993 26.8611 56.4343 27.0393 56.8048 27.1593C57.1912 27.2843 57.6215 27.3473 58.0954 27.3473C58.5457 27.3473 58.9331 27.2855 59.2574 27.1626H59.2597C59.5597 27.0487 59.8097 26.8802 60.0093 26.6574L60.0149 26.6509C60.2308 26.4041 60.3931 26.1435 60.5002 25.8703C60.6041 25.6047 60.6568 25.3215 60.6568 25.0217C60.6568 24.6453 60.588 24.3195 60.4506 24.0448C60.3169 23.7774 60.1134 23.55 59.8412 23.364C59.7145 23.2773 59.6139 23.1672 59.5435 23.0389C59.4732 22.912 59.4339 22.7687 59.4284 22.6153C59.4257 22.5424 59.4313 22.4708 59.4444 22.4016C59.2493 22.544 59.0445 22.6535 58.8303 22.7292ZM65.9201 28.2036H63.651C63.3912 28.2036 63.1537 28.0972 62.9809 27.9253L62.9786 27.9231C62.806 27.7498 62.6997 27.5132 62.6997 27.2543V18.8852C62.6997 18.6259 62.8064 18.3888 62.9786 18.2164L62.9809 18.2142C63.1545 18.0419 63.3916 17.9359 63.651 17.9359H65.8795C66.4332 17.9359 66.9205 18.0029 67.3401 18.1357C67.789 18.2757 68.1567 18.4949 68.4426 18.7895L68.4735 18.8241C68.7286 19.0969 68.9221 19.3928 69.0527 19.7111C69.1918 20.0491 69.2616 20.4069 69.2616 20.7832C69.2616 21.185 69.1943 21.5485 69.0601 21.8727C68.9432 22.156 68.7767 22.4036 68.5619 22.6151C68.9555 22.8842 69.2578 23.2165 69.468 23.6116C69.7003 24.0481 69.8165 24.5522 69.8165 25.1227C69.8165 27.1752 68.5175 28.2036 65.9201 28.2036ZM63.7833 27.1223H64.4548C64.3446 27.0745 64.2449 27.0064 64.1605 26.9227L64.1587 26.9206C63.9853 26.7471 63.8786 26.5101 63.8786 26.2508V23.8503C63.8786 23.5914 63.9849 23.3548 64.1567 23.1823L64.1587 23.1805C64.3326 23.0074 64.5701 22.901 64.83 22.901H66.1888C66.5111 22.901 66.8068 22.949 67.0752 23.0448C67.3535 23.1437 67.6006 23.2945 67.816 23.4958C68.0325 23.6999 68.1957 23.9394 68.305 24.214C68.4111 24.4806 68.4643 24.7725 68.4643 25.0881C68.4643 25.3327 68.434 25.5593 68.3738 25.7684C68.3146 25.9734 68.2247 26.1625 68.1043 26.3352L68.0853 26.3638C67.9602 26.5381 67.8203 26.6828 67.6672 26.797L67.5582 26.8716C68.3413 26.5667 68.733 25.9835 68.733 25.1227C68.733 24.7308 68.659 24.3957 68.5114 24.1184C68.3671 23.8472 68.1473 23.6213 67.8531 23.4414C67.7202 23.3601 67.6131 23.2541 67.5366 23.1296C67.4589 23.0005 67.4122 22.8576 67.4003 22.7062V22.704C67.3918 22.5908 67.4028 22.4798 67.4327 22.3744C67.3555 22.4471 67.2763 22.5113 67.1952 22.5667C67.0437 22.67 66.8829 22.7449 66.7136 22.7898H66.7093C66.5651 22.8268 66.3607 22.8534 66.0978 22.8693C65.846 22.8844 65.5441 22.8924 65.1948 22.8924H64.83C64.5675 22.8924 64.3293 22.7855 64.1575 22.6141C63.9857 22.4402 63.8786 22.2028 63.8786 21.9431V19.9059C63.8786 19.647 63.9849 19.4103 64.1567 19.2379L64.1587 19.236C64.255 19.14 64.3699 19.0652 64.4972 19.0172H63.7834L63.7833 27.1223ZM67.0148 19.1635L66.9947 19.1562C67.0598 19.1898 67.1235 19.2291 67.1855 19.2741C67.3315 19.3797 67.4709 19.519 67.6037 19.6917C67.7425 19.8715 67.8458 20.0705 67.9141 20.2891V20.2914C67.9802 20.5047 68.0134 20.732 68.0134 20.9735C68.0134 21.2117 67.9804 21.4318 67.9145 21.6341C67.8967 21.6887 67.8766 21.7418 67.8539 21.7933C67.9413 21.6958 68.0107 21.5855 68.0613 21.4629C68.1389 21.2753 68.178 21.0485 68.178 20.7832C68.178 20.5427 68.1364 20.3217 68.0539 20.121C67.972 19.9218 67.8504 19.7352 67.6894 19.5622L67.6682 19.5415C67.5097 19.3783 67.2916 19.2522 67.0148 19.1635ZM64.9622 20.0379V21.8111H65.1948C65.5468 21.8111 65.8271 21.8045 66.0343 21.7921C66.2319 21.7802 66.3673 21.7651 66.4385 21.7475C66.4852 21.734 66.535 21.7101 66.5858 21.6754C66.649 21.6322 66.7123 21.5747 66.7752 21.5025C66.8229 21.4463 66.8602 21.3789 66.8858 21.3002C66.9151 21.2103 66.9298 21.1014 66.9298 20.9735C66.9298 20.8352 66.9138 20.7142 66.8818 20.6102C66.8508 20.5121 66.8057 20.4244 66.7465 20.3484L66.7448 20.3462C66.6781 20.26 66.6132 20.1937 66.5507 20.1486C66.5106 20.1196 66.4745 20.101 66.4436 20.093C66.3543 20.076 66.2104 20.0621 66.0138 20.0526C65.817 20.043 65.5439 20.0379 65.1948 20.0379H64.9622ZM64.9622 23.9823V26.1188H65.6946C65.9794 26.1188 66.2221 26.11 66.4215 26.0924L66.4668 26.0904C66.6212 26.0753 66.7418 26.0547 66.8268 26.0289L66.8331 26.0271C66.8962 26.0087 66.9588 25.9762 67.0197 25.931C67.0866 25.8811 67.1489 25.8166 67.2047 25.7385L67.2236 25.7136C67.2693 25.6458 67.3057 25.5651 67.3324 25.4725C67.3645 25.3611 67.3807 25.2328 67.3807 25.0881C67.3807 24.9024 67.354 24.7432 67.3016 24.6112C67.2523 24.487 67.1765 24.3766 67.0752 24.2812C66.973 24.1858 66.8513 24.1126 66.7111 24.0628C66.561 24.0093 66.3865 23.9823 66.1887 23.9823L64.9622 23.9823ZM79.7122 24.317L80.0065 24.4715C80.1225 24.5326 80.2213 24.6131 80.3024 24.7124C80.3837 24.8125 80.4432 24.9274 80.4789 25.0536C80.5139 25.1785 80.5231 25.3052 80.5067 25.4314L80.5065 25.4335C80.4901 25.5612 80.448 25.6823 80.3818 25.7937C80.2309 26.0475 80.0695 26.2829 79.8988 26.498C79.7257 26.7159 79.5427 26.9126 79.3502 27.0873C79.1127 27.3027 78.8565 27.4954 78.5828 27.6644C78.3086 27.8334 78.0235 27.9746 77.7285 28.0869L77.699 28.0972C77.4037 28.2069 77.0916 28.2894 76.7634 28.3442C76.4262 28.4006 76.0746 28.4286 75.7095 28.4286C74.0374 28.4286 72.7252 27.8757 71.7671 26.77C71.2999 26.2306 70.9485 25.6548 70.7143 25.0438C70.4779 24.428 70.3596 23.7779 70.3596 23.0957C70.3596 22.459 70.4605 21.8503 70.6618 21.2714C70.8619 20.6956 71.1612 20.1562 71.5581 19.6547C72.0634 19.0099 72.662 18.5241 73.35 18.1978C74.0343 17.8735 74.7991 17.7109 75.6431 17.7109C76.5097 17.7109 77.2956 17.8772 77.9992 18.2089C78.7023 18.5401 79.3162 19.0364 79.839 19.6958C80.1682 20.1061 80.4269 20.5642 80.6144 21.0687C80.8002 21.5681 80.9152 22.1075 80.9582 22.6858C80.9684 22.8176 80.9508 22.946 80.9081 23.0691L80.9073 23.0712C80.8655 23.1919 80.7977 23.3031 80.7062 23.4016L80.6675 23.4392C80.5848 23.5195 80.4918 23.5822 80.3902 23.6263C80.2695 23.6788 80.1419 23.7057 80.0102 23.7057H72.7032C72.7521 24.0209 72.8383 24.3117 72.9612 24.5775C73.1019 24.8818 73.2923 25.1566 73.531 25.4012C73.8107 25.6876 74.1222 25.9024 74.4645 26.0442C74.8063 26.1861 75.1864 26.2574 75.6026 26.2574C75.8078 26.2574 76.0097 26.2398 76.2075 26.205C76.409 26.1697 76.6052 26.1172 76.794 26.0487C76.9879 25.9784 77.1666 25.8971 77.329 25.8054C77.4834 25.7181 77.6276 25.6172 77.7602 25.5032L77.7877 25.4811C77.8825 25.3963 77.9845 25.2884 78.0932 25.1573C78.2216 25.0021 78.35 24.8278 78.4765 24.6358C78.6108 24.4318 78.8123 24.2951 79.0339 24.2381C79.2546 24.1813 79.4966 24.2038 79.7122 24.317ZM79.3792 25.3614L79.3121 25.326C79.1769 25.5258 79.0484 25.6993 78.9269 25.8458C78.7848 26.0173 78.6421 26.166 78.5 26.2917L78.467 26.3226C78.2881 26.4762 78.0862 26.6166 77.8622 26.7433C77.6466 26.8652 77.4129 26.9717 77.1621 27.0626C76.9066 27.1552 76.6499 27.2247 76.3938 27.2696C76.1327 27.3156 75.8686 27.3387 75.6026 27.3387C75.0452 27.3387 74.5274 27.2392 74.0497 27.0409C73.5723 26.843 73.1409 26.5467 72.7566 26.1531C72.4306 25.8195 72.1712 25.4445 71.9791 25.0295C71.7889 24.6178 71.6648 24.1684 71.6084 23.6821C71.5927 23.5452 71.605 23.4127 71.6447 23.2874C71.6855 23.1605 71.7522 23.0442 71.8427 22.9428C71.9363 22.8399 72.0438 22.7608 72.1623 22.7075C72.2651 22.6627 72.3702 22.6357 72.4783 22.6272C72.4382 22.6125 72.3991 22.5951 72.3612 22.5751L72.3591 22.573C72.225 22.5019 72.1095 22.3981 72.02 22.2665C71.9297 22.1337 71.8757 21.987 71.8595 21.8362C71.8431 21.6843 71.8644 21.5305 71.924 21.3828C72.0524 21.0634 72.2006 20.7767 72.3687 20.5239C72.5338 20.2759 72.7201 20.0573 72.9275 19.8691L72.9572 19.8407C73.3344 19.506 73.7507 19.2542 74.2059 19.0858C74.657 18.9191 75.1421 18.8355 75.6603 18.8355C75.9536 18.8355 76.247 18.8664 76.5396 18.9275L76.581 18.9349C76.8809 19.0006 77.1752 19.1 77.4616 19.2321C77.7479 19.3639 78.0068 19.5172 78.2379 19.6915C78.4734 19.8689 78.6825 20.0699 78.8641 20.2953C78.9876 20.448 79.1014 20.6204 79.2054 20.8108C79.3082 20.9992 79.3985 21.1987 79.4757 21.4081C79.5294 21.5532 79.546 21.7046 79.5265 21.8554C79.5093 21.9888 79.4641 22.1169 79.392 22.2332L79.3641 22.2775C79.2839 22.3924 79.1813 22.4861 79.0621 22.5552L79.0213 22.5785C78.9878 22.5959 78.9534 22.611 78.9182 22.6243H79.8668C79.8246 22.1972 79.7366 21.8039 79.6029 21.4447C79.4566 21.0513 79.2529 20.6913 78.9935 20.3664C78.5776 19.8396 78.0917 19.4459 77.5376 19.1848C76.9831 18.9234 76.351 18.7923 75.6431 18.7923C74.9586 18.7923 74.3476 18.9197 73.8115 19.1737C73.2791 19.4261 72.8106 19.809 72.4077 20.321H72.4054C72.0835 20.7275 71.8419 21.1617 71.6819 21.622C71.5231 22.0793 71.4432 22.571 71.4432 23.0957C71.4432 23.6468 71.5376 24.1684 71.7258 24.6592C71.9158 25.155 72.2023 25.6239 72.5841 26.0647C73.325 26.9196 74.3652 27.3473 75.7095 27.3473C76.0229 27.3473 76.3152 27.3248 76.5857 27.2797C76.8453 27.2363 77.0898 27.1721 77.3185 27.0876L77.3431 27.0775C77.5833 26.986 77.8079 26.8757 78.0155 26.7477C78.2263 26.6178 78.4287 26.4646 78.622 26.2893C78.7722 26.1531 78.9157 25.9985 79.0523 25.8266C79.1651 25.6846 79.2745 25.5291 79.3792 25.3614ZM78.39 21.6034C78.3477 21.503 78.3034 21.4105 78.2573 21.3261C78.1867 21.197 78.1079 21.0781 78.0217 20.9712C77.8984 20.8184 77.7526 20.6791 77.586 20.5534C77.4147 20.4244 77.2223 20.3104 77.0087 20.2121C76.7959 20.1141 76.5766 20.0401 76.3524 19.9908L76.3138 19.981C76.1067 19.9383 75.8886 19.9169 75.6603 19.9169C75.2688 19.9169 74.908 19.978 74.5786 20.0998C74.2532 20.2201 73.9524 20.4028 73.6768 20.6474L73.65 20.6697C73.5134 20.7945 73.3868 20.9445 73.2705 21.1194C73.1739 21.2646 73.0852 21.4261 73.0045 21.6034H78.39ZM73.944 14.3028C74.1488 14.3028 74.3421 14.3408 74.5255 14.4164C74.7072 14.4914 74.8704 14.6009 75.0163 14.7446L75.0227 14.7509C75.1666 14.8966 75.2764 15.0595 75.3516 15.2407C75.4273 15.4238 75.4654 15.6167 75.4654 15.8208C75.4654 16.0229 75.4275 16.2164 75.3516 16.3999C75.2768 16.5809 75.1671 16.7448 75.0227 16.8909L75.0163 16.8973C74.8708 17.0404 74.7072 17.1504 74.5255 17.2254C74.3421 17.3008 74.1485 17.339 73.944 17.339C73.7415 17.339 73.5478 17.3012 73.3639 17.2254C73.1824 17.1509 73.0183 17.0411 72.8718 16.8973L72.8655 16.8909C72.7213 16.7448 72.6114 16.5809 72.5366 16.3999C72.4607 16.2164 72.4228 16.0229 72.4228 15.8208C72.4228 15.6167 72.4609 15.4238 72.5366 15.2407C72.6118 15.0595 72.7216 14.8966 72.8655 14.7509L72.8718 14.7446C73.0179 14.6007 73.1824 14.491 73.3637 14.4164C73.5476 14.3406 73.7415 14.3028 73.944 14.3028ZM74.1148 15.4132C74.0678 15.394 74.0109 15.3842 73.944 15.3842C73.8781 15.3842 73.8214 15.394 73.7745 15.4132C73.7259 15.4332 73.6786 15.4657 73.6328 15.5102C73.5877 15.5564 73.5552 15.6032 73.5355 15.6506C73.5162 15.6974 73.5064 15.7542 73.5064 15.8208C73.5064 15.8866 73.5162 15.9432 73.5355 15.99C73.5556 16.0384 73.5883 16.0858 73.6328 16.1316C73.6786 16.1759 73.7261 16.2086 73.7747 16.2287C73.8215 16.2479 73.8781 16.2577 73.944 16.2577C74.0109 16.2577 74.0681 16.2479 74.1148 16.2287C74.1621 16.209 74.2091 16.1766 74.2552 16.132C74.2998 16.0861 74.3326 16.0386 74.3527 15.99C74.3719 15.9432 74.3818 15.8866 74.3818 15.8208C74.3818 15.7542 74.3719 15.6974 74.3527 15.6506C74.3331 15.6032 74.3005 15.5564 74.2554 15.5102C74.2091 15.4653 74.1622 15.4328 74.1148 15.4132ZM77.3941 14.3028C77.6001 14.3028 77.7942 14.3406 77.9775 14.4164L78.0104 14.4313C78.1781 14.5057 78.3297 14.6103 78.4664 14.7446L78.4728 14.7509C78.6167 14.8966 78.7265 15.0595 78.8016 15.2407C78.8774 15.4238 78.9155 15.6167 78.9155 15.8208C78.9155 16.0229 78.8776 16.2164 78.8016 16.3999C78.7269 16.5809 78.6171 16.7448 78.4728 16.8909L78.4664 16.8973C78.3204 17.0404 78.157 17.1504 77.9754 17.2254C77.7924 17.3008 77.5988 17.339 77.3941 17.339C77.1918 17.339 76.9981 17.3008 76.8138 17.2254C76.6327 17.1509 76.4682 17.0409 76.3217 16.8973L76.3154 16.8909C76.1714 16.7448 76.0613 16.5809 75.9865 16.3999C75.911 16.2166 75.8727 16.0229 75.8727 15.8208C75.8727 15.6169 75.911 15.4238 75.9865 15.2407C76.0616 15.0595 76.1718 14.8962 76.3154 14.7509L76.3217 14.7446C76.4682 14.6005 76.6327 14.491 76.8138 14.4164C76.9978 14.3408 77.1916 14.3028 77.3941 14.3028ZM77.5626 15.4132C77.5159 15.394 77.4596 15.3842 77.3941 15.3842C77.3281 15.3842 77.2714 15.394 77.2245 15.4132C77.176 15.4332 77.1283 15.4659 77.0822 15.5104C77.0376 15.5564 77.0051 15.6034 76.9854 15.6506C76.9661 15.6972 76.9563 15.754 76.9563 15.8208C76.9563 15.8866 76.9661 15.9432 76.9854 15.99C77.0052 16.0382 77.038 16.0858 77.0826 16.1316C77.1285 16.1759 77.1762 16.2086 77.2245 16.2287C77.2714 16.2479 77.3281 16.2577 77.3941 16.2577C77.461 16.2577 77.518 16.2479 77.5646 16.2287C77.6124 16.209 77.6593 16.1763 77.7056 16.1316C77.75 16.0858 77.7827 16.0384 77.8028 15.99C77.8221 15.9432 77.8319 15.8866 77.8319 15.8208C77.8319 15.7542 77.8221 15.6974 77.8028 15.6506C77.7831 15.6032 77.7505 15.5564 77.7056 15.5102C77.6646 15.4704 77.6228 15.4401 77.5806 15.4201L77.5626 15.4132ZM84.5563 21.7765H84.771C84.9098 21.7765 85.0406 21.7545 85.1635 21.7111C85.2918 21.6658 85.4164 21.5965 85.536 21.5042L85.5423 21.4993C85.6338 21.4259 85.7026 21.3392 85.7475 21.2393C85.7985 21.1245 85.824 20.9853 85.824 20.8207C85.824 20.6795 85.8027 20.5521 85.7602 20.4398C85.7182 20.3294 85.6529 20.2256 85.5644 20.1288C85.4899 20.047 85.3924 19.9843 85.2732 19.9416C85.1264 19.8913 84.9456 19.865 84.7306 19.865C84.5127 19.865 84.2942 19.9006 84.0759 19.9712L84.0518 19.9784C83.8304 20.0523 83.6054 20.1633 83.3781 20.31C83.1752 20.4412 82.9387 20.4861 82.7155 20.4516C82.4921 20.4171 82.2806 20.3025 82.1276 20.1163L81.9671 19.9234L81.9346 19.8793C81.867 19.7873 81.8174 19.6866 81.7871 19.5795C81.7523 19.4567 81.7439 19.3278 81.7619 19.1954L81.766 19.1692C81.7861 19.0452 81.8283 18.9308 81.8907 18.8286L81.9204 18.7851C81.9843 18.6919 82.0633 18.6122 82.1563 18.5468C82.5642 18.2605 82.9865 18.0444 83.423 17.8989C83.8673 17.7508 84.3201 17.6763 84.7795 17.6763C85.2249 17.6763 85.6399 17.744 86.0239 17.8784C86.4132 18.015 86.7648 18.2191 87.0776 18.4898C87.3995 18.7685 87.643 19.0912 87.8066 19.4571C87.97 19.8219 88.0519 20.2207 88.0519 20.6535C88.0519 21.0781 87.979 21.459 87.8336 21.7955C87.7054 22.0922 87.5209 22.3509 87.2806 22.5714C87.6424 22.8466 87.92 23.1776 88.1129 23.5634C88.3267 23.9903 88.4334 24.4766 88.4334 25.0217C88.4334 25.4541 88.3555 25.8681 88.2006 26.2631C88.0486 26.6503 87.8216 27.0167 87.5208 27.3604L87.5084 27.3738C87.1917 27.7284 86.8006 27.9946 86.3355 28.1711C85.8851 28.343 85.3692 28.4286 84.7883 28.4286C84.1784 28.4286 83.6146 28.3401 83.0986 28.164C82.5749 27.9854 82.1037 27.7167 81.6868 27.3593L81.6712 27.3454C81.5789 27.2633 81.5057 27.1689 81.4531 27.0637L81.4277 27.004C81.3878 26.9088 81.3639 26.8081 81.3569 26.703C81.3479 26.5734 81.364 26.4488 81.4044 26.3315C81.4447 26.2142 81.5084 26.1059 81.5948 26.0091L81.7838 25.797C81.956 25.6039 82.1907 25.4972 82.4311 25.4813L82.4493 25.4805C82.6825 25.4695 82.9226 25.545 83.115 25.7105C83.3255 25.8918 83.56 26.0283 83.8178 26.1192C84.0787 26.2112 84.3686 26.2574 84.6872 26.2574C84.9311 26.2574 85.1428 26.2267 85.3218 26.1658C85.4843 26.1104 85.6238 26.0283 85.7385 25.9208L85.7407 25.9186C85.8533 25.8137 85.9383 25.6913 85.9948 25.5522C86.0542 25.4063 86.0841 25.2361 86.0841 25.0419C86.0841 24.8575 86.0548 24.6956 85.9965 24.5569L85.9879 24.535C85.933 24.4124 85.8515 24.3027 85.744 24.2063C85.621 24.0957 85.4884 24.013 85.3471 23.9592C85.2063 23.9055 85.0504 23.8785 84.8807 23.8785H84.5563C84.2939 23.8785 84.0557 23.7716 83.8839 23.6002C83.7121 23.4288 83.605 23.1911 83.605 22.9292V22.7259C83.605 22.4639 83.7121 22.2262 83.8839 22.0549L83.9312 22.0127C84.0993 21.8658 84.3184 21.7765 84.5563 21.7765ZM85.5234 22.7292C85.4176 22.7665 85.3099 22.7959 85.2003 22.817C85.3849 22.8405 85.5624 22.8848 85.7325 22.9498C85.9993 23.0514 86.2444 23.2032 86.4676 23.4037C86.6915 23.6045 86.8628 23.8395 86.981 24.1076L86.9953 24.1388C87.1102 24.4118 87.1677 24.7132 87.1677 25.0419C87.1677 25.375 87.111 25.6805 86.9982 25.9576C86.8825 26.2427 86.7083 26.4931 86.4771 26.7085C86.2485 26.9223 85.9786 27.0824 85.6691 27.1879C85.3744 27.2882 85.0466 27.3387 84.6872 27.3387C84.2482 27.3387 83.8382 27.2712 83.4578 27.1372C83.1142 27.016 82.7976 26.8397 82.5085 26.609L82.4937 26.6256C82.7792 26.8506 83.0968 27.023 83.4459 27.142C83.8462 27.2786 84.294 27.3473 84.7883 27.3473C85.2388 27.3473 85.626 27.2855 85.9504 27.1626H85.9526C86.2526 27.0487 86.5027 26.8802 86.7021 26.6577L86.7078 26.6509C86.9238 26.4041 87.086 26.1435 87.1931 25.8703C87.2975 25.6045 87.3498 25.3215 87.3498 25.0217C87.3498 24.6453 87.281 24.3195 87.1435 24.0448C87.0099 23.7774 86.8063 23.55 86.5342 23.364C86.4076 23.2776 86.3071 23.1674 86.2365 23.0389C86.1664 22.9122 86.1269 22.7687 86.1214 22.6153C86.1187 22.5424 86.1242 22.4711 86.1373 22.4016C85.9424 22.544 85.7375 22.6535 85.5234 22.7292ZM86.9077 20.8207C86.9077 21.0072 86.8874 21.1835 86.8471 21.3493C86.9277 21.1539 86.9683 20.922 86.9683 20.6535C86.9683 20.3689 86.9189 20.1163 86.8204 19.8965C86.7222 19.6768 86.5719 19.4792 86.3708 19.3051C86.1609 19.1234 85.9264 18.9868 85.6684 18.8964C85.4049 18.8043 85.1084 18.7577 84.7795 18.7577C84.43 18.7577 84.0917 18.8123 83.7657 18.921C83.5557 18.9909 83.3474 19.084 83.141 19.2003C83.331 19.1004 83.5219 19.0184 83.7135 18.9545L83.7414 18.9447C84.0719 18.8374 84.4024 18.7837 84.7306 18.7837C85.0703 18.7837 85.3725 18.8311 85.6367 18.9255C85.9281 19.0317 86.1707 19.1903 86.3642 19.4022C86.544 19.5989 86.68 19.8184 86.7717 20.0597C86.8624 20.2988 86.9077 20.5528 86.9077 20.8207ZM89.665 26.1188L92.9702 18.5094C93.0461 18.3343 93.168 18.1917 93.3193 18.0924C93.4716 17.9906 93.6506 17.9359 93.8412 17.9359H93.9211C94.1099 17.9359 94.2896 17.9918 94.4432 18.0926C94.5972 18.1937 94.7199 18.3368 94.7946 18.51L98.0802 26.1188H98.4188C98.6813 26.1188 98.9194 26.2257 99.0912 26.3971L99.1334 26.4443C99.2806 26.6121 99.3701 26.8307 99.3701 27.0681V28.4306C99.3701 28.69 99.2634 28.9269 99.0912 29.0994L99.0889 29.1017C98.9153 29.2739 98.6782 29.38 98.4188 29.38H98.0936C97.8333 29.38 97.5954 29.2731 97.4224 29.1005C97.2493 28.9302 97.1422 28.6926 97.1422 28.4306V28.2036H90.6149V28.4826C90.6149 28.7418 90.5083 28.9789 90.3361 29.1513L90.3338 29.1536C90.1602 29.3258 89.923 29.4319 89.6636 29.4319H89.3038C89.0436 29.4319 88.8056 29.325 88.6326 29.1524C88.4596 28.9821 88.3525 28.7445 88.3525 28.4826V27.0681C88.3525 26.8062 88.4596 26.5685 88.6314 26.3971C88.8032 26.2257 89.0413 26.1188 89.3038 26.1188H89.665ZM93.8799 19.1222L93.1899 20.711C93.2171 20.6844 93.2458 20.6594 93.2756 20.6364L93.3313 20.5949C93.4835 20.4956 93.6647 20.4412 93.8584 20.4424C94.0542 20.4437 94.2368 20.5014 94.3888 20.6046C94.4737 20.6637 94.5495 20.7352 94.6124 20.818L93.8799 19.1222ZM90.8479 26.1027L90.6205 26.6266C90.5539 26.78 90.4523 26.9081 90.3264 27.0046L90.2714 27.0457C90.119 27.1454 89.9402 27.2002 89.7494 27.2002H89.4361V28.3506H89.5313V28.0717C89.5313 27.8096 89.6384 27.572 89.8102 27.4006C89.982 27.2292 90.2201 27.1223 90.4827 27.1223H91.4084L91.3362 27.0873C91.2002 27.0146 91.0836 26.9086 90.9944 26.7741C90.9061 26.6413 90.8545 26.4926 90.84 26.337C90.8328 26.259 90.8355 26.1804 90.8479 26.1027ZM97.1203 26.626L95.231 22.2506L96.7165 25.894C96.7724 26.0367 96.795 26.183 96.7839 26.3256L96.782 26.3481C96.7661 26.5021 96.7128 26.6497 96.624 26.7808C96.5431 26.8987 96.4412 26.9948 96.3234 27.0653L96.2806 27.0902L96.2138 27.1223H97.2745C97.5371 27.1223 97.7752 27.2292 97.947 27.4006C98.1188 27.5745 98.2259 27.8119 98.2259 28.0717V28.2987H98.2865V27.2002H97.9939C97.803 27.2002 97.6234 27.145 97.4715 27.0454C97.3316 26.9516 97.2166 26.8233 97.1402 26.6671L97.1203 26.626ZM93.85 21.7301L91.9844 26.1188H95.6394L93.85 21.7301ZM106.435 23.7747H102.144V27.2543C102.144 27.5136 102.037 27.7506 101.865 27.9231L101.863 27.9253C101.689 28.0976 101.452 28.2036 101.193 28.2036H100.833C100.573 28.2036 100.335 28.0968 100.162 27.9241C99.9887 27.7539 99.8815 27.5162 99.8815 27.2543V18.8852C99.8815 18.6232 99.9887 18.3856 100.16 18.2142L100.208 18.1721C100.376 18.0252 100.595 17.9359 100.833 17.9359H101.193C101.453 17.9359 101.69 18.0423 101.863 18.2142L101.865 18.2164C102.038 18.3897 102.144 18.6263 102.144 18.8852V21.5863H106.435V18.8852C106.435 18.6232 106.542 18.3856 106.714 18.2142L106.761 18.1721C106.929 18.0252 107.148 17.9359 107.386 17.9359H107.746C108.006 17.9359 108.243 18.0423 108.416 18.2142L108.418 18.2164C108.591 18.3897 108.697 18.6263 108.697 18.8852V27.2543C108.697 27.5136 108.591 27.7506 108.418 27.9231L108.416 27.9253C108.243 28.0976 108.005 28.2036 107.746 28.2036H107.386C107.126 28.2036 106.888 28.0968 106.715 27.9241C106.542 27.7539 106.435 27.5162 106.435 27.2543V23.7747ZM102.012 22.6933H106.567C106.827 22.6933 107.064 22.7994 107.237 22.9708L107.238 22.9729C107.412 23.1464 107.518 23.3834 107.518 23.6427V27.1223H107.614V19.0172H107.518V21.7183C107.518 21.9557 107.429 22.1744 107.282 22.3421L107.24 22.3893C107.068 22.5608 106.83 22.6676 106.567 22.6676H102.012C101.749 22.6676 101.511 22.5608 101.339 22.3893C101.167 22.2179 101.06 21.9803 101.06 21.7183V19.0172H100.965V27.1223H101.06V23.6427C101.06 23.3808 101.167 23.1431 101.339 22.9717C101.514 22.8002 101.751 22.6933 102.012 22.6933ZM112.506 21.5689H113.094C113.549 21.5689 113.967 21.5878 114.347 21.6255C114.731 21.6636 115.064 21.7218 115.347 21.8004C115.663 21.8881 115.957 22.0283 116.227 22.2205C116.489 22.4065 116.729 22.6429 116.947 22.9289C117.167 23.2173 117.333 23.5289 117.444 23.8626C117.555 24.1985 117.611 24.5495 117.611 24.9151C117.611 25.3607 117.531 25.7796 117.37 26.1714C117.21 26.5591 116.973 26.9129 116.659 27.2316C116.334 27.5631 115.928 27.8101 115.444 27.9721C114.983 28.1264 114.454 28.2036 113.859 28.2036H111.203C110.943 28.2036 110.705 28.0968 110.532 27.9241C110.359 27.7539 110.252 27.5162 110.252 27.2543V18.8852C110.252 18.6232 110.359 18.3856 110.531 18.2142L110.578 18.1721C110.746 18.0252 110.965 17.9359 111.203 17.9359H111.554C111.814 17.9359 112.052 18.0423 112.225 18.2142L112.227 18.2164C112.399 18.3897 112.506 18.6263 112.506 18.8852V21.5689ZM113.094 22.6503H112.373C112.111 22.6503 111.873 22.5434 111.701 22.372C111.529 22.2005 111.422 21.9629 111.422 21.7009V19.0172H111.336V27.1223H112.042C111.95 27.0827 111.866 27.0289 111.792 26.9639L111.744 26.9219C111.572 26.7504 111.465 26.5128 111.465 26.2508V23.6082C111.465 23.3462 111.572 23.1086 111.744 22.9371C111.919 22.7657 112.156 22.6588 112.417 22.6588H113.018C113.447 22.6588 113.821 22.6754 114.14 22.7089C114.462 22.7426 114.726 22.7957 114.932 22.8687L114.963 22.8793C115.19 22.9649 115.391 23.0822 115.564 23.2308C115.733 23.3783 115.876 23.5526 115.99 23.7543L115.999 23.7688C116.1 23.9494 116.179 24.1372 116.235 24.3311L116.242 24.3562C116.3 24.5642 116.329 24.771 116.329 24.9756C116.329 25.7224 116.05 26.2909 115.492 26.6799C115.242 26.8548 114.938 26.9856 114.581 27.0723C114.769 27.0437 114.943 27.003 115.102 26.95C115.42 26.8434 115.682 26.6865 115.885 26.4796L115.887 26.4776C116.103 26.2584 116.265 26.0193 116.371 25.7614C116.475 25.507 116.528 25.2249 116.528 24.915C116.528 24.656 116.492 24.4175 116.419 24.2005C116.346 23.9803 116.236 23.773 116.088 23.5796C115.94 23.3848 115.777 23.2244 115.601 23.0991C115.433 22.9798 115.252 22.893 115.059 22.8396C114.834 22.7771 114.561 22.7299 114.242 22.6983C113.919 22.6664 113.537 22.6503 113.094 22.6503ZM112.549 23.7402V26.1188H113.374C114.067 26.1188 114.568 26.0113 114.874 25.7972C115.121 25.6249 115.245 25.3507 115.245 24.9756C115.245 24.8605 115.23 24.7494 115.201 24.6435L115.196 24.6235C115.165 24.5187 115.118 24.4093 115.055 24.2968L115.046 24.2812C114.994 24.1895 114.931 24.1117 114.858 24.049C114.777 23.9817 114.685 23.9275 114.582 23.8887L114.563 23.8814C114.442 23.8393 114.264 23.806 114.03 23.7816C113.765 23.7541 113.428 23.7402 113.018 23.7402H112.549ZM119.126 17.9359H119.486C119.746 17.9359 119.983 18.0423 120.156 18.2142L120.158 18.2164C120.331 18.3897 120.437 18.6263 120.437 18.8852V27.2543C120.437 27.5136 120.331 27.7506 120.158 27.9231L120.156 27.9253C119.983 28.0976 119.745 28.2036 119.486 28.2036H119.126C118.866 28.2036 118.628 28.0968 118.455 27.9241C118.282 27.7539 118.175 27.5162 118.175 27.2543V18.8852C118.175 18.6232 118.282 18.3856 118.454 18.2142L118.501 18.1721C118.669 18.0252 118.888 17.9359 119.126 17.9359ZM119.354 19.0172H119.258V27.1223H119.354V19.0172ZM130.784 24.317L131.078 24.4715C131.194 24.5326 131.293 24.6131 131.374 24.7124C131.455 24.8125 131.515 24.9274 131.55 25.0536C131.585 25.1785 131.595 25.3052 131.578 25.4314L131.578 25.4335C131.562 25.5612 131.519 25.6823 131.453 25.7937C131.302 26.0475 131.141 26.2829 130.97 26.498C130.797 26.7159 130.614 26.9126 130.422 27.0873C130.184 27.3027 129.928 27.4954 129.654 27.6644C129.38 27.8334 129.095 27.9746 128.8 28.0869L128.77 28.0972C128.475 28.2069 128.163 28.2894 127.835 28.3442C127.498 28.4006 127.146 28.4286 126.781 28.4286C125.109 28.4286 123.797 27.8757 122.839 26.77C122.371 26.2306 122.02 25.6548 121.786 25.0438C121.549 24.428 121.431 23.7779 121.431 23.0957C121.431 22.459 121.532 21.8503 121.733 21.2714C121.933 20.6956 122.233 20.1562 122.63 19.6547C123.135 19.0099 123.733 18.5241 124.421 18.1978C125.106 17.8735 125.871 17.7109 126.715 17.7109C127.581 17.7109 128.367 17.8772 129.071 18.2089C129.774 18.5401 130.388 19.0364 130.91 19.6958C131.24 20.1061 131.498 20.5642 131.686 21.0687C131.872 21.5681 131.987 22.1075 132.03 22.6858C132.04 22.8176 132.022 22.946 131.98 23.0691L131.979 23.0712C131.937 23.1919 131.869 23.3031 131.778 23.4016L131.739 23.4392C131.656 23.5195 131.563 23.5822 131.462 23.6263C131.341 23.6788 131.213 23.7057 131.082 23.7057H123.775C123.824 24.0209 123.91 24.3117 124.033 24.5775C124.173 24.8818 124.364 25.1566 124.602 25.4012C124.882 25.6876 125.194 25.9024 125.536 26.0442C125.878 26.1861 126.258 26.2574 126.674 26.2574C126.879 26.2574 127.081 26.2398 127.279 26.205C127.48 26.1697 127.677 26.1172 127.865 26.0487C128.059 25.9784 128.238 25.8971 128.4 25.8054C128.555 25.7181 128.699 25.6172 128.832 25.5032L128.859 25.4811C128.954 25.3963 129.056 25.2884 129.165 25.1573C129.293 25.0021 129.421 24.8278 129.548 24.6358C129.682 24.4318 129.884 24.2951 130.105 24.2381C130.326 24.1813 130.568 24.2038 130.784 24.317ZM130.451 25.3614L130.384 25.326C130.248 25.5258 130.12 25.6993 129.998 25.8458C129.856 26.0173 129.714 26.166 129.571 26.2917L129.539 26.3226C129.36 26.4762 129.158 26.6166 128.934 26.7433C128.718 26.8652 128.484 26.9717 128.234 27.0626C127.978 27.1552 127.721 27.2247 127.465 27.2696C127.204 27.3156 126.94 27.3387 126.674 27.3387C126.117 27.3387 125.599 27.2392 125.121 27.0409C124.644 26.843 124.212 26.5467 123.828 26.1531C123.502 25.8195 123.243 25.4445 123.051 25.0295C122.86 24.6178 122.736 24.1684 122.68 23.6821C122.664 23.5452 122.676 23.4127 122.716 23.2874C122.757 23.1605 122.824 23.0442 122.914 22.9428C123.008 22.8399 123.115 22.7608 123.234 22.7075C123.337 22.6627 123.442 22.6357 123.55 22.6272C123.51 22.6125 123.47 22.5951 123.433 22.5751L123.431 22.573C123.296 22.5019 123.181 22.3981 123.091 22.2665C123.001 22.1337 122.947 21.987 122.931 21.8362C122.915 21.6843 122.936 21.5305 122.995 21.3828C123.124 21.0634 123.272 20.7767 123.44 20.5239C123.605 20.2759 123.792 20.0573 123.999 19.8691L124.029 19.8407C124.406 19.506 124.822 19.2542 125.277 19.0858C125.728 18.9191 126.214 18.8355 126.732 18.8355C127.025 18.8355 127.318 18.8664 127.611 18.9275L127.652 18.9349C127.952 19.0006 128.247 19.1 128.533 19.2321C128.819 19.3639 129.078 19.5172 129.309 19.6915C129.545 19.8689 129.754 20.0699 129.936 20.2953C130.059 20.448 130.173 20.6204 130.277 20.8108C130.38 20.9992 130.47 21.1987 130.547 21.4081C130.601 21.5532 130.617 21.7046 130.598 21.8554C130.581 21.9888 130.535 22.1169 130.463 22.2332L130.436 22.2775C130.355 22.3924 130.253 22.4861 130.134 22.5552L130.093 22.5785C130.059 22.5959 130.025 22.611 129.99 22.6243H130.938C130.896 22.1972 130.808 21.8039 130.674 21.4447C130.528 21.0513 130.324 20.6913 130.065 20.3664C129.649 19.8396 129.163 19.4459 128.609 19.1848C128.055 18.9234 127.422 18.7923 126.715 18.7923C126.03 18.7923 125.419 18.9197 124.883 19.1737C124.351 19.4261 123.882 19.809 123.479 20.321H123.477C123.155 20.7275 122.913 21.1617 122.753 21.622C122.594 22.0793 122.515 22.571 122.515 23.0957C122.515 23.6468 122.609 24.1684 122.797 24.6592C122.987 25.155 123.274 25.6239 123.656 26.0647C124.396 26.9196 125.437 27.3473 126.781 27.3473C127.094 27.3473 127.387 27.3248 127.657 27.2797C127.917 27.2363 128.161 27.1721 128.39 27.0876L128.415 27.0775C128.655 26.986 128.879 26.8757 129.087 26.7477C129.298 26.6178 129.5 26.4646 129.694 26.2893C129.844 26.1531 129.987 25.9985 130.124 25.8266C130.237 25.6846 130.346 25.5291 130.451 25.3614ZM129.462 21.6034C129.419 21.503 129.375 21.4105 129.329 21.3261C129.258 21.197 129.179 21.0781 129.093 20.9712C128.97 20.8184 128.824 20.6791 128.657 20.5534C128.486 20.4244 128.294 20.3104 128.08 20.2121C127.867 20.1141 127.648 20.0401 127.424 19.9908L127.385 19.981C127.178 19.9383 126.96 19.9169 126.732 19.9169C126.34 19.9169 125.979 19.978 125.65 20.0998C125.325 20.2201 125.024 20.4028 124.748 20.6474L124.721 20.6697C124.585 20.7945 124.458 20.9445 124.342 21.1194C124.245 21.2646 124.157 21.4261 124.076 21.6034H129.462ZM55.9277 34.7264H56.2607C56.4462 34.7264 56.6233 34.7803 56.7752 34.8778C56.9278 34.9755 57.0504 35.116 57.1273 35.2862L59.6942 40.9804L62.1843 35.2967C62.2603 35.1234 62.3821 34.9818 62.5335 34.8825L62.5359 34.8811C62.6877 34.7816 62.8664 34.7264 63.0548 34.7264H63.4238C63.5847 34.7264 63.7379 34.7656 63.8755 34.8396C64.012 34.9123 64.1282 35.0196 64.2183 35.1569C64.3086 35.2924 64.3597 35.443 64.3727 35.5973C64.3853 35.7501 64.3593 35.906 64.2942 36.0547L59.1565 47.78C59.0801 47.9549 58.9572 48.0972 58.8069 48.1956C58.655 48.2952 58.4752 48.3503 58.286 48.3503H57.9173C57.7567 48.3503 57.6031 48.3111 57.4655 48.2367C57.329 48.164 57.2116 48.0563 57.1215 47.9182C57.0324 47.7819 56.9808 47.6327 56.968 47.4792C56.9552 47.3268 56.9815 47.1709 57.0468 47.0218L58.5032 43.7007L55.0612 36.0629C54.9944 35.9138 54.9668 35.7577 54.9784 35.6048L54.9803 35.5858C54.9946 35.4369 55.0448 35.2932 55.129 35.1624C55.217 35.0261 55.3345 34.9174 55.473 34.8424C55.6126 34.7666 55.767 34.7264 55.9277 34.7264ZM56.1763 35.8077H56.1303L59.5127 43.3131C59.5681 43.4359 59.5959 43.5649 59.5967 43.6964C59.5971 43.829 59.5703 43.9567 59.5167 44.0795L58.1179 47.269H58.2011L63.2231 35.8077H63.1397L60.5661 41.6821C60.4905 41.8549 60.3691 41.9962 60.2178 42.0957C60.0671 42.1948 59.8889 42.2495 59.6997 42.2503C59.5101 42.2512 59.3315 42.1981 59.1814 42.1018C59.0291 42.0041 58.9062 41.8633 58.8291 41.6923L56.1763 35.8077ZM68.2569 44.9941H65.9879C65.7266 44.9941 65.4876 44.8872 65.3156 44.7156L65.2738 44.6688C65.1268 44.5017 65.0365 44.2832 65.0365 44.0448V35.6757C65.0365 35.416 65.1436 35.1785 65.3166 35.0059C65.4872 34.8333 65.7253 34.7264 65.9879 34.7264H68.2163C68.7745 34.7264 69.2624 34.7926 69.6785 34.9242C70.1274 35.0662 70.4957 35.2861 70.7816 35.5823C71.0498 35.8606 71.2528 36.1671 71.3896 36.5002C71.5286 36.839 71.5984 37.1971 71.5984 37.5738C71.5984 38.1461 71.4655 38.6351 71.1997 39.04C71.1129 39.1725 71.013 39.2942 70.8998 39.4056C71.1779 39.5963 71.4108 39.8196 71.5988 40.076C71.9684 40.5803 72.1533 41.1931 72.1533 41.9132C72.1533 42.9363 71.8009 43.7142 71.0979 44.2464C70.4403 44.7445 69.4924 44.9941 68.2569 44.9941ZM66.1201 43.9128H66.7919C66.7002 43.873 66.6156 43.819 66.5413 43.7538L66.4945 43.7121C66.3224 43.5405 66.2154 43.302 66.2154 43.0413V40.6408C66.2154 40.3805 66.323 40.1421 66.4951 39.9704C66.6669 39.7989 66.9048 39.6915 67.1667 39.6915H68.5255C68.8451 39.6915 69.1408 39.7399 69.4099 39.8353L69.4312 39.8431C69.3827 39.7936 69.3429 39.7342 69.3155 39.6659C69.2936 39.6116 69.2813 39.5558 69.2778 39.5002C69.203 39.5333 69.1265 39.5601 69.0483 39.5803C68.9057 39.6171 68.701 39.6439 68.4362 39.6598C68.184 39.6749 67.8815 39.6829 67.5315 39.6829H67.1667C66.9279 39.6829 66.7088 39.5928 66.5413 39.4461L66.4945 39.4044C66.3224 39.2327 66.2154 38.9943 66.2154 38.7335V36.6964C66.2154 36.436 66.323 36.1976 66.4951 36.0259C66.5901 35.9311 66.7051 35.8561 66.8333 35.8077H66.1201V43.9128ZM69.3525 35.9548L69.3337 35.9489C69.3978 35.9824 69.4606 36.0216 69.5221 36.0664C69.6703 36.1743 69.8094 36.3126 69.9384 36.4802C70.0778 36.6604 70.182 36.8606 70.2502 37.0795C70.3168 37.2924 70.3502 37.5211 70.3502 37.764C70.3502 38.0021 70.3172 38.2227 70.2513 38.4252C70.2339 38.4786 70.2142 38.5307 70.1921 38.5811C70.2295 38.539 70.2636 38.4949 70.2938 38.4487C70.4411 38.2243 70.5148 37.9326 70.5148 37.5738C70.5148 37.3329 70.4733 37.1111 70.3907 36.9101C70.3061 36.7039 70.1765 36.51 70.0027 36.3298C69.8462 36.1678 69.629 36.0423 69.3525 35.9548ZM70.7269 40.714C70.5347 40.4516 70.2535 40.2376 69.8845 40.0728C69.9793 40.1361 70.0688 40.2074 70.1528 40.2863C70.3692 40.4892 70.5324 40.7289 70.6418 41.0039C70.7478 41.2708 70.801 41.563 70.801 41.8786C70.801 42.1224 70.7705 42.3489 70.7106 42.5569C70.6473 42.7765 70.5498 42.9766 70.42 43.1564C70.2951 43.3294 70.1557 43.4735 70.0035 43.5867C69.9443 43.6308 69.8829 43.6707 69.8192 43.7064C70.0655 43.6247 70.2744 43.5191 70.446 43.3891C70.8614 43.0746 71.0697 42.5824 71.0697 41.9132C71.0697 41.4257 70.9553 41.0256 70.7269 40.714ZM67.299 36.8283V38.6016H67.5315C67.8842 38.6016 68.1651 38.595 68.3728 38.5826C68.5712 38.5705 68.7067 38.5552 68.7771 38.537C68.8226 38.5254 68.8716 38.5016 68.9219 38.4673C68.9852 38.4242 69.0491 38.3656 69.1117 38.2928L69.1203 38.283C69.1639 38.2305 69.1981 38.1664 69.2225 38.0914C69.2518 38.0012 69.2666 37.8919 69.2666 37.764C69.2666 37.6267 69.2502 37.5053 69.2174 37.4007C69.1867 37.302 69.1416 37.2146 69.0833 37.1389C69.0136 37.0484 68.948 36.9806 68.8873 36.9365C68.8468 36.907 68.8097 36.8884 68.778 36.8821C68.6979 36.866 68.556 36.8529 68.3545 36.8431C68.1565 36.8332 67.8813 36.8283 67.5315 36.8283H67.299ZM67.299 40.7728V42.9093H68.0314C68.3312 42.9093 68.5726 42.9009 68.7551 42.8846C68.9318 42.8689 69.0698 42.8462 69.1679 42.8174C69.2322 42.7984 69.2952 42.7661 69.356 42.7207C69.4244 42.6698 69.4875 42.6049 69.5436 42.527C69.5974 42.4524 69.6396 42.3636 69.6691 42.261C69.7011 42.15 69.7174 42.0221 69.7174 41.8786C69.7174 41.6927 69.691 41.5333 69.6384 41.4012C69.589 41.2769 69.5133 41.1668 69.4119 41.0718C69.3093 40.9755 69.1881 40.9024 69.0499 40.8533C68.8994 40.8 68.7239 40.7728 68.5255 40.7728H67.299ZM83.4021 35.6757V44.0448C83.4021 44.3059 83.2948 44.5438 83.1228 44.7154C82.9508 44.8871 82.7125 44.9941 82.4508 44.9941H82.0908C81.8295 44.9941 81.5905 44.8872 81.4185 44.7156L81.3767 44.6688C81.2521 44.527 81.1681 44.3482 81.1456 44.1517C81.0383 44.2354 80.9296 44.3139 80.8194 44.3869C80.6357 44.5085 80.444 44.6182 80.2461 44.7142C79.9031 44.8805 79.5396 45.0068 79.158 45.0916C78.7775 45.1762 78.387 45.2191 77.9885 45.2191C77.2688 45.2191 76.5945 45.0865 75.9687 44.8219C75.345 44.5583 74.777 44.1653 74.2669 43.6443C73.7567 43.1233 73.3727 42.5431 73.1164 41.9051C72.8596 41.2667 72.7312 40.5762 72.7312 39.8343C72.7312 39.1077 72.862 38.4271 73.1227 37.7944C73.3835 37.1616 73.771 36.586 74.2833 36.0691C74.7976 35.55 75.3685 35.1582 75.9949 34.8956C76.6207 34.6334 77.297 34.5014 78.0231 34.5014C78.4394 34.5014 78.8399 34.5462 79.2235 34.635C79.6099 34.7248 79.9764 34.8594 80.3216 35.0384C80.502 35.132 80.6824 35.2429 80.8608 35.369C80.957 35.4373 81.0514 35.5096 81.1437 35.5856C81.1653 35.3594 81.2664 35.1563 81.4183 35.0047C81.5902 34.8333 81.8283 34.7264 82.0908 34.7264H82.4508C82.713 34.7264 82.9512 34.8341 83.1226 35.0051C83.2948 35.1769 83.4021 35.4154 83.4021 35.6757ZM82.3185 43.9128V35.8077H82.223V35.8711C82.223 36.0611 82.168 36.2399 82.0684 36.3913C81.9697 36.5417 81.827 36.6632 81.6511 36.7399C81.4756 36.8161 81.2897 36.8377 81.1118 36.8073C81.0694 36.7997 81.0277 36.7895 80.9865 36.7767L81.0839 36.8727C81.4873 37.2826 81.79 37.7421 81.9915 38.2505C82.1919 38.7569 82.2925 39.3092 82.2925 39.9064C82.2925 40.2937 82.2472 40.6668 82.1583 41.0239C82.0678 41.3862 81.9329 41.727 81.7545 42.0446C81.5733 42.3677 81.353 42.6567 81.095 42.9114L81.0452 42.9576L81.1376 42.9393C81.3131 42.9142 81.4955 42.9397 81.6667 43.0178C81.8381 43.0961 81.9769 43.2171 82.0726 43.3664C82.1696 43.5174 82.223 43.6932 82.223 43.8795V43.9128H82.3185ZM77.9885 44.1378C78.1478 44.1378 78.3028 44.1302 78.4533 44.1149C78.3384 44.1245 78.223 44.1292 78.1071 44.1292C77.744 44.1292 77.3865 44.0808 77.0357 43.9847C76.684 43.8887 76.3485 43.7473 76.031 43.5621C75.7118 43.376 75.4218 43.1492 75.1628 42.8833C74.9056 42.6196 74.6824 42.32 74.4942 41.987C74.3066 41.6547 74.1654 41.3119 74.071 40.9598C73.9753 40.6043 73.9274 40.2417 73.9274 39.8746C73.9274 39.5051 73.9753 39.142 74.0701 38.7863C74.1647 38.4311 74.3056 38.0885 74.4913 37.7595C74.6779 37.4293 74.9002 37.1324 75.1568 36.8709C75.4128 36.6099 75.7017 36.3864 76.0216 36.2016C76.3414 36.0171 76.6784 35.8772 77.0304 35.7836C77.3809 35.6906 77.7432 35.6432 78.1157 35.6432C78.6925 35.6432 79.23 35.7456 79.7266 35.9495C79.4888 35.8351 79.2392 35.7474 78.9782 35.6869C78.679 35.6175 78.3603 35.5827 78.0231 35.5827C77.4418 35.5827 76.9051 35.6865 76.4139 35.8923C75.921 36.0989 75.4672 36.4119 75.0536 36.8292C74.6371 37.2492 74.3261 37.7082 74.1215 38.2043C73.9172 38.7 73.8148 39.244 73.8148 39.8343C73.8148 40.4416 73.9163 40.9982 74.1197 41.5037C74.323 42.0096 74.6306 42.4729 75.0414 42.8924C75.4506 43.3104 75.8999 43.6231 76.3876 43.8292C76.8737 44.0348 77.408 44.1378 77.9885 44.1378ZM78.1157 36.7246C77.8317 36.7246 77.5612 36.7591 77.3056 36.8269C77.0476 36.8954 76.7999 36.9986 76.5634 37.1351C76.3274 37.2713 76.1145 37.4359 75.9272 37.6269C75.741 37.8165 75.5766 38.0374 75.4353 38.2875C75.2924 38.5405 75.1855 38.7987 75.1156 39.0609C75.046 39.3216 75.011 39.5932 75.011 39.8746C75.011 40.1506 75.0463 40.4199 75.1164 40.6811C75.1871 40.9448 75.2948 41.2048 75.4382 41.459C75.5815 41.713 75.7484 41.9375 75.9372 42.1314C76.1239 42.3231 76.3377 42.4892 76.5769 42.6288C76.8209 42.771 77.0691 42.877 77.3195 42.9455C77.5681 43.0135 77.8308 43.0479 78.1071 43.0479C78.3854 43.0479 78.6549 43.0131 78.9137 42.9447C79.1737 42.8758 79.43 42.7706 79.68 42.6302C79.9284 42.4906 80.1468 42.3284 80.3343 42.1437C80.521 41.9573 80.6806 41.7485 80.8106 41.5166C80.9433 41.2804 81.043 41.0299 81.1087 40.7665C81.1751 40.4998 81.2089 40.2127 81.2089 39.9064C81.2089 39.4459 81.1337 39.026 80.984 38.6478C80.8348 38.2709 80.6109 37.9308 80.3136 37.6287C80.015 37.3253 79.6844 37.0983 79.323 36.9491C78.9607 36.7996 78.5581 36.7246 78.1157 36.7246ZM92.6995 44.9941H92.3624C92.1793 44.9941 92.0032 44.9408 91.8511 44.8441C91.7004 44.7483 91.5777 44.6112 91.4997 44.4426L88.9953 39.0468L86.5334 44.4357C86.4564 44.6069 86.3337 44.7463 86.1826 44.8433C86.0319 44.94 85.8546 44.9941 85.6684 44.9941H85.3004C85.1401 44.9941 84.9849 44.9537 84.8453 44.8774C84.7083 44.8027 84.5899 44.6938 84.5011 44.555C84.413 44.4177 84.3616 44.2663 84.3506 44.1106C84.3389 43.9557 84.3682 43.798 84.439 43.647L88.117 35.8228C88.1957 35.6557 88.3167 35.5192 88.466 35.4244V35.4221C88.6126 35.3292 88.7878 35.2775 88.9758 35.2771C89.1611 35.2767 89.3356 35.3283 89.4836 35.4213C89.6347 35.5165 89.7572 35.6522 89.8356 35.8167L93.5593 43.6412C93.6309 43.7892 93.6602 43.9484 93.6496 44.1071C93.6391 44.2626 93.5886 44.4152 93.4995 44.5542C93.4102 44.6942 93.2922 44.8028 93.1569 44.877L93.1135 44.8983C92.9845 44.9608 92.8438 44.9941 92.6995 44.9941ZM92.4457 43.9128H92.4914L90.6577 40.0609L92.4457 43.9128ZM89.5055 37.932C89.601 37.9924 89.6853 38.0705 89.7543 38.1628L88.977 36.53L85.5065 43.9128H85.5855L88.1291 38.3429C88.1962 38.1951 88.2988 38.0701 88.4256 37.9757L88.4803 37.9357C88.6281 37.8406 88.8044 37.7873 88.9936 37.7869C89.182 37.7864 89.3575 37.8382 89.5055 37.932ZM96.8527 38.3594H97.4406C97.8964 38.3594 98.3147 38.3786 98.6948 38.4162C99.0779 38.4545 99.4114 38.5131 99.6938 38.5909C100.009 38.6782 100.303 38.8184 100.574 39.0106C100.836 39.1966 101.076 39.4334 101.294 39.7195C101.514 40.0078 101.68 40.3194 101.791 40.6531C101.902 40.989 101.958 41.34 101.958 41.7056C101.958 42.1514 101.877 42.5701 101.716 42.9618C101.556 43.3504 101.318 43.7048 101.004 44.0242C100.68 44.354 100.274 44.6002 99.7898 44.7622C99.3283 44.9167 98.7998 44.9941 98.2064 44.9941H95.5502C95.2889 44.9941 95.05 44.8872 94.878 44.7156L94.8362 44.6688C94.6892 44.5017 94.5989 44.2832 94.5989 44.0448V35.6757C94.5989 35.4137 94.706 35.1761 94.8777 35.0047C95.0495 34.8333 95.2877 34.7264 95.5502 34.7264H95.9014C96.1622 34.7264 96.3991 34.8336 96.5713 35.0049H96.5736C96.7456 35.1765 96.8527 35.415 96.8527 35.6757V38.3594ZM97.4406 39.4407H96.7205C96.4817 39.4407 96.2626 39.3506 96.0951 39.2039L96.0482 39.1622C95.8762 38.9906 95.7691 38.7521 95.7691 38.4914V35.8077H95.6825V43.9128H96.3889C96.2972 43.873 96.2126 43.819 96.1383 43.7538L96.0914 43.7121C95.9194 43.5405 95.8123 43.302 95.8123 43.0413V40.3987C95.8123 40.1384 95.92 39.8999 96.092 39.7283C96.2638 39.5568 96.5017 39.4493 96.7636 39.4493H97.3654C97.793 39.4493 98.1673 39.4659 98.4869 39.4994C98.8242 39.5345 99.0986 39.5915 99.3078 39.6698C99.5335 39.7538 99.7348 39.8721 99.9092 40.0221C100.083 40.1717 100.229 40.3523 100.346 40.5613C100.453 40.7544 100.535 40.9508 100.589 41.1492C100.646 41.3562 100.675 41.5619 100.675 41.7661C100.675 42.5129 100.397 43.0814 99.8394 43.4704C99.5896 43.6447 99.2867 43.7753 98.931 43.8619C99.1176 43.8333 99.2896 43.7928 99.4471 43.7402C99.7669 43.633 100.03 43.4756 100.234 43.2681C100.449 43.0489 100.611 42.8098 100.717 42.5519C100.822 42.2973 100.875 42.0152 100.875 41.7056C100.875 41.4465 100.838 41.208 100.766 40.991C100.693 40.7707 100.583 40.5636 100.435 40.3701C100.287 40.1751 100.124 40.0145 99.9471 39.8893C99.7792 39.7701 99.5984 39.6833 99.4059 39.6302C99.1813 39.5683 98.9087 39.5208 98.5891 39.489C98.2664 39.4571 97.8835 39.4407 97.4406 39.4407ZM96.8959 40.5306V42.9093H97.7209C98.4142 42.9093 98.9145 42.8018 99.2214 42.5877C99.4683 42.4154 99.5919 42.1412 99.5919 41.7661C99.5919 41.652 99.5769 41.5419 99.5478 41.4365C99.5155 41.3194 99.4665 41.2019 99.4016 41.0853C99.3474 40.9878 99.2804 40.9046 99.2024 40.8374C99.1248 40.7706 99.0339 40.7174 98.931 40.6792C98.8096 40.6338 98.6243 40.5979 98.3768 40.5722C98.112 40.5445 97.7744 40.5306 97.3654 40.5306H96.8959ZM103.473 34.7264H103.833C104.094 34.7264 104.331 34.8336 104.503 35.0049H104.505C104.677 35.1765 104.784 35.415 104.784 35.6757V44.0448C104.784 44.3059 104.677 44.5438 104.505 44.7154C104.333 44.8871 104.095 44.9941 103.833 44.9941H103.473C103.212 44.9941 102.973 44.8872 102.801 44.7156L102.759 44.6688C102.612 44.5017 102.522 44.2832 102.522 44.0448V35.6757C102.522 35.4137 102.629 35.1761 102.801 35.0047C102.973 34.8333 103.211 34.7264 103.473 34.7264ZM103.701 35.8077H103.605V43.9128H103.701V35.8077Z" fill="white"/>
<path d="M55.8751 1.08127H62.7882C63.0138 1.08127 63.1977 1.26477 63.1977 1.48994V9.85905C63.1977 10.0842 63.0138 10.2677 62.7882 10.2677H62.4284C62.2027 10.2677 62.0189 10.0842 62.0189 9.85905V2.59726C62.0189 2.3721 61.835 2.18855 61.6093 2.18855H57.0539C56.8283 2.18855 56.6444 2.3721 56.6444 2.59726V9.85905C56.6444 10.0842 56.4605 10.2677 56.2349 10.2677H55.8751C55.6494 10.2677 55.4656 10.0842 55.4656 9.85905V1.48994C55.4656 1.26477 55.6494 1.08127 55.8751 1.08127ZM75.0071 1.48994V9.85905C75.0071 10.0842 74.8232 10.2677 74.5976 10.2677H74.2376C74.0119 10.2677 73.828 10.0842 73.828 9.85905V9.69394C73.828 9.5303 73.738 9.39033 73.5889 9.32226C73.4398 9.25424 73.2748 9.27774 73.1507 9.38479C72.8396 9.65291 72.5087 9.87213 72.158 10.0428C71.5423 10.3421 70.8664 10.4927 70.1353 10.4927C68.8351 10.4927 67.7226 10.0227 66.8009 9.08262C65.8791 8.13981 65.4198 6.99797 65.4198 5.64858C65.4198 4.33079 65.885 3.20064 66.8153 2.26338C67.7428 1.32629 68.8611 0.856364 70.17 0.856364C70.9241 0.856364 71.6061 1.01489 72.2186 1.33199C72.5469 1.50286 72.8542 1.72047 73.1399 1.98506C73.2619 2.09805 73.4296 2.12665 73.5821 2.06023C73.7349 1.99383 73.828 1.85161 73.828 1.68553V1.48994C73.828 1.26477 74.0119 1.08127 74.2376 1.08127H74.5976C74.8232 1.08127 75.0071 1.26477 75.0071 1.48994ZM70.2625 1.99814C69.6038 1.99814 68.994 2.15954 68.4392 2.48261C67.8815 2.8026 67.4394 3.2554 67.1101 3.83775C66.7807 4.42033 66.616 5.03718 66.616 5.68882C66.616 6.33185 66.7807 6.94896 67.113 7.53725C67.4453 8.12529 67.8903 8.58381 68.4507 8.90974C69.0114 9.23831 69.6123 9.40279 70.2539 9.40279C70.8981 9.40279 71.5136 9.24114 72.0914 8.91545C72.6723 8.5895 73.1173 8.15124 73.4294 7.59484C73.7415 7.04131 73.8975 6.41546 73.8975 5.72069C73.8975 4.66244 73.5478 3.77728 72.8456 3.06494C72.1463 2.35285 71.2853 1.99814 70.2625 1.99814ZM78.1066 1.08127H78.4666C78.6923 1.08127 78.8761 1.26477 78.8761 1.48994V1.69002C78.8761 1.85611 78.9693 1.99814 79.1218 2.06456C79.2744 2.13114 79.4421 2.10254 79.5641 1.98955C79.8522 1.72289 80.1612 1.50367 80.4913 1.33199C81.1007 1.01489 81.7799 0.856364 82.5312 0.856364C83.8402 0.856364 84.9584 1.32629 85.8889 2.26338C86.8191 3.20064 87.2844 4.33079 87.2844 5.64858C87.2844 6.99797 86.822 8.13981 85.9004 9.08262C84.9786 10.0227 83.8662 10.4927 82.5631 10.4927C81.8319 10.4927 81.1588 10.3399 80.5433 10.037C80.1942 9.86355 79.8643 9.64288 79.5539 9.37436C79.43 9.26709 79.2646 9.24339 79.1155 9.31148C78.9664 9.37948 78.8761 9.52107 78.8761 9.68313V11.5806C78.8761 11.8041 78.6906 11.9893 78.4666 11.9893H78.1066C77.8826 11.9893 77.6971 11.8058 77.6971 11.5806V1.48994C77.6971 1.26477 77.881 1.08127 78.1066 1.08127ZM82.4446 1.99814C81.4189 1.99814 80.5576 2.35285 79.8586 3.06494C79.1563 3.77728 78.8067 4.66244 78.8067 5.72069C78.8067 6.41546 78.9627 7.04131 79.2748 7.59484C79.5868 8.15124 80.0347 8.5895 80.6156 8.91545C81.1992 9.24114 81.8147 9.40279 82.4591 9.40279C83.0947 9.40279 83.6928 9.23831 84.2534 8.90974C84.8139 8.58381 85.2588 8.12529 85.5912 7.53725C85.9235 6.94896 86.0882 6.33185 86.0882 5.68882C86.0882 5.03718 85.9235 4.42033 85.5941 3.83775C85.2648 3.2554 84.8225 2.8026 84.265 2.48261C83.7102 2.15954 83.1004 1.99814 82.4446 1.99814ZM89.916 1.08127H90.2758C90.5014 1.08127 90.6853 1.26477 90.6853 1.48994V4.03022C90.6853 4.19533 90.7773 4.33657 90.9286 4.40378C91.0799 4.47076 91.2466 4.44401 91.3695 4.33326L94.8564 1.18694C94.9346 1.11621 95.0255 1.08127 95.131 1.08127H95.5321C95.7049 1.08127 95.8524 1.18246 95.9144 1.34346C95.9763 1.50446 95.9347 1.67792 95.8065 1.79339L92.2628 4.98468C92.1762 5.06273 92.1308 5.16183 92.1279 5.2781C92.1251 5.3946 92.1656 5.49571 92.2483 5.57785L96.267 9.56949C96.387 9.68866 96.4212 9.85887 96.3565 10.0152C96.292 10.1713 96.1474 10.2677 95.9781 10.2677H95.4642C95.3511 10.2677 95.2539 10.2273 95.174 10.1474L91.058 6.02047L90.8236 6.22724C90.7325 6.30753 90.6853 6.41194 90.6853 6.53332V9.85905C90.6853 10.0842 90.5014 10.2677 90.2758 10.2677H89.916C89.6904 10.2677 89.5065 10.0842 89.5065 9.85905V1.48994C89.5065 1.26477 89.6904 1.08127 89.916 1.08127Z" fill="white"/>
<path d="M55.8752 0.540714H62.7883C63.0485 0.540714 63.2865 0.647604 63.4595 0.820239C63.6325 0.990474 63.7396 1.2281 63.7396 1.49003V9.85915C63.7396 10.1211 63.6325 10.3588 63.4607 10.5302C63.2889 10.7016 63.0508 10.8085 62.7883 10.8085H62.4285C62.166 10.8085 61.9278 10.7016 61.756 10.5302C61.5842 10.3563 61.4772 10.1188 61.4772 9.85915V2.72936H57.1863V9.85915C57.1863 10.1211 57.0792 10.3588 56.9074 10.5302C56.7356 10.7016 56.4975 10.8085 56.235 10.8085H55.8752C55.6127 10.8085 55.3745 10.7016 55.2027 10.5302C55.0309 10.3563 54.9238 10.1188 54.9238 9.85915V1.49003C54.9238 1.23074 55.0305 0.993761 55.2027 0.821269L55.205 0.819035C55.3778 0.647193 55.6154 0.540714 55.8752 0.540714ZM62.656 1.62203H56.0075V9.72715H56.1027V2.59735C56.1027 2.33807 56.2094 2.10103 56.3816 1.92854L56.3839 1.92631C56.5566 1.75447 56.7942 1.64797 57.054 1.64797H61.6094C61.8697 1.64797 62.1076 1.75486 62.2807 1.9275C62.4537 2.09773 62.5608 2.3354 62.5608 2.59735V9.72715H62.656V1.62203ZM75.549 1.49003V9.85915C75.549 10.1188 75.4419 10.3563 75.2689 10.5289C75.0983 10.7016 74.8602 10.8085 74.5977 10.8085H74.2377C73.9752 10.8085 73.7371 10.7016 73.5653 10.5302C73.4172 10.3825 73.3173 10.1856 73.2925 9.96642C73.1856 10.0496 73.0773 10.1277 72.9678 10.2004C72.7798 10.3248 72.5887 10.4343 72.3952 10.5285C72.0537 10.6947 71.6898 10.8207 71.3059 10.9062C70.925 10.9907 70.5341 11.0334 70.1354 11.0334C69.4157 11.0334 68.742 10.901 68.1164 10.6364C67.4929 10.3728 66.9255 9.98056 66.4159 9.4607L66.4138 9.45866C65.9033 8.93655 65.5196 8.35646 65.263 7.71872C65.0065 7.08059 64.8781 6.39055 64.8781 5.64865C64.8781 4.92179 65.0087 4.24076 65.2696 3.60792C65.5288 2.97837 65.916 2.40382 66.4302 1.88541C66.9441 1.36618 67.5146 0.97471 68.1402 0.712128C68.7698 0.448123 69.4466 0.315718 70.17 0.315718C71.0104 0.315718 71.7752 0.494938 72.4662 0.852734H72.4685C72.6501 0.947094 72.8307 1.05807 73.0091 1.18454C73.1051 1.25262 73.1989 1.32433 73.2907 1.39992C73.3121 1.17394 73.4133 0.970616 73.5652 0.81901C73.7395 0.647575 73.9774 0.540689 74.2376 0.540689H74.5977C74.8575 0.540689 75.095 0.647168 75.2678 0.81901L75.2701 0.821257C75.4423 0.993749 75.549 1.23074 75.549 1.49003ZM74.4654 9.72715V1.62203H74.37V1.68562C74.37 1.87562 74.3149 2.05444 74.2154 2.20604C74.1175 2.35519 73.9748 2.47676 73.7976 2.55383C73.6228 2.6306 73.4368 2.65269 73.2587 2.62225C73.2167 2.61471 73.1754 2.60468 73.1348 2.59205L73.2309 2.68706C73.6334 3.09506 73.9359 3.55463 74.1378 4.06484C74.3391 4.57121 74.4394 5.12353 74.4394 5.72079C74.4394 6.1088 74.3946 6.48213 74.3052 6.83993C74.215 7.20177 74.08 7.54199 73.9015 7.85893C73.7219 8.17893 73.5017 8.46762 73.2411 8.7249L73.1957 8.77107L73.2843 8.7539C73.4596 8.7286 73.6418 8.75389 73.8134 8.83235C73.985 8.91087 74.1235 9.03181 74.2195 9.181C74.3165 9.33175 74.37 9.50808 74.37 9.69404V9.72715H74.4654ZM70.1354 9.95213C70.2974 9.95213 70.4549 9.94434 70.6078 9.92884C70.4905 9.93864 70.3725 9.94354 70.254 9.94354C69.8901 9.94354 69.5318 9.89535 69.1802 9.79908C68.8341 9.70447 68.5006 9.56326 68.1803 9.3759C67.8568 9.18854 67.5662 8.96193 67.3093 8.69793C67.0556 8.4372 66.8334 8.13783 66.6432 7.8013C66.4536 7.46909 66.3123 7.12638 66.2176 6.77473C66.122 6.41876 66.0743 6.05629 66.0743 5.68891C66.0743 5.31928 66.122 4.95594 66.2168 4.60022C66.3102 4.24979 66.4519 3.9073 66.6403 3.57382C66.8293 3.23954 67.05 2.94289 67.3019 2.68584C67.5562 2.42608 67.8449 2.20318 68.1674 2.01784L68.1664 2.01601C68.4834 1.83132 68.82 1.69177 69.1736 1.59798C69.5255 1.50457 69.8889 1.4576 70.2626 1.4576C70.8423 1.4576 71.3816 1.56037 71.8798 1.76595C71.3696 1.52031 70.7999 1.39714 70.1701 1.39714C69.5851 1.39714 69.0477 1.49991 68.5592 1.70484C68.0671 1.91121 67.6137 2.22406 67.2005 2.64147L67.1985 2.64354C66.7838 3.06118 66.4736 3.51995 66.2684 4.01789C66.0641 4.51383 65.9617 5.05795 65.9617 5.6487C65.9617 6.25618 66.0635 6.81233 66.2664 7.31748C66.4699 7.82316 66.7773 8.2864 67.1883 8.70671C67.599 9.12539 68.0486 9.43806 68.5354 9.64381C69.0213 9.84936 69.5549 9.95213 70.1354 9.95213ZM70.2626 2.53891C69.9771 2.53891 69.7054 2.57319 69.4488 2.64128C69.1953 2.70849 68.9492 2.81146 68.7123 2.9494H68.7082C68.4746 3.08344 68.2635 3.24651 68.0763 3.43777C67.8857 3.63227 67.7202 3.85422 67.5802 4.10185C67.4397 4.35032 67.3335 4.60858 67.2624 4.87484C67.193 5.13535 67.1579 5.40713 67.1579 5.68891C67.1579 5.96538 67.1932 6.23488 67.2632 6.49602C67.334 6.75939 67.4414 7.01893 67.5851 7.27331C67.7253 7.52483 67.8922 7.74918 68.0837 7.94599C68.2719 8.13927 68.4848 8.30518 68.7217 8.44314L68.7238 8.44517C68.9631 8.58536 69.2101 8.69057 69.464 8.75985C69.713 8.8281 69.9767 8.86222 70.254 8.86222C70.5329 8.86222 70.803 8.82772 71.0622 8.75904C71.3261 8.68919 71.5815 8.58496 71.827 8.44661C72.0733 8.30648 72.2914 8.14378 72.4804 7.95724C72.667 7.77537 72.8254 7.56636 72.9575 7.33092C73.0906 7.09492 73.1901 6.84503 73.2556 6.58251C73.3222 6.31544 73.3558 6.0279 73.3558 5.7208C73.3558 5.25982 73.2808 4.84016 73.1311 4.46188V4.45963C72.9833 4.0855 72.7595 3.74631 72.4606 3.4431C72.162 3.13907 71.8315 2.912 71.4701 2.76306C71.1083 2.61369 70.7053 2.53891 70.2626 2.53891ZM78.1067 0.540714H78.4667C78.7266 0.540714 78.964 0.647193 79.1369 0.819035L79.1391 0.821269C79.2923 0.974503 79.3935 1.17846 79.4142 1.40403C79.5069 1.32742 79.6019 1.25466 79.6988 1.186C79.8779 1.0589 80.0591 0.947514 80.2416 0.852746C80.5907 0.673361 80.9554 0.538064 81.3355 0.449398C81.7171 0.360508 82.116 0.31573 82.5313 0.31573C83.2584 0.31573 83.9354 0.447548 84.5615 0.71013C85.1852 0.971451 85.7555 1.36315 86.2721 1.88341C86.7873 2.40239 87.1752 2.97758 87.4348 3.60795C87.6957 4.24079 87.8263 4.92181 87.8263 5.64867C87.8263 6.39082 87.6973 7.08083 87.4397 7.71874C87.1823 8.35667 86.7982 8.93658 86.2877 9.45869L86.2857 9.46072C85.7758 9.98057 85.2084 10.3731 84.5843 10.6366C83.9583 10.9011 83.2842 11.0335 82.5632 11.0335C82.163 11.0335 81.7722 10.9906 81.393 10.9048C81.0134 10.8193 80.6499 10.6908 80.3043 10.5208C80.1134 10.4268 79.9234 10.3161 79.7336 10.1892C79.6263 10.1173 79.521 10.041 79.4181 9.96073V11.5807C79.4181 11.8396 79.3103 12.0772 79.1373 12.2499C78.9668 12.4225 78.7284 12.53 78.4667 12.53H78.1067C77.8473 12.53 77.6089 12.423 77.4357 12.2501C77.2629 12.0801 77.1554 11.8426 77.1554 11.5807V1.49005C77.1554 1.22812 77.2625 0.990494 77.4343 0.819059C77.6085 0.647625 77.8465 0.540714 78.1067 0.540714ZM78.3344 1.62203H78.239V11.4487H78.3344V9.68322C78.3344 9.4981 78.388 9.32113 78.4853 9.17034C78.5812 9.02138 78.72 8.89962 78.8912 8.82157C79.0628 8.74306 79.245 8.71776 79.4205 8.74289L79.4981 8.75735L79.4658 8.72593C79.2043 8.46884 78.9829 8.17974 78.8029 7.85893C78.4446 7.22304 78.265 6.50847 78.265 5.72079C78.265 5.12497 78.3653 4.57347 78.5656 4.06691V4.06468C78.7669 3.55629 79.0695 3.09673 79.4736 2.68706L79.5628 2.59856C79.5237 2.61043 79.4838 2.62002 79.4432 2.62677C79.2663 2.65662 79.0808 2.63534 78.9061 2.5589C78.7319 2.48292 78.5894 2.36136 78.4901 2.20975C78.3895 2.05872 78.3344 1.87995 78.3344 1.69011V1.62203ZM81.5808 1.50128C81.3213 1.5618 81.076 1.64717 80.8453 1.75751C81.3383 1.55771 81.8717 1.45757 82.4447 1.45757C82.8168 1.45757 83.1802 1.50455 83.5316 1.59795C83.8848 1.69191 84.2212 1.83148 84.538 2.01599L84.537 2.01781C84.8587 2.20275 85.1464 2.42468 85.3992 2.68252L85.4013 2.68456C85.6536 2.942 85.8747 3.23892 86.0641 3.5738C86.2529 3.90727 86.3942 4.24976 86.4876 4.60019C86.5824 4.95592 86.6301 5.31927 86.6301 5.6889C86.6301 6.05627 86.5824 6.41875 86.4868 6.77471C86.3921 7.12637 86.2511 7.46882 86.0633 7.80128C85.8749 8.13475 85.6521 8.43389 85.3951 8.69791C85.1382 8.96192 84.8478 9.18852 84.5245 9.37651C84.2049 9.56283 83.8725 9.70407 83.5283 9.79843C83.1783 9.89533 82.8219 9.94352 82.4593 9.94352C82.3271 9.94352 82.1957 9.9374 82.0649 9.92537C82.226 9.94312 82.3921 9.95211 82.5632 9.95211C83.145 9.95211 83.6794 9.84933 84.1653 9.64399C84.6527 9.43819 85.1024 9.12517 85.5133 8.70667C85.9245 8.2862 86.2324 7.82272 86.4364 7.31744C86.6405 6.8119 86.7427 6.25572 86.7427 5.64865C86.7427 5.0579 86.6403 4.51379 86.436 4.01785C86.2306 3.51967 85.9203 3.06115 85.5059 2.6435C85.0923 2.22708 84.6379 1.91446 84.1426 1.70681C83.6506 1.50068 83.1135 1.39709 82.5313 1.39709C82.1955 1.39709 81.8783 1.43205 81.5808 1.50128ZM82.4447 2.53891C82.0005 2.53891 81.5969 2.61367 81.2345 2.76304C80.8727 2.91199 80.5424 3.13906 80.2438 3.44309C79.9457 3.74526 79.7221 4.08508 79.573 4.46187C79.4234 4.83927 79.3486 5.25921 79.3486 5.72079C79.3486 6.32215 79.4815 6.86016 79.7469 7.3309C79.8787 7.56609 80.0381 7.77495 80.2234 7.95722C80.4111 8.14194 80.6305 8.30438 80.8803 8.44456C81.1303 8.58494 81.3877 8.68973 81.6508 8.7592C81.9104 8.82786 82.1803 8.86221 82.4592 8.86221C82.732 8.86221 82.9926 8.82808 83.2406 8.75983C83.4947 8.69077 83.741 8.58551 83.9806 8.44515L83.9827 8.44312C84.2196 8.3054 84.4325 8.13925 84.6207 7.94598C84.8093 7.75221 84.9756 7.52768 85.1193 7.27329C85.263 7.01891 85.3704 6.75938 85.4412 6.496C85.5112 6.23486 85.5465 5.96537 85.5465 5.6889C85.5465 5.40712 85.5114 5.13532 85.442 4.87482C85.371 4.60855 85.2649 4.35052 85.1242 4.10183C84.984 3.85379 84.8179 3.63146 84.6268 3.4365C84.4393 3.24568 84.2286 3.08282 83.9962 2.94938H83.9921C83.7552 2.81144 83.5092 2.70848 83.2564 2.64127C83 2.57318 82.7287 2.53891 82.4447 2.53891ZM89.9161 0.540714H90.2759C90.5357 0.540714 90.7733 0.647193 90.9461 0.819035L90.9484 0.821269C91.1206 0.993761 91.2272 1.23074 91.2272 1.49003V3.73626L94.4947 0.787954C94.5844 0.706854 94.6829 0.645977 94.7889 0.605122C94.9001 0.562395 95.0146 0.540714 95.1311 0.540714H95.5322C95.728 0.540714 95.9131 0.600385 96.0693 0.706865C96.225 0.812695 96.347 0.964544 96.4182 1.14924L96.4203 1.15126C96.4901 1.33337 96.5008 1.52665 96.4565 1.71037C96.4127 1.89403 96.3147 2.06345 96.1684 2.19485L92.7277 5.29332L96.648 9.1873C96.785 9.32364 96.8738 9.49196 96.9103 9.67279L96.9123 9.67504C96.9476 9.85241 96.9304 10.041 96.8561 10.2202C96.7824 10.3993 96.6601 10.546 96.5073 10.6477C96.3527 10.7511 96.1707 10.8085 95.9782 10.8085H95.4643C95.3373 10.8085 95.2157 10.7844 95.0994 10.736C94.9861 10.6892 94.8826 10.6195 94.791 10.5276L91.2272 6.95438V9.85917C91.2272 10.1189 91.1202 10.3563 90.9471 10.529C90.7766 10.7017 90.5384 10.8085 90.2759 10.8085H89.9161C89.6536 10.8085 89.4155 10.7017 89.2437 10.5302C89.0719 10.3588 88.9648 10.1211 88.9648 9.85917V1.49005C88.9648 1.22812 89.0719 0.990494 89.2437 0.819059C89.418 0.647625 89.6559 0.540714 89.9161 0.540714ZM90.1436 1.62203H90.0484V9.72715H90.1436V6.53342C90.1436 6.39836 90.1721 6.26819 90.2274 6.14518C90.2814 6.0232 90.3617 5.91569 90.466 5.82397L91.0821 5.28066L95.5171 9.72715H95.66L91.8676 5.96026C91.7734 5.86669 91.7021 5.75958 91.6544 5.6417C91.6073 5.52173 91.5852 5.39629 91.5883 5.26549C91.5913 5.13355 91.6202 5.00869 91.673 4.89306C91.726 4.77719 91.8031 4.6744 91.9011 4.58567L95.1895 1.62203H95.1784L91.7314 4.7324C91.5903 4.8595 91.4218 4.93899 91.2443 4.96759C91.0685 4.99536 90.8843 4.97271 90.7106 4.89588C90.5364 4.81862 90.3949 4.69705 90.2974 4.54752C90.1983 4.39528 90.1436 4.21773 90.1436 4.03031V1.62203Z" fill="white"/>
<path fill-rule="evenodd" clip-rule="evenodd" d="M47.9029 24.0427C48.0725 24.0427 48.21 24.1799 48.21 24.3493C48.21 24.5185 48.0725 24.6558 47.9029 24.6558C47.7332 24.6558 47.5957 24.5185 47.5957 24.3493C47.5957 24.1799 47.7332 24.0427 47.9029 24.0427Z" fill="white"/>
<path fill-rule="evenodd" clip-rule="evenodd" d="M5.53248 24.1778C5.70209 24.1778 5.83963 24.315 5.83963 24.4843C5.83963 24.6535 5.70209 24.7908 5.53248 24.7908C5.36282 24.7908 5.22534 24.6535 5.22534 24.4843C5.22534 24.315 5.36282 24.1778 5.53248 24.1778Z" fill="white"/>
</svg>
