<svg width="133" height="49" viewBox="0 0 133 49" fill="none" xmlns="http://www.w3.org/2000/svg">
<path d="M50.1176 24.4454C50.1176 23.4534 49.3055 22.6432 48.3116 22.6432C47.3174 22.6432 46.5056 23.4534 46.5056 24.4454C46.5056 25.0112 46.7699 25.5178 47.1811 25.8486C46.4435 37.5181 36.779 46.7117 24.8979 46.7284C12.5445 46.711 2.58555 36.7729 2.56811 24.4454C2.58555 12.1182 12.5447 2.18005 24.8979 2.16264C31.0131 2.16264 36.8165 4.63674 41.0404 9.04908C41.8588 9.8997 43.2736 9.00741 42.8245 7.88683C42.7698 7.76076 42.7027 7.65434 42.6068 7.55461C37.9833 2.74031 31.6667 0.0169182 24.9788 0.000385284L24.8979 -2.67029e-05C17.4419 0.0289726 10.634 3.26177 5.90228 9.00861C2.30336 13.4445 0.423174 18.7384 0.400879 24.4454C0.42994 31.8856 3.66956 38.6795 9.42856 43.4012C13.8738 46.9926 19.1789 48.8688 24.8979 48.8911C32.2426 48.8625 38.9819 45.7194 43.7071 40.108C47.1068 36.0177 49.0272 31.1645 49.3471 25.9201C49.8123 25.5934 50.1176 25.0537 50.1176 24.4454Z" fill="black"/>
<path d="M4.1228 24.4603C4.14041 25.462 4.93738 26.2482 5.94236 26.2482C6.94607 26.2306 7.73404 25.4354 7.73404 24.4325C7.72399 23.8653 7.46416 23.3675 7.05832 23.042C7.71439 13.8862 15.2587 6.69693 24.6161 6.59704C34.4471 6.5447 42.3893 14.3572 42.4945 24.1642C42.547 33.9747 34.7184 41.9004 24.8903 42.0054C21.7818 42.0226 19.2689 41.5139 16.5381 39.998C16.1044 39.7528 15.5485 39.8397 15.2114 40.2064C14.7372 40.7228 14.8656 41.5375 15.4762 41.8828C18.4742 43.5871 21.4836 44.184 24.9071 44.1676C35.9355 44.0628 44.7142 35.1469 44.6614 24.1474C44.5563 13.1425 35.6218 4.38204 24.5993 4.43479C14.16 4.53405 5.58501 12.5964 4.88967 22.9742C4.42342 23.3009 4.1228 23.8409 4.1228 24.4603Z" fill="black"/>
<path d="M24.8982 9.17289C29.1298 9.17289 32.962 10.8848 35.7358 13.6527C38.5091 16.4202 40.225 20.2443 40.225 24.4673C40.225 28.6902 38.5091 32.5143 35.7358 35.2821C32.9622 38.0495 29.13 39.7618 24.8982 39.7618C20.6663 39.7618 16.8341 38.0495 14.0605 35.2821C11.2872 32.5143 9.57129 28.6902 9.57129 24.4673C9.57129 20.2443 11.2872 16.4202 14.0605 13.6527C16.8343 10.8848 20.6665 9.17289 24.8982 9.17289ZM34.2037 15.1815C31.8225 12.8053 28.5323 11.3356 24.8982 11.3356C21.264 11.3356 17.9738 12.8053 15.5926 15.1815C13.2116 17.5575 11.7385 20.8407 11.7385 24.4673C11.7385 28.0936 13.2116 31.377 15.5926 33.7532C17.9738 36.1292 21.2642 37.5992 24.8982 37.5992C28.5323 37.5992 31.8225 36.1292 34.2037 33.7532C36.5847 31.377 38.0578 28.0936 38.0578 24.4673C38.0578 20.8407 36.5847 17.5575 34.2037 15.1815Z" fill="black"/>
<path d="M26.1326 35.3678C26.1326 35.9649 25.6473 36.4491 25.0489 36.4491C24.4506 36.4491 23.9653 35.9649 23.9653 35.3678V13.6637C23.9653 13.0666 24.4506 12.5824 25.0489 12.5824C25.6473 12.5824 26.1326 13.0666 26.1326 13.6637V35.3678Z" fill="black"/>
<path d="M25.7854 22.7196C25.3484 23.1255 24.6641 23.101 24.2574 22.6649C23.8507 22.2288 23.8753 21.546 24.3122 21.1401L30.537 15.3395C30.9739 14.9337 31.6582 14.9582 32.0649 15.3943C32.4715 15.8304 32.447 16.5132 32.01 16.9191L25.7854 22.7196Z" fill="black"/>
<path d="M25.802 27.8762C26.2297 28.2912 26.2392 28.974 25.8233 29.4009C25.4074 29.8277 24.7231 29.8371 24.2953 29.4221L14.8264 20.2537C14.3986 19.8387 14.3892 19.1558 14.8051 18.7289C15.221 18.3021 15.9053 18.2927 16.333 18.7077L25.802 27.8762Z" fill="black"/>
<path d="M25.7854 36.1607C25.3484 36.5665 24.6641 36.542 24.2574 36.106C23.8507 35.6699 23.8753 34.987 24.3122 34.5812L33.5607 25.963C33.9977 25.5573 34.682 25.5817 35.0887 26.0178C35.4953 26.4538 35.4707 27.1368 35.0338 27.5425L25.7854 36.1607Z" fill="black"/>
<path d="M58.2641 22.3173H58.4787C58.8774 22.3173 59.2415 22.1876 59.5738 21.931C59.9061 21.6714 60.0736 21.3024 60.0736 20.8208C60.0736 20.4113 59.9407 20.0596 59.6721 19.7657C59.4034 19.4714 58.993 19.3245 58.4384 19.3245C57.9152 19.3245 57.3883 19.4879 56.8609 19.8147C56.6412 19.9508 56.3588 19.9038 56.195 19.7043L56.1646 19.6675C56.0698 19.5519 56.0324 19.4164 56.0543 19.2687C56.0764 19.1209 56.1517 19.002 56.2762 18.9191C56.9782 18.4514 57.7151 18.2172 58.4873 18.2172C59.2617 18.2172 59.909 18.445 60.4319 18.8976C60.9549 19.3504 61.2179 19.9356 61.2179 20.6537C61.2179 21.3559 60.9863 21.8919 60.5223 22.2624C60.4176 22.3459 60.364 22.463 60.3689 22.5965C60.3738 22.7301 60.436 22.8429 60.5466 22.9185C61.2489 23.3987 61.5993 24.1006 61.5993 25.0219C61.5993 25.7542 61.3393 26.4147 60.822 27.0058C60.302 27.5939 59.5275 27.8881 58.4961 27.8881C57.4375 27.8881 56.5514 27.6004 55.8382 27.0266C55.725 26.9357 55.6615 26.8155 55.6494 26.6711C55.6374 26.5266 55.6804 26.3977 55.7771 26.2894L55.8296 26.2303C56.0117 26.026 56.3225 26.0009 56.5351 26.1733C57.0491 26.5904 57.6687 26.7982 58.395 26.7982C58.9988 26.7982 59.4726 26.6365 59.8166 26.3137C60.1604 25.9937 60.3337 25.5697 60.3337 25.0421C60.3337 24.5288 60.1604 24.1165 59.8136 23.8051C59.4669 23.4937 59.0594 23.338 58.5885 23.338H58.2641C58.0384 23.338 57.8546 23.1545 57.8546 22.9293V22.726C57.8546 22.5008 58.0384 22.3173 58.2641 22.3173ZM66.3208 27.6631H64.0518C63.8261 27.6631 63.6423 27.4796 63.6423 27.2544V18.8853C63.6423 18.6602 63.8261 18.4767 64.0518 18.4767H66.2802C67.2858 18.4767 68.0111 18.7074 68.4561 19.1657C68.8981 19.6271 69.1206 20.1663 69.1206 20.7834C69.1206 21.4506 68.9084 21.9624 68.4845 22.3211C68.3811 22.4085 68.3306 22.5293 68.3408 22.6641C68.3513 22.799 68.4197 22.9105 68.5353 22.9812C69.2953 23.4459 69.6755 24.1598 69.6755 25.1229C69.6755 26.8154 68.5573 27.6631 66.3208 27.6631ZM64.8211 19.906V21.9432C64.8211 22.1684 65.005 22.3519 65.2306 22.3519H65.5955C66.3005 22.3519 66.7629 22.3231 66.9767 22.2683C67.1933 22.2107 67.3956 22.0721 67.5862 21.8531C67.7771 21.631 67.8723 21.3398 67.8723 20.9736C67.8723 20.593 67.7742 20.2759 67.5748 20.0192C67.3753 19.7597 67.1673 19.6099 66.9478 19.5637C66.7281 19.5204 66.2774 19.4973 65.5955 19.4973H65.2306C65.005 19.4973 64.8211 19.6809 64.8211 19.906ZM64.8211 23.8505V26.2509C64.8211 26.4762 65.005 26.6596 65.2306 26.6596H66.0954C66.6963 26.6596 67.1269 26.6223 67.3842 26.5444C67.6414 26.4694 67.8637 26.3051 68.0457 26.0513C68.2306 25.7976 68.3232 25.4776 68.3232 25.0883C68.3232 24.5865 68.1643 24.1887 67.8463 23.8887C67.5285 23.5918 67.1095 23.4418 66.5895 23.4418H65.2306C65.005 23.4418 64.8211 23.6253 64.8211 23.8505ZM79.8611 24.7945L80.1554 24.949C80.2584 25.0031 80.3272 25.0877 80.3589 25.1995C80.3904 25.3114 80.3763 25.4193 80.3169 25.5193C80.039 25.9864 79.7296 26.3775 79.3869 26.6884C78.9571 27.0784 78.4738 27.3776 77.9365 27.5824C77.3961 27.7872 76.7892 27.8881 76.1102 27.8881C74.6019 27.8881 73.4259 27.3979 72.5764 26.4175C71.727 25.4371 71.3021 24.3298 71.3021 23.0959C71.3021 21.9338 71.6633 20.8958 72.3829 19.9875C73.2931 18.8312 74.5153 18.2517 76.0438 18.2517C77.6185 18.2517 78.8784 18.8457 79.8175 20.0309C80.4055 20.7675 80.7404 21.6651 80.8194 22.726C80.8282 22.8435 80.7916 22.9479 80.7111 23.0343C80.6308 23.1208 80.5291 23.1651 80.4109 23.1651H72.9536C72.8325 23.1651 72.7281 23.2117 72.6476 23.302C72.5672 23.3922 72.5328 23.5008 72.5467 23.621C72.6464 24.4804 72.98 25.1991 73.5445 25.7773C74.209 26.4578 75.0297 26.7982 76.0033 26.7982C76.4743 26.7982 76.9338 26.7175 77.3787 26.5558C77.8237 26.3944 78.2023 26.1811 78.5143 25.913C78.7689 25.6941 79.0406 25.368 79.3281 24.9316C79.4444 24.755 79.6737 24.6962 79.8611 24.7945ZM79.3684 21.5942C79.2279 21.2139 79.0537 20.8935 78.8436 20.6334C78.5383 20.2552 78.1357 19.953 77.6359 19.7223C77.1361 19.4916 76.6103 19.3764 76.0611 19.3764C75.1509 19.3764 74.3707 19.6647 73.7177 20.2442C73.351 20.5683 73.0551 21.0141 72.8264 21.5836C72.7742 21.7133 72.7887 21.8488 72.8673 21.9647C72.9458 22.0803 73.0664 22.1443 73.2064 22.1443H78.9843C79.1225 22.1443 79.2413 22.0824 79.3203 21.9693C79.3991 21.8562 79.4161 21.7235 79.3684 21.5942ZM74.3447 14.8437C74.6165 14.8437 74.8448 14.9386 75.0383 15.1291C75.2289 15.3222 75.3243 15.55 75.3243 15.821C75.3243 16.0893 75.2289 16.32 75.0383 16.513C74.8448 16.7033 74.6165 16.7985 74.3447 16.7985C74.076 16.7985 73.8449 16.7033 73.6514 16.513C73.4605 16.32 73.3653 16.0893 73.3653 15.821C73.3653 15.55 73.4605 15.3222 73.6514 15.1291C73.8449 14.9386 74.076 14.8437 74.3447 14.8437ZM77.7948 14.8437C78.0665 14.8437 78.2947 14.9386 78.4883 15.1291C78.679 15.3222 78.7744 15.55 78.7744 15.821C78.7744 16.0893 78.679 16.32 78.4883 16.513C78.2947 16.7033 78.0665 16.7985 77.7948 16.7985C77.5262 16.7985 77.295 16.7033 77.1013 16.513C76.9107 16.32 76.8152 16.0893 76.8152 15.821C76.8152 15.55 76.9107 15.3222 77.1013 15.1291C77.295 14.9386 77.5262 14.8437 77.7948 14.8437ZM84.9571 22.3173H85.1717C85.5703 22.3173 85.9344 22.1876 86.2668 21.931C86.5991 21.6714 86.7666 21.3024 86.7666 20.8208C86.7666 20.4113 86.6337 20.0596 86.365 19.7657C86.0964 19.4714 85.6861 19.3245 85.1313 19.3245C84.5855 19.3245 84.0352 19.5024 83.4846 19.8582C83.3089 19.9718 83.0779 19.9361 82.9453 19.7744L82.787 19.5815C82.7122 19.4904 82.6821 19.3839 82.6981 19.2672C82.7139 19.1506 82.7716 19.0562 82.8681 18.9883C83.6001 18.4744 84.3708 18.2172 85.1803 18.2172C85.9547 18.2172 86.6019 18.445 87.1249 18.8976C87.6479 19.3504 87.9108 19.9356 87.9108 20.6537C87.9108 21.3559 87.6792 21.8919 87.2152 22.2624C87.1106 22.3459 87.0569 22.463 87.0618 22.5965C87.0667 22.7301 87.129 22.8429 87.2396 22.9185C87.9419 23.3987 88.2923 24.1006 88.2923 25.0219C88.2923 25.7542 88.0322 26.4147 87.515 27.0058C86.9949 27.5939 86.2205 27.8881 85.1891 27.8881C84.0844 27.8881 83.1676 27.5744 82.4388 26.9498C82.3525 26.8756 82.3048 26.7806 82.2971 26.6672C82.2896 26.5538 82.324 26.4533 82.3997 26.3683L82.5888 26.1562C82.7372 25.9896 82.9932 25.9727 83.1623 26.1184C83.6888 26.572 84.3303 26.7982 85.0879 26.7982C85.6917 26.7982 86.1656 26.6365 86.5096 26.3137C86.8534 25.9937 87.0266 25.5697 87.0266 25.0421C87.0266 24.5288 86.8534 24.1165 86.5065 23.8051C86.1598 23.4937 85.7524 23.338 85.2814 23.338H84.9571C84.7314 23.338 84.5475 23.1545 84.5475 22.9293V22.726C84.5475 22.5008 84.7314 22.3173 84.9571 22.3173ZM90.5259 26.4134L93.8662 18.7229C93.9326 18.5701 94.0751 18.4767 94.242 18.4767H94.3218C94.4889 18.4767 94.6318 18.5705 94.6979 18.7235L98.0184 26.4128C98.0846 26.566 98.2275 26.6596 98.3946 26.6596H98.8195C99.0451 26.6596 99.229 26.8431 99.229 27.0683V28.4308C99.229 28.656 99.0451 28.8395 98.8195 28.8395H98.4943C98.2687 28.8395 98.0848 28.656 98.0848 28.4308V28.0718C98.0848 27.8466 97.9009 27.6631 97.6752 27.6631H90.8834C90.6577 27.6631 90.4738 27.8466 90.4738 28.0718V28.4827C90.4738 28.7079 90.2899 28.8914 90.0643 28.8914H89.7045C89.4789 28.8914 89.295 28.7079 89.295 28.4827V27.0683C89.295 26.8431 89.4789 26.6596 89.7045 26.6596H90.1501C90.317 26.6596 90.4595 26.5663 90.5259 26.4134ZM93.877 21.2303L91.8106 26.0914C91.7553 26.2215 91.768 26.3589 91.846 26.4766C91.9242 26.5945 92.046 26.6596 92.1875 26.6596H96.2363C96.3768 26.6596 96.4976 26.5955 96.5761 26.479C96.6547 26.3627 96.6686 26.2269 96.6156 26.0969L94.6334 21.2358C94.5698 21.0795 94.426 20.9824 94.2571 20.9812C94.0882 20.98 93.943 21.075 93.877 21.2303ZM106.968 23.2342H102.412C102.187 23.2342 102.003 23.4177 102.003 23.6429V27.2544C102.003 27.4796 101.819 27.6631 101.593 27.6631H101.234C101.008 27.6631 100.824 27.4796 100.824 27.2544V18.8853C100.824 18.6602 101.008 18.4767 101.234 18.4767H101.593C101.819 18.4767 102.003 18.6602 102.003 18.8853V21.7185C102.003 21.9436 102.187 22.1271 102.412 22.1271H106.968C107.194 22.1271 107.377 21.9436 107.377 21.7185V18.8853C107.377 18.6602 107.561 18.4767 107.787 18.4767H108.147C108.372 18.4767 108.556 18.6602 108.556 18.8853V27.2544C108.556 27.4796 108.372 27.6631 108.147 27.6631H107.787C107.561 27.6631 107.377 27.4796 107.377 27.2544V23.6429C107.377 23.4177 107.194 23.2342 106.968 23.2342ZM112.774 22.1098H113.494C114.393 22.1098 115.095 22.179 115.604 22.3202C116.112 22.4614 116.551 22.7728 116.918 23.2544C117.285 23.736 117.47 24.2896 117.47 24.9152C117.47 25.6707 117.204 26.3166 116.673 26.8558C116.144 27.3951 115.338 27.6631 114.26 27.6631H111.604C111.378 27.6631 111.194 27.4796 111.194 27.2544V18.8853C111.194 18.6602 111.378 18.4767 111.604 18.4767H111.955C112.181 18.4767 112.365 18.6602 112.365 18.8853V21.7011C112.365 21.9262 112.549 22.1098 112.774 22.1098ZM112.408 23.6083V26.2509C112.408 26.4762 112.592 26.6596 112.817 26.6596H113.775C115.384 26.6596 116.187 26.0975 116.187 24.9757C116.187 24.6558 116.101 24.3415 115.927 24.033C115.757 23.7244 115.502 23.5082 115.173 23.3842C114.841 23.2602 114.257 23.1997 113.419 23.1997H112.817C112.592 23.1997 112.408 23.3832 112.408 23.6083ZM119.527 18.4767H119.887C120.112 18.4767 120.296 18.6602 120.296 18.8853V27.2544C120.296 27.4796 120.112 27.6631 119.887 27.6631H119.527C119.301 27.6631 119.117 27.4796 119.117 27.2544V18.8853C119.117 18.6602 119.301 18.4767 119.527 18.4767ZM130.933 24.7945L131.227 24.949C131.33 25.0031 131.399 25.0877 131.43 25.1995C131.462 25.3114 131.448 25.4193 131.388 25.5193C131.111 25.9864 130.801 26.3775 130.458 26.6884C130.029 27.0784 129.545 27.3776 129.008 27.5824C128.468 27.7872 127.861 27.8881 127.182 27.8881C125.673 27.8881 124.497 27.3979 123.648 26.4175C122.798 25.4371 122.374 24.3298 122.374 23.0959C122.374 21.9338 122.735 20.8958 123.454 19.9875C124.364 18.8312 125.587 18.2517 127.115 18.2517C128.69 18.2517 129.95 18.8457 130.889 20.0309C131.477 20.7675 131.812 21.6651 131.891 22.726C131.9 22.8435 131.863 22.9479 131.783 23.0343C131.702 23.1208 131.6 23.1651 131.482 23.1651H124.025C123.904 23.1651 123.8 23.2117 123.719 23.302C123.639 23.3922 123.604 23.5008 123.618 23.621C123.718 24.4804 124.051 25.1991 124.616 25.7773C125.28 26.4578 126.101 26.7982 127.075 26.7982C127.546 26.7982 128.005 26.7175 128.45 26.5558C128.895 26.3944 129.274 26.1811 129.586 25.913C129.84 25.6941 130.112 25.368 130.4 24.9316C130.516 24.755 130.745 24.6962 130.933 24.7945ZM130.44 21.5942C130.299 21.2139 130.125 20.8935 129.915 20.6334C129.61 20.2552 129.207 19.953 128.707 19.7223C128.208 19.4916 127.682 19.3764 127.132 19.3764C126.222 19.3764 125.442 19.6647 124.789 20.2442C124.422 20.5683 124.127 21.0141 123.898 21.5836C123.846 21.7133 123.86 21.8488 123.939 21.9647C124.017 22.0803 124.138 22.1443 124.278 22.1443H130.056C130.194 22.1443 130.313 22.0824 130.392 21.9693C130.471 21.8562 130.488 21.7235 130.44 21.5942ZM56.3285 35.2672H56.6614C56.8262 35.2672 56.9677 35.3595 57.0349 35.5081L59.7228 41.4708C59.7903 41.6201 59.9328 41.7127 60.0984 41.7118C60.264 41.711 60.4051 41.6183 60.4715 41.4669L63.0804 35.5122C63.1469 35.3602 63.2892 35.2672 63.4555 35.2672H63.8245C63.9668 35.2672 64.0893 35.3332 64.1671 35.4521C64.2449 35.5711 64.2559 35.7108 64.1997 35.8395L59.0619 47.5648C58.9959 47.7154 58.8516 47.8098 58.6868 47.8098H58.318C58.1771 47.8098 58.053 47.7436 57.9752 47.6247C57.8974 47.5057 57.8857 47.3674 57.9428 47.2373L59.422 43.8643C59.4702 43.7548 59.4693 43.642 59.4204 43.5329L55.955 35.8434C55.8967 35.7134 55.9073 35.5739 55.9847 35.454C56.0621 35.334 56.1853 35.2672 56.3285 35.2672ZM68.6576 44.4536H66.3886C66.1643 44.4536 65.979 44.2701 65.979 44.045V35.6758C65.979 35.4507 66.1629 35.2672 66.3886 35.2672H68.6171C69.6226 35.2672 70.3501 35.4973 70.7929 35.9562C71.2356 36.4153 71.4573 36.9568 71.4573 37.5739C71.4573 38.5053 71.0443 39.1338 70.2179 39.4654C71.4141 39.8892 72.0122 40.7051 72.0122 41.9133C72.0122 43.6059 70.891 44.4536 68.6576 44.4536ZM67.1579 36.6965V38.7337C67.1579 38.9575 67.3418 39.1424 67.5674 39.1424H67.9323C68.6373 39.1424 69.1009 39.1138 69.3134 39.0588C69.5297 39.003 69.734 38.8625 69.923 38.6436C70.1139 38.4229 70.2091 38.1303 70.2091 37.7641C70.2091 37.3835 70.1095 37.0659 69.9116 36.8097C69.7123 36.5514 69.5037 36.3982 69.2846 36.3542C69.0661 36.3103 68.6125 36.2878 67.9323 36.2878H67.5674C67.3432 36.2878 67.1579 36.4742 67.1579 36.6965ZM67.1579 40.641V43.0415C67.1579 43.2652 67.3418 43.4502 67.5674 43.4502H68.4321C69.0331 43.4502 69.4642 43.4105 69.7209 43.3349C69.9769 43.2593 70.2004 43.0942 70.3825 42.8418C70.5658 42.5882 70.6599 42.2681 70.6599 41.8788C70.6599 41.377 70.5011 40.9775 70.1831 40.6792C69.8669 40.3823 69.4447 40.2323 68.9262 40.2323H67.5674C67.3432 40.2323 67.1579 40.4186 67.1579 40.641ZM83.261 35.6758V44.045C83.261 44.2687 83.0757 44.4536 82.8515 44.4536H82.4915C82.2673 44.4536 82.082 44.2701 82.082 44.045V43.8796C82.082 43.716 81.9919 43.5758 81.843 43.508C81.6942 43.4401 81.5281 43.4641 81.4048 43.5703C81.0944 43.8378 80.762 44.0589 80.4119 44.2287C79.797 44.527 79.1203 44.6786 78.3892 44.6786C77.089 44.6786 75.975 44.2084 75.0549 43.2685C74.1332 42.3271 73.6737 41.1839 73.6737 39.8344C73.6737 38.5167 74.1403 37.3863 75.0692 36.4493C75.9965 35.5136 77.115 35.0422 78.4238 35.0422C79.178 35.0422 79.8611 35.201 80.4725 35.5179C80.7999 35.6877 81.1085 35.9068 81.3938 36.1706C81.515 36.2829 81.6835 36.3122 81.8361 36.2457C81.9886 36.1793 82.082 36.0373 82.082 35.8712V35.6758C82.082 35.4507 82.2658 35.2672 82.4915 35.2672H82.8515C83.0771 35.2672 83.261 35.4536 83.261 35.6758ZM78.5164 36.184C77.8577 36.184 77.2483 36.3481 76.6932 36.6685C76.1374 36.9895 75.6925 37.4421 75.364 38.0237C75.0354 38.6054 74.87 39.2231 74.87 39.8747C74.87 40.5178 75.0354 41.1357 75.3669 41.7231C75.6984 42.3104 76.1456 42.7695 76.7047 43.0956C77.2651 43.4223 77.8662 43.5887 78.5078 43.5887C79.152 43.5887 79.7679 43.4256 80.3454 43.1013C80.925 42.7757 81.3714 42.3359 81.6833 41.7808C81.9939 41.2276 82.1514 40.6013 82.1514 39.9066C82.1514 38.8483 81.8002 37.963 81.0995 37.2509C80.4005 36.5402 79.5392 36.184 78.5164 36.184ZM93.1002 44.4536H92.7631C92.6014 44.4536 92.4599 44.3645 92.3915 44.2168L89.767 38.5625C89.6984 38.4143 89.5579 38.3253 89.3943 38.3257C89.2307 38.3261 89.0901 38.4176 89.0229 38.5647L86.4418 44.2146C86.3747 44.3621 86.2319 44.4536 86.0692 44.4536H85.7012C85.5591 44.4536 85.4342 44.3864 85.3568 44.2659C85.2794 44.1453 85.2677 44.0049 85.3287 43.8751L89.0067 36.051C89.0755 35.9045 89.2143 35.8162 89.3765 35.8158C89.5387 35.8154 89.6784 35.9043 89.7473 36.0492L93.4718 43.8733C93.533 44.0016 93.5226 44.1441 93.4452 44.265C93.3678 44.386 93.2413 44.4536 93.1002 44.4536ZM97.1212 38.9002H97.8413C98.74 38.9002 99.443 38.9703 99.9506 39.1107C100.458 39.2511 100.898 39.5633 101.265 40.0449C101.632 40.5265 101.817 41.08 101.817 41.7057C101.817 42.4612 101.55 43.1071 101.02 43.6463C100.491 44.1839 99.6832 44.4536 98.6071 44.4536H95.9509C95.7267 44.4536 95.5414 44.2701 95.5414 44.045V35.6758C95.5414 35.4507 95.7253 35.2672 95.9509 35.2672H96.3021C96.5277 35.2672 96.7116 35.4521 96.7116 35.6758V38.4916C96.7116 38.7153 96.8955 38.9002 97.1212 38.9002ZM96.7548 40.3988V43.0415C96.7548 43.2652 96.9387 43.4502 97.1643 43.4502H98.1217C99.7311 43.4502 100.534 42.888 100.534 41.7662C100.534 41.4462 100.446 41.1318 100.274 40.8234C100.104 40.5163 99.8488 40.2973 99.5201 40.1747C99.1888 40.0508 98.6026 39.9901 97.7661 39.9901H97.1643C96.9401 39.9901 96.7548 40.1765 96.7548 40.3988ZM103.874 35.2672H104.234C104.459 35.2672 104.643 35.4521 104.643 35.6758V44.045C104.643 44.2687 104.458 44.4536 104.234 44.4536H103.874C103.65 44.4536 103.464 44.2701 103.464 44.045V35.6758C103.464 35.4507 103.648 35.2672 103.874 35.2672Z" fill="black"/>
<path d="M58.2643 21.7767H58.4788C58.6175 21.7767 58.7486 21.7546 58.8712 21.7112C58.9998 21.6659 59.1243 21.5966 59.2439 21.5043L59.25 21.4998C59.3415 21.4262 59.4105 21.3393 59.4554 21.2395C59.5062 21.1266 59.5319 20.9869 59.5319 20.8208C59.5319 20.6796 59.5107 20.5522 59.4679 20.4399C59.4261 20.3296 59.3608 20.2256 59.2723 20.1289C59.1978 20.0472 59.1003 19.9844 58.9811 19.9417C58.8345 19.8915 58.6535 19.8651 58.4385 19.8651C58.2299 19.8651 58.0206 19.8976 57.8119 19.9624C57.5906 20.031 57.3684 20.1346 57.146 20.2722C56.9218 20.4123 56.6638 20.4579 56.4203 20.4176C56.1759 20.3772 55.9459 20.2505 55.7782 20.0463L55.7461 20.0073C55.6515 19.8925 55.5841 19.7629 55.5452 19.6217C55.5065 19.4811 55.4973 19.3367 55.519 19.1906C55.5415 19.0398 55.5923 18.9021 55.6699 18.7801L55.6992 18.7386C55.7727 18.6348 55.8654 18.5449 55.9758 18.4713C56.3684 18.2098 56.7746 18.0122 57.1925 17.8794C57.6185 17.7441 58.0501 17.6765 58.4874 17.6765C58.9328 17.6765 59.3479 17.7441 59.7318 17.8786C60.1211 18.0151 60.4726 18.2192 60.7855 18.4899C61.1075 18.7686 61.3509 19.0913 61.5145 19.4573C61.6779 19.822 61.7598 20.2209 61.7598 20.6537C61.7598 21.0782 61.6869 21.4591 61.5415 21.7956C61.4133 22.0923 61.2289 22.351 60.9884 22.5715C61.3503 22.8468 61.6279 23.1777 61.8208 23.5636C62.0346 23.9904 62.1413 24.4767 62.1413 25.0218C62.1413 25.454 62.0633 25.868 61.9085 26.2632C61.7565 26.6504 61.5294 27.0168 61.2287 27.3605L61.2163 27.374C60.8998 27.7283 60.5083 27.9947 60.0435 28.1713C59.593 28.3431 59.0768 28.4287 58.4963 28.4287C57.9121 28.4287 57.3701 28.3476 56.8711 28.186C56.3655 28.0223 55.908 27.7757 55.4998 27.4469C55.3855 27.3552 55.2942 27.2456 55.2278 27.1204C55.1616 26.9955 55.122 26.8597 55.1099 26.7154C55.098 26.574 55.115 26.4342 55.1604 26.2975C55.2057 26.1608 55.2767 26.038 55.373 25.9303L55.4256 25.8713C55.6128 25.6614 55.8667 25.5429 56.1288 25.5219C56.388 25.5011 56.6568 25.5773 56.876 25.755C57.0825 25.9228 57.3098 26.0482 57.557 26.131C57.8079 26.2154 58.0875 26.2575 58.3951 26.2575C58.639 26.2575 58.8509 26.2268 59.0297 26.166C59.1923 26.1105 59.3317 26.0284 59.4464 25.9209L59.4487 25.9187C59.5613 25.8138 59.6462 25.6915 59.7027 25.5523C59.7621 25.4064 59.792 25.2362 59.792 25.0421C59.792 24.8563 59.7626 24.6937 59.7044 24.555C59.6497 24.4244 59.5652 24.3081 59.4519 24.2064C59.3286 24.0958 59.1964 24.0131 59.0551 23.9593C58.914 23.9056 58.7586 23.8786 58.5886 23.8786H58.2643C58.0017 23.8786 57.7636 23.7717 57.5918 23.6004L57.5497 23.5531C57.4024 23.3854 57.3129 23.1667 57.3129 22.9293V22.726C57.3129 22.4667 57.4196 22.2296 57.5918 22.0572L57.5941 22.055C57.7677 21.8827 58.0048 21.7767 58.2643 21.7767ZM59.2311 22.7293C59.1253 22.7669 59.0176 22.7961 58.9081 22.8173C59.0926 22.8408 59.2701 22.8851 59.4404 22.9499C59.707 23.0515 59.9522 23.2033 60.1755 23.4038C60.4086 23.613 60.5849 23.859 60.7032 24.141C60.8179 24.4144 60.8756 24.7148 60.8756 25.0421C60.8756 25.3752 60.8189 25.6806 60.7061 25.9577C60.5904 26.2428 60.4161 26.4933 60.185 26.7086C59.9564 26.9224 59.6865 27.0826 59.377 27.188C59.0823 27.2883 58.7545 27.3388 58.3951 27.3388C57.9764 27.3388 57.5826 27.2769 57.2143 27.1531C56.8508 27.0311 56.5178 26.8496 56.2164 26.6091L56.2015 26.6257C56.5002 26.8613 56.8352 27.0395 57.2056 27.1594C57.592 27.2844 58.0224 27.3474 58.4963 27.3474C58.9465 27.3474 59.334 27.2857 59.6583 27.1627H59.6605C59.9605 27.0489 60.2105 26.8803 60.4102 26.6575L60.4157 26.651C60.6317 26.4042 60.7939 26.1436 60.901 25.8704C61.005 25.6048 61.0576 25.3216 61.0576 25.0218C61.0576 24.6455 60.9889 24.3196 60.8515 24.045C60.7178 23.7775 60.5142 23.5501 60.2421 23.3641C60.1153 23.2775 60.0148 23.1673 59.9444 23.039C59.8741 22.9121 59.8348 22.7689 59.8293 22.6154C59.8266 22.5425 59.8322 22.4709 59.8453 22.4017C59.6501 22.5441 59.4453 22.6536 59.2311 22.7293ZM66.3209 28.2037H64.0519C63.7921 28.2037 63.5545 28.0973 63.3818 27.9255L63.3795 27.9232C63.2069 27.7499 63.1006 27.5133 63.1006 27.2544V18.8853C63.1006 18.626 63.2073 18.389 63.3795 18.2166L63.3818 18.2143C63.5554 18.042 63.7925 17.936 64.0519 17.936H66.2804C66.8341 17.936 67.3214 18.003 67.741 18.1358C68.1898 18.2758 68.5576 18.495 68.8435 18.7897L68.8744 18.8242C69.1295 19.097 69.323 19.3929 69.4536 19.7112C69.5927 20.0492 69.6625 20.407 69.6625 20.7834C69.6625 21.1851 69.5952 21.5486 69.461 21.8729C69.3441 22.1561 69.1776 22.4037 68.9628 22.6152C69.3564 22.8843 69.6586 23.2166 69.8689 23.6118C70.1011 24.0482 70.2174 24.5523 70.2174 25.1228C70.2174 27.1753 68.9184 28.2037 66.3209 28.2037ZM64.1842 27.1224H64.8557C64.7455 27.0746 64.6458 27.0065 64.5614 26.9228L64.5595 26.9207C64.3861 26.7472 64.2794 26.5103 64.2794 26.2509V23.8504C64.2794 23.5915 64.3857 23.3549 64.5575 23.1825L64.5596 23.1806C64.7335 23.0076 64.971 22.9011 65.2308 22.9011H66.5897C66.9119 22.9011 67.2077 22.9491 67.4761 23.0449C67.7544 23.1438 68.0015 23.2947 68.2169 23.4959C68.4334 23.7 68.5966 23.9395 68.7059 24.2142C68.812 24.4808 68.8652 24.7726 68.8652 25.0883C68.8652 25.3328 68.8349 25.5594 68.7747 25.7685C68.7155 25.9735 68.6256 26.1627 68.5052 26.3353L68.4862 26.364C68.361 26.5382 68.2212 26.6829 68.0681 26.7971L67.9591 26.8717C68.7421 26.5668 69.1339 25.9837 69.1339 25.1228C69.1339 24.7309 69.0599 24.3958 68.9123 24.1185C68.7679 23.8474 68.5482 23.6214 68.254 23.4415C68.1211 23.3603 68.014 23.2542 67.9374 23.1297C67.8598 23.0006 67.8131 22.8578 67.8012 22.7064V22.7041C67.7927 22.5909 67.8037 22.4799 67.8336 22.3745C67.7564 22.4472 67.6771 22.5114 67.5961 22.5668C67.4445 22.6702 67.2838 22.745 67.1145 22.7899H67.1101C66.966 22.8269 66.7616 22.8535 66.4987 22.8694C66.2469 22.8846 65.945 22.8925 65.5957 22.8925H65.2308C64.9683 22.8925 64.7302 22.7856 64.5584 22.6142C64.3866 22.4403 64.2795 22.2029 64.2795 21.9432V19.906C64.2795 19.6471 64.3857 19.4105 64.5575 19.238L64.5596 19.2362C64.6558 19.1401 64.7707 19.0653 64.8981 19.0173H64.1843L64.1842 27.1224ZM67.4156 19.1636L67.3955 19.1563C67.4607 19.19 67.5244 19.2292 67.5864 19.2742C67.7324 19.3798 67.8718 19.5192 68.0045 19.6918C68.1433 19.8716 68.2467 20.0707 68.315 20.2893V20.2915C68.3811 20.5049 68.4143 20.7321 68.4143 20.9736C68.4143 21.2118 68.3813 21.4319 68.3154 21.6342C68.2976 21.6888 68.2775 21.7419 68.2548 21.7934C68.3422 21.6959 68.4116 21.5856 68.4622 21.463C68.5398 21.2754 68.5789 21.0486 68.5789 20.7834C68.5789 20.5429 68.5373 20.3218 68.4548 20.1211C68.3729 19.9219 68.2512 19.7353 68.0903 19.5623L68.069 19.5417C67.9105 19.3784 67.6925 19.2523 67.4156 19.1636ZM65.3631 20.038V21.8112H65.5957C65.9476 21.8112 66.228 21.8046 66.4352 21.7922C66.6328 21.7803 66.7682 21.7652 66.8394 21.7476C66.8861 21.7341 66.9359 21.7102 66.9867 21.6755C67.0499 21.6324 67.1132 21.5748 67.1761 21.5026C67.2238 21.4465 67.2611 21.379 67.2866 21.3003C67.3159 21.2105 67.3307 21.1015 67.3307 20.9736C67.3307 20.8353 67.3146 20.7143 67.2827 20.6103C67.2516 20.5123 67.2066 20.4246 67.1474 20.3485L67.1457 20.3463C67.0789 20.2601 67.0141 20.1939 66.9516 20.1487C66.9115 20.1197 66.8754 20.1011 66.8445 20.0932C66.7552 20.0762 66.6113 20.0623 66.4147 20.0527C66.2179 20.0431 65.9448 20.038 65.5956 20.038H65.3631ZM65.3631 23.9824V26.119H66.0955C66.3803 26.119 66.623 26.1102 66.8224 26.0926L66.8677 26.0905C67.0221 26.0754 67.1427 26.0548 67.2276 26.029L67.234 26.0272C67.2971 26.0088 67.3597 25.9763 67.4205 25.9311C67.4875 25.8813 67.5498 25.8167 67.6056 25.7386L67.6245 25.7138C67.6702 25.6459 67.7066 25.5652 67.7332 25.4726C67.7654 25.3612 67.7815 25.2329 67.7815 25.0882C67.7815 24.9025 67.7549 24.7433 67.7025 24.6113C67.6532 24.4871 67.5774 24.3768 67.4761 24.2814C67.3739 24.1859 67.2522 24.1127 67.1119 24.0629C66.9619 24.0094 66.7874 23.9824 66.5896 23.9824L65.3631 23.9824ZM80.1131 24.3171L80.4074 24.4716C80.5234 24.5327 80.6222 24.6132 80.7033 24.7125C80.7845 24.8126 80.8441 24.9275 80.8797 25.0537C80.9147 25.1786 80.924 25.3053 80.9076 25.4315L80.9074 25.4336C80.891 25.5613 80.8488 25.6825 80.7827 25.7938C80.6318 26.0477 80.4704 26.283 80.2996 26.4982C80.1266 26.716 79.9436 26.9127 79.7511 27.0875C79.5135 27.3028 79.2574 27.4956 78.9836 27.6645C78.7095 27.8335 78.4244 27.9747 78.1294 28.0871L78.0998 28.0973C77.8046 28.207 77.4925 28.2896 77.1643 28.3443C76.827 28.4007 76.4755 28.4287 76.1104 28.4287C74.4382 28.4287 73.1261 27.8758 72.168 26.7701C71.7007 26.2307 71.3494 25.6549 71.1151 25.0439C70.8788 24.4281 70.7604 23.7781 70.7604 23.0958C70.7604 22.4591 70.8614 21.8504 71.0627 21.2715C71.2627 20.6957 71.5621 20.1563 71.9589 19.6548C72.4643 19.01 73.0628 18.5243 73.7508 18.1979C74.4352 17.8737 75.2 17.711 76.044 17.711C76.9106 17.711 77.6964 17.8774 78.4001 18.209C79.1032 18.5402 79.7171 19.0365 80.2398 19.6959C80.5691 20.1062 80.8277 20.5644 81.0153 21.0688C81.2011 21.5682 81.3161 22.1077 81.3591 22.6859C81.3693 22.8177 81.3517 22.9461 81.309 23.0693L81.3081 23.0713C81.2664 23.192 81.1986 23.3032 81.1071 23.4017L81.0684 23.4393C80.9857 23.5196 80.8927 23.5824 80.7911 23.6265C80.6703 23.679 80.5428 23.7058 80.4111 23.7058H73.1041C73.153 24.021 73.2392 24.3118 73.3621 24.5776C73.5028 24.8819 73.6932 25.1567 73.9319 25.4013C74.2116 25.6878 74.5231 25.9026 74.8654 26.0444C75.2072 26.1862 75.5872 26.2575 76.0035 26.2575C76.2087 26.2575 76.4106 26.2399 76.6084 26.2051C76.8099 26.1698 77.0061 26.1173 77.1948 26.0489C77.3888 25.9785 77.5675 25.8972 77.7299 25.8055C77.8843 25.7183 78.0284 25.6173 78.1611 25.5033L78.1886 25.4812C78.2834 25.3964 78.3853 25.2885 78.4941 25.1574C78.6225 25.0023 78.7509 24.828 78.8774 24.6359C79.0117 24.4319 79.2132 24.2953 79.4348 24.2383C79.6555 24.1814 79.8975 24.2039 80.1131 24.3171ZM79.7801 25.3615L79.713 25.3261C79.5778 25.5259 79.4492 25.6994 79.3278 25.8459C79.1857 26.0174 79.043 26.1661 78.9009 26.2918L78.8679 26.3227C78.6889 26.4763 78.4871 26.6167 78.263 26.7434C78.0475 26.8654 77.8138 26.9718 77.563 27.0627C77.3074 27.1553 77.0508 27.2248 76.7947 27.2697C76.5336 27.3157 76.2695 27.3388 76.0034 27.3388C75.4461 27.3388 74.9283 27.2393 74.4505 27.0411C73.9732 26.8431 73.5418 26.5468 73.1575 26.1533C72.8315 25.8196 72.572 25.4446 72.38 25.0296C72.1897 24.6179 72.0656 24.1686 72.0093 23.6823C71.9935 23.5454 72.0059 23.4128 72.0456 23.2875C72.0863 23.1606 72.1531 23.0444 72.2436 22.943C72.3372 22.84 72.4447 22.7609 72.5632 22.7076C72.666 22.6628 72.7711 22.6359 72.8792 22.6273C72.839 22.6126 72.7999 22.5952 72.762 22.5752L72.76 22.5732C72.6259 22.502 72.5104 22.3983 72.4209 22.2666C72.3306 22.1338 72.2766 21.9871 72.2604 21.8363C72.244 21.6845 72.2653 21.5306 72.3249 21.3829C72.4533 21.0635 72.6015 20.7768 72.7696 20.5241C72.9347 20.276 73.121 20.0574 73.3284 19.8692L73.3581 19.8408C73.7353 19.5061 74.1516 19.2544 74.6068 19.086C75.0578 18.9193 75.543 18.8357 76.0612 18.8357C76.3544 18.8357 76.6479 18.8665 76.9405 18.9276L76.9819 18.935C77.2818 19.0008 77.5761 19.1001 77.8625 19.2323C78.1488 19.364 78.4076 19.5173 78.6388 19.6916C78.8743 19.869 79.0833 20.07 79.265 20.2954C79.3885 20.4481 79.5023 20.6205 79.6063 20.811C79.7091 20.9994 79.7994 21.1988 79.8766 21.4082C79.9303 21.5533 79.9468 21.7047 79.9274 21.8555C79.9102 21.989 79.8649 22.1171 79.7929 22.2333L79.765 22.2777C79.6848 22.3925 79.5822 22.4863 79.463 22.5553L79.4222 22.5786C79.3886 22.596 79.3543 22.6111 79.319 22.6244H80.2677C80.2255 22.1974 80.1375 21.804 80.0037 21.4448C79.8575 21.0515 79.6538 20.6914 79.3943 20.3665C78.9785 19.8398 78.4926 19.446 77.9385 19.1849C77.384 18.9235 76.7519 18.7924 76.044 18.7924C75.3595 18.7924 74.7484 18.9198 74.2124 19.1738C73.68 19.4262 73.2115 19.8091 72.8086 20.3211H72.8063C72.4843 20.7276 72.2428 21.1618 72.0828 21.6222C71.924 22.0795 71.844 22.5711 71.844 23.0958C71.844 23.6469 71.9385 24.1686 72.1266 24.6594C72.3166 25.1551 72.6031 25.624 72.985 26.0648C73.7259 26.9197 74.7661 27.3474 76.1104 27.3474C76.4238 27.3474 76.7161 27.3249 76.9865 27.2798C77.2462 27.2364 77.4907 27.1723 77.7194 27.0877L77.744 27.0777C77.9842 26.9861 78.2088 26.8758 78.4164 26.7479C78.6271 26.6179 78.8296 26.4647 79.0229 26.2894C79.1731 26.1533 79.3165 25.9986 79.4532 25.8268C79.566 25.6847 79.6753 25.5292 79.7801 25.3615ZM78.7909 21.6036C78.7486 21.5031 78.7043 21.4107 78.6582 21.3263C78.5876 21.1971 78.5088 21.0782 78.4226 20.9713C78.2993 20.8185 78.1535 20.6792 77.9868 20.5535C77.8156 20.4246 77.6231 20.3105 77.4096 20.2123C77.1968 20.1142 76.9775 20.0402 76.7533 19.991L76.7146 19.9811C76.5076 19.9384 76.2895 19.917 76.0612 19.917C75.6697 19.917 75.3089 19.9781 74.9795 20.0999C74.6541 20.2202 74.3533 20.4029 74.0777 20.6475L74.0508 20.6698C73.9143 20.7946 73.7877 20.9446 73.6714 21.1195C73.5748 21.2648 73.4861 21.4262 73.4054 21.6036H78.7909ZM74.3449 14.303C74.5497 14.303 74.7429 14.341 74.9264 14.4165C75.108 14.4915 75.2712 14.6011 75.4172 14.7447L75.4236 14.7511C75.5675 14.8967 75.6773 15.0596 75.7525 15.2408C75.8282 15.4239 75.8663 15.6168 75.8663 15.821C75.8663 16.023 75.8284 16.2165 75.7525 16.4C75.6777 16.5811 75.5679 16.7449 75.4236 16.891L75.4172 16.8974C75.2716 17.0406 75.108 17.1505 74.9264 17.2255C74.7429 17.3009 74.5494 17.3391 74.3449 17.3391C74.1423 17.3391 73.9486 17.3013 73.7648 17.2255C73.5833 17.151 73.4192 17.0412 73.2727 16.8974L73.2663 16.891C73.1222 16.7449 73.0123 16.5811 72.9375 16.4C72.8616 16.2165 72.8237 16.023 72.8237 15.821C72.8237 15.6168 72.8617 15.4239 72.9375 15.2408C73.0127 15.0596 73.1225 14.8967 73.2663 14.7511L73.2727 14.7447C73.4187 14.6009 73.5833 14.4911 73.7645 14.4165C73.9485 14.3407 74.1423 14.303 74.3449 14.303ZM74.5156 15.4133C74.4687 15.3941 74.4118 15.3843 74.3449 15.3843C74.279 15.3843 74.2222 15.3941 74.1753 15.4133C74.1268 15.4333 74.0795 15.4658 74.0336 15.5104C73.9886 15.5565 73.956 15.6033 73.9363 15.6507C73.9171 15.6975 73.9073 15.7543 73.9073 15.821C73.9073 15.8867 73.9171 15.9433 73.9363 15.9901C73.9564 16.0386 73.9892 16.0859 74.0336 16.1317C74.0795 16.1761 74.127 16.2087 74.1756 16.2288C74.2224 16.248 74.279 16.2578 74.3449 16.2578C74.4118 16.2578 74.469 16.248 74.5156 16.2288C74.563 16.2091 74.61 16.1767 74.6561 16.1321C74.7007 16.0862 74.7335 16.0387 74.7536 15.9901C74.7728 15.9433 74.7826 15.8867 74.7826 15.821C74.7826 15.7543 74.7728 15.6975 74.7536 15.6507C74.7339 15.6033 74.7014 15.5565 74.6563 15.5104C74.61 15.4654 74.5631 15.4329 74.5156 15.4133ZM77.7949 14.303C78.0009 14.303 78.195 14.3407 78.3783 14.4165L78.4113 14.4314C78.579 14.5058 78.7305 14.6104 78.8673 14.7447L78.8736 14.7511C79.0176 14.8967 79.1274 15.0596 79.2025 15.2408C79.2783 15.4239 79.3164 15.6168 79.3164 15.821C79.3164 16.023 79.2785 16.2165 79.2025 16.4C79.1277 16.5811 79.018 16.7449 78.8736 16.891L78.8673 16.8974C78.7213 17.0406 78.5579 17.1505 78.3762 17.2255C78.1932 17.3009 77.9997 17.3391 77.7949 17.3391C77.5927 17.3391 77.3989 17.3009 77.2147 17.2255C77.0336 17.151 76.869 17.041 76.7226 16.8974L76.7162 16.891C76.5723 16.7449 76.4621 16.5811 76.3874 16.4C76.3119 16.2167 76.2736 16.023 76.2736 15.821C76.2736 15.617 76.3119 15.4239 76.3874 15.2408C76.4625 15.0596 76.5727 14.8963 76.7162 14.7511L76.7226 14.7447C76.869 14.6006 77.0336 14.4911 77.2147 14.4165C77.3987 14.341 77.5925 14.303 77.7949 14.303ZM77.9635 15.4133C77.9168 15.3941 77.8605 15.3843 77.7949 15.3843C77.729 15.3843 77.6723 15.3941 77.6254 15.4133C77.5769 15.4333 77.5292 15.466 77.4831 15.5105C77.4385 15.5565 77.4059 15.6035 77.3862 15.6507C77.367 15.6973 77.3572 15.7541 77.3572 15.821C77.3572 15.8867 77.367 15.9433 77.3862 15.9901C77.4061 16.0383 77.4389 16.0859 77.4835 16.1317C77.5294 16.1761 77.5771 16.2087 77.6254 16.2288C77.6723 16.248 77.729 16.2578 77.7949 16.2578C77.8619 16.2578 77.9189 16.248 77.9655 16.2288C78.0133 16.2091 78.0602 16.1765 78.1064 16.1317C78.1509 16.0859 78.1836 16.0386 78.2037 15.9901C78.2229 15.9433 78.2328 15.8867 78.2328 15.821C78.2328 15.7543 78.2229 15.6975 78.2037 15.6507C78.184 15.6033 78.1514 15.5565 78.1064 15.5104C78.0655 15.4705 78.0237 15.4403 77.9815 15.4203L77.9635 15.4133ZM84.9572 21.7767H85.1718C85.3107 21.7767 85.4415 21.7546 85.5644 21.7112C85.6927 21.6659 85.8173 21.5966 85.9368 21.5043L85.9432 21.4994C86.0347 21.426 86.1035 21.3393 86.1483 21.2395C86.1993 21.1246 86.2249 20.9855 86.2249 20.8208C86.2249 20.6796 86.2036 20.5522 86.161 20.4399C86.1191 20.3296 86.0538 20.2258 85.9653 20.1289C85.8907 20.0472 85.7933 19.9844 85.6741 19.9417C85.5273 19.8915 85.3465 19.8651 85.1315 19.8651C84.9136 19.8651 84.6951 19.9007 84.4768 19.9713L84.4527 19.9785C84.2313 20.0525 84.0063 20.1634 83.779 20.3101C83.5761 20.4413 83.3396 20.4862 83.1164 20.4517C82.893 20.4172 82.6814 20.3026 82.5285 20.1164L82.368 19.9236L82.3354 19.8794C82.2678 19.7875 82.2183 19.6867 82.188 19.5797C82.1532 19.4569 82.1448 19.3279 82.1628 19.1955L82.1669 19.1693C82.187 19.0453 82.2291 18.9309 82.2916 18.8287L82.3213 18.7852C82.3852 18.692 82.4642 18.6124 82.5572 18.5469C82.9651 18.2606 83.3873 18.0445 83.8239 17.899C84.2682 17.7509 84.7209 17.6765 85.1804 17.6765C85.6258 17.6765 86.0408 17.7441 86.4247 17.8786C86.814 18.0151 87.1656 18.2192 87.4785 18.4899C87.8004 18.7686 88.0439 19.0913 88.2075 19.4573C88.3709 19.822 88.4528 20.2209 88.4528 20.6537C88.4528 21.0782 88.3799 21.4591 88.2345 21.7956C88.1063 22.0923 87.9218 22.351 87.6814 22.5715C88.0432 22.8468 88.3209 23.1777 88.5138 23.5636C88.7275 23.9904 88.8343 24.4767 88.8343 25.0218C88.8343 25.4542 88.7564 25.8682 88.6014 26.2632C88.4495 26.6504 88.2224 27.0168 87.9216 27.3605L87.9093 27.374C87.5925 27.7285 87.2014 27.9947 86.7364 28.1713C86.2859 28.3431 85.7701 28.4287 85.1892 28.4287C84.5793 28.4287 84.0155 28.3402 83.4995 28.1641C82.9757 27.9855 82.5046 27.7169 82.0877 27.3594L82.0721 27.3456C81.9798 27.2634 81.9066 27.169 81.854 27.0638L81.8286 27.0041C81.7887 26.9089 81.7647 26.8082 81.7577 26.7032C81.7487 26.5736 81.7649 26.4489 81.8053 26.3317C81.8456 26.2144 81.9093 26.106 81.9957 26.0092L82.1847 25.7971C82.3569 25.604 82.5916 25.4974 82.832 25.4814L82.8502 25.4806C83.0834 25.4696 83.3234 25.5451 83.5159 25.7107C83.7264 25.8919 83.9608 26.0284 84.2187 26.1194C84.4795 26.2113 84.7695 26.2575 85.0881 26.2575C85.332 26.2575 85.5437 26.2268 85.7226 26.166C85.8852 26.1105 86.0247 26.0284 86.1393 25.9209L86.1416 25.9187C86.2542 25.8138 86.3392 25.6915 86.3957 25.5523C86.4551 25.4064 86.485 25.2362 86.485 25.0421C86.485 24.8576 86.4557 24.6957 86.3974 24.557L86.3888 24.5351C86.3339 24.4125 86.2524 24.3028 86.1449 24.2064C86.0218 24.0958 85.8893 24.0131 85.748 23.9593C85.6072 23.9056 85.4513 23.8786 85.2816 23.8786H84.9572C84.6947 23.8786 84.4566 23.7717 84.2848 23.6004C84.113 23.4289 84.0059 23.1912 84.0059 22.9293V22.726C84.0059 22.464 84.113 22.2264 84.2848 22.055L84.3321 22.0128C84.5002 21.866 84.7193 21.7767 84.9572 21.7767ZM85.9243 22.7293C85.8185 22.7666 85.7107 22.7961 85.6012 22.8171C85.7857 22.8406 85.9633 22.885 86.1334 22.9499C86.4002 23.0515 86.6453 23.2033 86.8685 23.4038C87.0923 23.6046 87.2637 23.8396 87.3818 24.1077L87.3962 24.1389C87.5111 24.412 87.5686 24.7133 87.5686 25.0421C87.5686 25.3752 87.5119 25.6806 87.3991 25.9577C87.2834 26.2428 87.1091 26.4933 86.8779 26.7086C86.6494 26.9224 86.3795 27.0826 86.0699 27.188C85.7753 27.2883 85.4474 27.3388 85.0881 27.3388C84.6491 27.3388 84.2391 27.2714 83.8587 27.1373C83.515 27.0162 83.1985 26.8398 82.9093 26.6091L82.8946 26.6257C83.1801 26.8507 83.4977 27.0231 83.8468 27.1421C84.2471 27.2788 84.6949 27.3474 85.1892 27.3474C85.6397 27.3474 86.0269 27.2857 86.3513 27.1627H86.3535C86.6535 27.0489 86.9035 26.8803 87.1029 26.6578L87.1087 26.651C87.3247 26.4042 87.4869 26.1436 87.594 25.8704C87.6984 25.6047 87.7506 25.3216 87.7506 25.0218C87.7506 24.6455 87.6818 24.3196 87.5444 24.045C87.4107 23.7775 87.2072 23.5501 86.9351 23.3641C86.8085 23.2777 86.708 23.1675 86.6373 23.039C86.5673 22.9123 86.5278 22.7689 86.5223 22.6154C86.5196 22.5425 86.5251 22.4712 86.5382 22.4017C86.3433 22.5441 86.1383 22.6536 85.9243 22.7293ZM87.3085 20.8208C87.3085 21.0073 87.2883 21.1837 87.2479 21.3494C87.3286 21.154 87.3691 20.9221 87.3691 20.6537C87.3691 20.369 87.3198 20.1164 87.2213 19.8966C87.1231 19.6769 86.9727 19.4794 86.7717 19.3053C86.5618 19.1236 86.3273 18.9869 86.0693 18.8965C85.8058 18.8044 85.5092 18.7578 85.1804 18.7578C84.8309 18.7578 84.4926 18.8124 84.1666 18.9211C83.9566 18.991 83.7483 19.0841 83.5419 19.2004C83.7319 19.1005 83.9228 19.0185 84.1144 18.9546L84.1423 18.9448C84.4728 18.8375 84.8033 18.7838 85.1315 18.7838C85.4712 18.7838 85.7734 18.8312 86.0376 18.9256C86.329 19.0318 86.5716 19.1904 86.7651 19.4023C86.9449 19.5991 87.0808 19.8185 87.1726 20.0599C87.2633 20.2989 87.3085 20.5529 87.3085 20.8208ZM90.0659 26.119L93.371 18.5096C93.447 18.3344 93.5688 18.1918 93.7201 18.0925C93.8725 17.9908 94.0515 17.936 94.2421 17.936H94.322C94.5107 17.936 94.6905 17.992 94.8441 18.0927C94.9981 18.1938 95.1208 18.3369 95.1955 18.5101L98.4811 26.119H98.8196C99.0821 26.119 99.3202 26.2258 99.4921 26.3972L99.5342 26.4444C99.6815 26.6122 99.7709 26.8308 99.7709 27.0683V28.4307C99.7709 28.6901 99.6643 28.9271 99.4921 29.0996L99.4898 29.1018C99.3162 29.274 99.0791 29.3801 98.8196 29.3801H98.4945C98.2342 29.3801 97.9963 29.2732 97.8232 29.1006C97.6502 28.9304 97.5431 28.6928 97.5431 28.4307V28.2037H91.0158V28.4827C91.0158 28.742 90.9091 28.979 90.7369 29.1514L90.7347 29.1537C90.5611 29.3259 90.3239 29.432 90.0645 29.432H89.7047C89.4445 29.432 89.2065 29.3251 89.0335 29.1525C88.8605 28.9822 88.7534 28.7446 88.7534 28.4827V27.0683C88.7534 26.8063 88.8605 26.5687 89.0323 26.3972C89.2041 26.2258 89.4422 26.119 89.7047 26.119H90.0659ZM94.2808 19.1223L93.5907 20.7111C93.618 20.6845 93.6467 20.6595 93.6765 20.6365L93.7322 20.595C93.8844 20.4957 94.0656 20.4413 94.2593 20.4426C94.4551 20.4438 94.6377 20.5016 94.7896 20.6048C94.8746 20.6639 94.9504 20.7353 95.0133 20.8181L94.2808 19.1223ZM91.2488 26.1028L91.0213 26.6267C90.9548 26.7802 90.8532 26.9082 90.7273 27.0048L90.6722 27.0458C90.5199 27.1455 90.3411 27.2003 90.1503 27.2003H89.837V28.3507H89.9322V28.0718C89.9322 27.8098 90.0393 27.5722 90.2111 27.4007C90.3829 27.2293 90.621 27.1224 90.8836 27.1224H91.8093L91.737 27.0875C91.601 27.0147 91.4845 26.9087 91.3953 26.7742C91.307 26.6414 91.2554 26.4927 91.2409 26.3371C91.2337 26.2591 91.2363 26.1805 91.2488 26.1028ZM97.5212 26.6261L95.6318 22.2507L97.1174 25.8941C97.1733 26.0368 97.1958 26.1831 97.1848 26.3257L97.1829 26.3482C97.167 26.5023 97.1137 26.6498 97.0249 26.781C96.944 26.8989 96.842 26.9949 96.7243 27.0654L96.6815 27.0904L96.6147 27.1224H97.6754C97.9379 27.1224 98.1761 27.2293 98.3479 27.4007C98.5197 27.5746 98.6268 27.812 98.6268 28.0718V28.2988H98.6874V27.2003H98.3948C98.2039 27.2003 98.0243 27.1451 97.8724 27.0456C97.7325 26.9518 97.6175 26.8235 97.5411 26.6672L97.5212 26.6261ZM94.2509 21.7303L92.3853 26.119H96.0403L94.2509 21.7303ZM106.836 23.7748H102.545V27.2544C102.545 27.5137 102.438 27.7508 102.266 27.9232L102.264 27.9255C102.09 28.0977 101.853 28.2037 101.594 28.2037H101.234C100.974 28.2037 100.736 28.0969 100.563 27.9242C100.39 27.754 100.282 27.5164 100.282 27.2544V18.8853C100.282 18.6234 100.39 18.3857 100.561 18.2143L100.609 18.1722C100.777 18.0253 100.996 17.936 101.234 17.936H101.594C101.853 17.936 102.091 18.0425 102.264 18.2143L102.266 18.2166C102.439 18.3898 102.545 18.6264 102.545 18.8853V21.5864H106.836V18.8853C106.836 18.6234 106.943 18.3857 107.115 18.2143L107.162 18.1722C107.33 18.0253 107.549 17.936 107.787 17.936H108.147C108.407 17.936 108.644 18.0425 108.817 18.2143L108.819 18.2166C108.992 18.3898 109.098 18.6264 109.098 18.8853V27.2544C109.098 27.5137 108.991 27.7508 108.819 27.9232L108.817 27.9255C108.643 28.0977 108.406 28.2037 108.147 28.2037H107.787C107.527 28.2037 107.289 28.0969 107.116 27.9242C106.943 27.754 106.836 27.5164 106.836 27.2544V23.7748ZM102.413 22.6935H106.968C107.227 22.6935 107.465 22.7995 107.637 22.971L107.639 22.973C107.813 23.1465 107.919 23.3835 107.919 23.6428V27.1224H108.015V19.0173H107.919V21.7184C107.919 21.9558 107.83 22.1745 107.683 22.3422L107.64 22.3894C107.469 22.5609 107.231 22.6678 106.968 22.6678H102.413C102.15 22.6678 101.912 22.5609 101.74 22.3894C101.568 22.218 101.461 21.9804 101.461 21.7184V19.0173H101.366V27.1224H101.461V23.6428C101.461 23.3809 101.568 23.1432 101.74 22.9718C101.914 22.8003 102.152 22.6935 102.413 22.6935ZM112.907 21.569H113.494C113.95 21.569 114.368 21.5879 114.748 21.6256C115.132 21.6637 115.465 21.7219 115.748 21.8005C116.064 21.8882 116.358 22.0284 116.628 22.2206C116.89 22.4066 117.13 22.643 117.348 22.9291C117.568 23.2174 117.734 23.529 117.845 23.8627C117.956 24.1986 118.012 24.5497 118.012 24.9152C118.012 25.3609 117.932 25.7797 117.77 26.1715C117.611 26.5593 117.374 26.913 117.06 27.2318C116.735 27.5632 116.329 27.8102 115.845 27.9722C115.384 28.1265 114.855 28.2037 114.26 28.2037H111.604C111.344 28.2037 111.106 28.0969 110.933 27.9242C110.76 27.754 110.653 27.5164 110.653 27.2544V18.8853C110.653 18.6234 110.76 18.3857 110.932 18.2143L110.979 18.1722C111.147 18.0253 111.366 17.936 111.604 17.936H111.955C112.215 17.936 112.453 18.0425 112.626 18.2143L112.628 18.2166C112.8 18.3898 112.907 18.6264 112.907 18.8853V21.569ZM113.494 22.6504H112.774C112.512 22.6504 112.274 22.5435 112.102 22.3721C111.93 22.2006 111.823 21.963 111.823 21.701V19.0173H111.736V27.1224H112.443C112.351 27.0828 112.267 27.029 112.192 26.9641L112.145 26.922C111.973 26.7505 111.866 26.5129 111.866 26.2509V23.6083C111.866 23.3464 111.973 23.1087 112.145 22.9372C112.319 22.7658 112.557 22.6589 112.818 22.6589H113.419C113.848 22.6589 114.222 22.6755 114.541 22.709C114.863 22.7428 115.127 22.7959 115.332 22.8688L115.364 22.8794C115.591 22.965 115.792 23.0823 115.965 23.2309C116.134 23.3784 116.277 23.5527 116.391 23.7544L116.4 23.7689C116.501 23.9495 116.58 24.1373 116.636 24.3312L116.643 24.3564C116.7 24.5644 116.729 24.7711 116.729 24.9757C116.729 25.7225 116.451 26.291 115.893 26.68C115.643 26.8549 115.339 26.9857 114.982 27.0724C115.17 27.0438 115.344 27.0031 115.502 26.9502C115.821 26.8435 116.083 26.6866 116.286 26.4798L116.288 26.4777C116.504 26.2585 116.666 26.0194 116.772 25.7615C116.876 25.5071 116.929 25.225 116.929 24.9152C116.929 24.6561 116.892 24.4176 116.82 24.2007C116.747 23.9804 116.636 23.7732 116.489 23.5797C116.341 23.385 116.178 23.2245 116.001 23.0993C115.834 22.9799 115.653 22.8931 115.46 22.8398C115.235 22.7773 114.962 22.73 114.643 22.6984C114.32 22.6665 113.937 22.6504 113.494 22.6504ZM112.95 23.7403V26.119H113.775C114.468 26.119 114.968 26.0115 115.275 25.7973C115.522 25.625 115.646 25.3508 115.646 24.9757C115.646 24.8607 115.631 24.7495 115.602 24.6436L115.597 24.6236C115.566 24.5188 115.519 24.4095 115.456 24.2969L115.447 24.2814C115.395 24.1896 115.332 24.1118 115.259 24.0491C115.178 23.9818 115.086 23.9277 114.983 23.8889L114.964 23.8815C114.843 23.8394 114.665 23.8061 114.431 23.7818C114.166 23.7542 113.829 23.7403 113.419 23.7403H112.95ZM119.527 17.936H119.887C120.147 17.936 120.384 18.0425 120.557 18.2143L120.559 18.2166C120.732 18.3898 120.838 18.6264 120.838 18.8853V27.2544C120.838 27.5137 120.732 27.7508 120.559 27.9232L120.557 27.9255C120.383 28.0977 120.146 28.2037 119.887 28.2037H119.527C119.267 28.2037 119.029 28.0969 118.856 27.9242C118.683 27.754 118.576 27.5164 118.576 27.2544V18.8853C118.576 18.6234 118.683 18.3857 118.855 18.2143L118.902 18.1722C119.07 18.0253 119.289 17.936 119.527 17.936ZM119.755 19.0173H119.659V27.1224H119.755V19.0173ZM131.185 24.3171L131.479 24.4716C131.595 24.5327 131.694 24.6132 131.775 24.7125C131.856 24.8126 131.916 24.9275 131.951 25.0537C131.986 25.1786 131.995 25.3053 131.979 25.4315L131.979 25.4336C131.962 25.5613 131.92 25.6825 131.854 25.7938C131.703 26.0477 131.542 26.283 131.371 26.4982C131.198 26.716 131.015 26.9127 130.823 27.0875C130.585 27.3028 130.329 27.4956 130.055 27.6645C129.781 27.8335 129.496 27.9747 129.201 28.0871L129.171 28.0973C128.876 28.207 128.564 28.2896 128.236 28.3443C127.899 28.4007 127.547 28.4287 127.182 28.4287C125.51 28.4287 124.198 27.8758 123.239 26.7701C122.772 26.2307 122.421 25.6549 122.187 25.0439C121.95 24.4281 121.832 23.7781 121.832 23.0958C121.832 22.4591 121.933 21.8504 122.134 21.2715C122.334 20.6957 122.634 20.1563 123.03 19.6548C123.536 19.01 124.134 18.5243 124.822 18.1979C125.507 17.8737 126.271 17.711 127.116 17.711C127.982 17.711 128.768 17.8774 129.472 18.209C130.175 18.5402 130.789 19.0365 131.311 19.6959C131.641 20.1062 131.899 20.5644 132.087 21.0688C132.273 21.5682 132.388 22.1077 132.431 22.6859C132.441 22.8177 132.423 22.9461 132.38 23.0693L132.38 23.0713C132.338 23.192 132.27 23.3032 132.179 23.4017L132.14 23.4393C132.057 23.5196 131.964 23.5824 131.863 23.6265C131.742 23.679 131.614 23.7058 131.483 23.7058H124.175C124.224 24.021 124.311 24.3118 124.433 24.5776C124.574 24.8819 124.765 25.1567 125.003 25.4013C125.283 25.6878 125.594 25.9026 125.937 26.0444C126.279 26.1862 126.659 26.2575 127.075 26.2575C127.28 26.2575 127.482 26.2399 127.68 26.2051C127.881 26.1698 128.077 26.1173 128.266 26.0489C128.46 25.9785 128.639 25.8972 128.801 25.8055C128.956 25.7183 129.1 25.6173 129.233 25.5033L129.26 25.4812C129.355 25.3964 129.457 25.2885 129.566 25.1574C129.694 25.0023 129.822 24.828 129.949 24.6359C130.083 24.4319 130.285 24.2953 130.506 24.2383C130.727 24.1814 130.969 24.2039 131.185 24.3171ZM130.852 25.3615L130.784 25.3261C130.649 25.5259 130.521 25.6994 130.399 25.8459C130.257 26.0174 130.114 26.1661 129.972 26.2918L129.939 26.3227C129.76 26.4763 129.559 26.6167 129.335 26.7434C129.119 26.8654 128.885 26.9718 128.634 27.0627C128.379 27.1553 128.122 27.2248 127.866 27.2697C127.605 27.3157 127.341 27.3388 127.075 27.3388C126.518 27.3388 126 27.2393 125.522 27.0411C125.045 26.8431 124.613 26.5468 124.229 26.1533C123.903 25.8196 123.643 25.4446 123.451 25.0296C123.261 24.6179 123.137 24.1686 123.081 23.6823C123.065 23.5454 123.077 23.4128 123.117 23.2875C123.158 23.1606 123.225 23.0444 123.315 22.943C123.409 22.84 123.516 22.7609 123.635 22.7076C123.737 22.6628 123.842 22.6359 123.951 22.6273C123.91 22.6126 123.871 22.5952 123.833 22.5752L123.831 22.5732C123.697 22.502 123.582 22.3983 123.492 22.2666C123.402 22.1338 123.348 21.9871 123.332 21.8363C123.315 21.6845 123.337 21.5306 123.396 21.3829C123.525 21.0635 123.673 20.7768 123.841 20.5241C124.006 20.276 124.192 20.0574 124.4 19.8692L124.43 19.8408C124.807 19.5061 125.223 19.2544 125.678 19.086C126.129 18.9193 126.614 18.8357 127.133 18.8357C127.426 18.8357 127.719 18.8665 128.012 18.9276L128.053 18.935C128.353 19.0008 128.648 19.1001 128.934 19.2323C129.22 19.364 129.479 19.5173 129.71 19.6916C129.946 19.869 130.155 20.07 130.336 20.2954C130.46 20.4481 130.574 20.6205 130.678 20.811C130.781 20.9994 130.871 21.1988 130.948 21.4082C131.002 21.5533 131.018 21.7047 130.999 21.8555C130.982 21.989 130.936 22.1171 130.864 22.2333L130.836 22.2777C130.756 22.3925 130.654 22.4863 130.534 22.5553L130.494 22.5786C130.46 22.596 130.426 22.6111 130.39 22.6244H131.339C131.297 22.1974 131.209 21.804 131.075 21.4448C130.929 21.0515 130.725 20.6914 130.466 20.3665C130.05 19.8398 129.564 19.446 129.01 19.1849C128.455 18.9235 127.823 18.7924 127.115 18.7924C126.431 18.7924 125.82 18.9198 125.284 19.1738C124.751 19.4262 124.283 19.8091 123.88 20.3211H123.878C123.556 20.7276 123.314 21.1618 123.154 21.6222C122.995 22.0795 122.916 22.5711 122.916 23.0958C122.916 23.6469 123.01 24.1686 123.198 24.6594C123.388 25.1551 123.675 25.624 124.056 26.0648C124.797 26.9197 125.838 27.3474 127.182 27.3474C127.495 27.3474 127.787 27.3249 128.058 27.2798C128.318 27.2364 128.562 27.1723 128.791 27.0877L128.815 27.0777C129.056 26.9861 129.28 26.8758 129.488 26.7479C129.699 26.6179 129.901 26.4647 130.094 26.2894C130.244 26.1533 130.388 25.9986 130.525 25.8268C130.637 25.6847 130.747 25.5292 130.852 25.3615ZM129.862 21.6036C129.82 21.5031 129.776 21.4107 129.73 21.3263C129.659 21.1971 129.58 21.0782 129.494 20.9713C129.371 20.8185 129.225 20.6792 129.058 20.5535C128.887 20.4246 128.695 20.3105 128.481 20.2123C128.268 20.1142 128.049 20.0402 127.825 19.991L127.786 19.9811C127.579 19.9384 127.361 19.917 127.133 19.917C126.741 19.917 126.38 19.9781 126.051 20.0999C125.726 20.2202 125.425 20.4029 125.149 20.6475L125.122 20.6698C124.986 20.7946 124.859 20.9446 124.743 21.1195C124.646 21.2648 124.558 21.4262 124.477 21.6036H129.862ZM56.3286 34.7265H56.6616C56.8471 34.7265 57.0242 34.7804 57.1761 34.8779C57.3287 34.9756 57.4513 35.1161 57.5282 35.2864L60.0951 40.9805L62.5852 35.2968C62.6612 35.1235 62.783 34.9819 62.9343 34.8826L62.9368 34.8812C63.0885 34.7817 63.2673 34.7265 63.4556 34.7265H63.8247C63.9856 34.7265 64.1388 34.7657 64.2764 34.8397C64.4129 34.9124 64.529 35.0197 64.6192 35.157C64.7094 35.2925 64.7606 35.4431 64.7736 35.5974C64.7862 35.7502 64.7602 35.9061 64.6951 36.0549L59.5574 47.7802C59.481 47.9551 59.3581 48.0973 59.2078 48.1957C59.0559 48.2953 58.8761 48.3505 58.6869 48.3505H58.3181C58.1576 48.3505 58.004 48.3112 57.8664 48.2368C57.7298 48.1641 57.6125 48.0564 57.5224 47.9183C57.4333 47.782 57.3817 47.6328 57.3688 47.4794C57.3561 47.3269 57.3823 47.171 57.4477 47.0219L58.9041 43.7008L55.462 36.063C55.3953 35.9139 55.3676 35.7578 55.3793 35.6049L55.3812 35.5859C55.3955 35.437 55.4457 35.2933 55.5298 35.1625C55.6179 35.0263 55.7354 34.9175 55.8738 34.8425C56.0135 34.7667 56.1679 34.7265 56.3286 34.7265ZM56.5772 35.8078H56.5312L59.9136 43.3132C59.9689 43.436 59.9968 43.565 59.9976 43.6965C59.998 43.8292 59.9712 43.9568 59.9176 44.0796L58.5188 47.2691H58.6019L63.624 35.8078H63.5406L60.967 41.6822C60.8914 41.8551 60.77 41.9963 60.6187 42.0958C60.468 42.1949 60.2898 42.2497 60.1006 42.2505C59.911 42.2513 59.7324 42.1982 59.5823 42.1019C59.43 42.0043 59.3071 41.8634 59.2299 41.6925L56.5772 35.8078ZM68.6578 44.9943H66.3887C66.1275 44.9943 65.8885 44.8874 65.7165 44.7158L65.6747 44.6689C65.5277 44.5018 65.4374 44.2834 65.4374 44.0449V35.6758C65.4374 35.4161 65.5445 35.1787 65.7175 35.006C65.8881 34.8334 66.1262 34.7265 66.3887 34.7265H68.6172C69.1754 34.7265 69.6633 34.7927 70.0794 34.9243C70.5283 35.0663 70.8966 35.2862 71.1825 35.5824C71.4507 35.8608 71.6536 36.1672 71.7905 36.5003C71.9295 36.8391 71.9993 37.1973 71.9993 37.5739C71.9993 38.1462 71.8664 38.6352 71.6006 39.0402C71.5138 39.1726 71.4139 39.2944 71.3006 39.4057C71.5787 39.5964 71.8117 39.8197 71.9997 40.0762C72.3693 40.5804 72.5542 41.1932 72.5542 41.9133C72.5542 42.9364 72.2018 43.7143 71.4988 44.2466C70.8411 44.7446 69.8933 44.9943 68.6578 44.9943ZM66.521 43.9129H67.1928C67.1011 43.8731 67.0165 43.8191 66.9422 43.7539L66.8953 43.7122C66.7233 43.5406 66.6162 43.3021 66.6162 43.0414V40.6409C66.6162 40.3806 66.7239 40.1422 66.896 39.9705C67.0678 39.7991 67.3056 39.6916 67.5676 39.6916H68.9264C69.246 39.6916 69.5417 39.74 69.8107 39.8354L69.8321 39.8432C69.7835 39.7938 69.7438 39.7343 69.7164 39.6661C69.6945 39.6117 69.6821 39.5559 69.6787 39.5003C69.6039 39.5334 69.5274 39.5602 69.4492 39.5804C69.3066 39.6172 69.1019 39.644 68.8371 39.6599C68.5848 39.6751 68.2824 39.683 67.9324 39.683H67.5676C67.3288 39.683 67.1097 39.5929 66.9422 39.4462L66.8953 39.4045C66.7233 39.2329 66.6162 38.9944 66.6162 38.7337V36.6965C66.6162 36.4362 66.7239 36.1977 66.896 36.0261C66.9909 35.9312 67.106 35.8563 67.2342 35.8078H66.521V43.9129ZM69.7534 35.9549L69.7346 35.949C69.7987 35.9825 69.8615 36.0218 69.923 36.0665C70.0712 36.1744 70.2103 36.3127 70.3393 36.4803C70.4787 36.6605 70.5829 36.8607 70.6511 37.0796C70.7176 37.2925 70.751 37.5212 70.751 37.7641C70.751 38.0022 70.7181 38.2228 70.6521 38.4254C70.6347 38.4787 70.6151 38.5308 70.593 38.5812C70.6304 38.5392 70.6644 38.495 70.6947 38.4488C70.842 38.2245 70.9157 37.9327 70.9157 37.5739C70.9157 37.333 70.8741 37.1113 70.7916 36.9102C70.707 36.7041 70.5774 36.5101 70.4036 36.3299C70.2471 36.1679 70.0299 36.0424 69.7534 35.9549ZM71.1278 40.7141C70.9355 40.4517 70.6544 40.2377 70.2854 40.0729C70.3802 40.1362 70.4697 40.2075 70.5536 40.2864C70.7701 40.4893 70.9333 40.729 71.0426 41.004C71.1487 41.2709 71.2019 41.5631 71.2019 41.8788C71.2019 42.1225 71.1714 42.349 71.1114 42.557C71.0481 42.7766 70.9507 42.9767 70.8209 43.1565C70.696 43.3295 70.5565 43.4736 70.4044 43.5868C70.3452 43.6309 70.2837 43.6708 70.2201 43.7065C70.4664 43.6248 70.6753 43.5192 70.8469 43.3892C71.2623 43.0747 71.4706 42.5825 71.4706 41.9133C71.4706 41.4258 71.3561 41.0257 71.1278 40.7141ZM67.6999 36.8285V38.6017H67.9324C68.285 38.6017 68.566 38.5951 68.7736 38.5827C68.9721 38.5706 69.1076 38.5553 69.178 38.5371C69.2235 38.5255 69.2725 38.5017 69.3228 38.4674C69.3861 38.4243 69.45 38.3657 69.5126 38.2929L69.5212 38.2831C69.5648 38.2306 69.599 38.1665 69.6234 38.0915C69.6527 38.0014 69.6674 37.892 69.6674 37.7641C69.6674 37.6268 69.6511 37.5054 69.6182 37.4008C69.5876 37.3021 69.5425 37.2147 69.4842 37.139C69.4145 37.0485 69.3488 36.9807 69.2882 36.9366C69.2477 36.9071 69.2106 36.8886 69.1789 36.8822C69.0988 36.8661 68.9569 36.853 68.7554 36.8432C68.5574 36.8334 68.2822 36.8285 67.9324 36.8285H67.6999ZM67.6999 40.7729V42.9094H68.4323C68.732 42.9094 68.9735 42.9011 69.1559 42.8847C69.3327 42.869 69.4707 42.8463 69.5688 42.8175C69.6331 42.7985 69.6961 42.7662 69.7569 42.7209C69.8253 42.67 69.8884 42.605 69.9445 42.5271C69.9983 42.4526 70.0405 42.3637 70.07 42.2611C70.102 42.1502 70.1183 42.0222 70.1183 41.8788C70.1183 41.6929 70.0919 41.5335 70.0393 41.4013C69.9899 41.277 69.9141 41.1669 69.8128 41.0719C69.7102 40.9756 69.589 40.9025 69.4508 40.8534C69.3003 40.8001 69.1248 40.7729 68.9264 40.7729H67.6999ZM83.803 35.6758V44.0449C83.803 44.3061 83.6957 44.5439 83.5237 44.7155C83.3517 44.8872 83.1133 44.9943 82.8516 44.9943H82.4916C82.2304 44.9943 81.9914 44.8874 81.8194 44.7158L81.7776 44.6689C81.653 44.5271 81.569 44.3484 81.5464 44.1518C81.4392 44.2356 81.3304 44.314 81.2203 44.387C81.0366 44.5086 80.8449 44.6183 80.6469 44.7143C80.304 44.8806 79.9405 45.0069 79.5588 45.0917C79.1784 45.1763 78.7878 45.2192 78.3894 45.2192C77.6696 45.2192 76.9954 45.0866 76.3696 44.822C75.7459 44.5584 75.1778 44.1655 74.6678 43.6444C74.1575 43.1234 73.7735 42.5432 73.5172 41.9052C73.2605 41.2668 73.1321 40.5764 73.1321 39.8344C73.1321 39.1078 73.2629 38.4272 73.5235 37.7945C73.7844 37.1618 74.1719 36.5861 74.6841 36.0692C75.1985 35.5502 75.7694 35.1583 76.3958 34.8957C77.0215 34.6335 77.6979 34.5015 78.424 34.5015C78.8403 34.5015 79.2408 34.5463 79.6243 34.6351C80.0107 34.7249 80.3773 34.8595 80.7225 35.0385C80.9029 35.1321 81.0833 35.2431 81.2616 35.3691C81.3579 35.4374 81.4523 35.5097 81.5446 35.5857C81.5661 35.3595 81.6673 35.1564 81.8192 35.0048C81.991 34.8334 82.2291 34.7265 82.4916 34.7265H82.8516C83.1139 34.7265 83.3521 34.8342 83.5235 35.0052C83.6957 35.1771 83.803 35.4155 83.803 35.6758ZM82.7194 43.9129V35.8078H82.6239V35.8712C82.6239 36.0612 82.5689 36.24 82.4693 36.3914C82.3706 36.5418 82.2279 36.6633 82.052 36.74C81.8765 36.8162 81.6906 36.8378 81.5126 36.8074C81.4703 36.7999 81.4285 36.7897 81.3874 36.7768L81.4848 36.8728C81.8882 37.2827 82.1908 37.7423 82.3923 38.2506C82.5928 38.757 82.6934 39.3093 82.6934 39.9066C82.6934 40.2938 82.6481 40.6669 82.5592 41.024C82.4687 41.3864 82.3338 41.7271 82.1554 42.0447C81.9742 42.3678 81.7539 42.6569 81.4959 42.9115L81.4461 42.9577L81.5385 42.9395C81.714 42.9143 81.8964 42.9399 82.0676 43.018C82.239 43.0962 82.3778 43.2172 82.4734 43.3666C82.5705 43.5175 82.6239 43.6933 82.6239 43.8796V43.9129H82.7194ZM78.3894 44.1379C78.5487 44.1379 78.7037 44.1304 78.8542 44.115C78.7393 44.1246 78.6239 44.1293 78.508 44.1293C78.1449 44.1293 77.7874 44.0809 77.4366 43.9849C77.0849 43.8888 76.7494 43.7474 76.4319 43.5623C76.1126 43.3761 75.8226 43.1493 75.5637 42.8835C75.3064 42.6197 75.0833 42.3202 74.8951 41.9871C74.7075 41.6548 74.5662 41.312 74.4718 40.9599C74.3762 40.6044 74.3283 40.2419 74.3283 39.8747C74.3283 39.5053 74.3762 39.1421 74.471 38.7864C74.5656 38.4312 74.7065 38.0886 74.8922 37.7596C75.0788 37.4294 75.3011 37.1325 75.5577 36.871C75.8137 36.61 76.1026 36.3865 76.4224 36.2018C76.7422 36.0173 77.0793 35.8773 77.4313 35.7837C77.7818 35.6907 78.1441 35.6434 78.5166 35.6434C79.0934 35.6434 79.6309 35.7457 80.1274 35.9496C79.8897 35.8352 79.6401 35.7475 79.379 35.6871C79.0799 35.6176 78.7612 35.5828 78.424 35.5828C77.8427 35.5828 77.306 35.6867 76.8147 35.8924C76.3219 36.099 75.8681 36.412 75.4545 36.8293C75.038 37.2494 74.7269 37.7084 74.5224 38.2045C74.3181 38.7002 74.2157 39.2441 74.2157 39.8344C74.2157 40.4417 74.3172 40.9983 74.5205 41.5038C74.7239 42.0097 75.0315 42.473 75.4422 42.8925C75.8515 43.3106 76.3008 43.6232 76.7885 43.8293C77.2746 44.0349 77.8089 44.1379 78.3894 44.1379ZM78.5166 36.7247C78.2325 36.7247 77.9621 36.7592 77.7065 36.8271C77.4485 36.8955 77.2007 36.9987 76.9642 37.1352C76.7283 37.2715 76.5154 37.436 76.328 37.627C76.1419 37.8166 75.9775 38.0375 75.8361 38.2876C75.6932 38.5406 75.5864 38.7989 75.5165 39.061C75.4469 39.3218 75.4119 39.5933 75.4119 39.8747C75.4119 40.1507 75.4471 40.42 75.5173 40.6812C75.588 40.945 75.6957 41.2049 75.839 41.4591C75.9824 41.7131 76.1493 41.9376 76.338 42.1315C76.5248 42.3232 76.7386 42.4894 76.9778 42.6289C77.2218 42.7711 77.47 42.8771 77.7204 42.9456C77.969 43.0136 78.2317 43.048 78.508 43.048C78.7862 43.048 79.0557 43.0132 79.3145 42.9448C79.5746 42.8759 79.8309 42.7707 80.0809 42.6303C80.3293 42.4907 80.5476 42.3285 80.7352 42.1438C80.9219 41.9575 81.0815 41.7486 81.2114 41.5167C81.3441 41.2805 81.4439 41.03 81.5096 40.7666C81.576 40.4999 81.6098 40.2128 81.6098 39.9066C81.6098 39.446 81.5346 39.0261 81.3849 38.6479C81.2356 38.271 81.0118 37.9309 80.7145 37.6289C80.4159 37.3254 80.0853 37.0984 79.7239 36.9492C79.3616 36.7997 78.959 36.7247 78.5166 36.7247ZM93.1003 44.9943H92.7633C92.5802 44.9943 92.4041 44.9409 92.252 44.8442C92.1013 44.7484 91.9786 44.6114 91.9006 44.4427L89.3961 39.0469L86.9343 44.4358C86.8573 44.607 86.7346 44.7464 86.5835 44.8434C86.4328 44.9401 86.2554 44.9943 86.0693 44.9943H85.7013C85.541 44.9943 85.3858 44.9538 85.2462 44.8776C85.1091 44.8028 84.9908 44.6939 84.9019 44.5551C84.8139 44.4178 84.7625 44.2664 84.7514 44.1107C84.7398 43.9558 84.7691 43.7981 84.8399 43.6471L88.5179 35.8229C88.5965 35.6558 88.7176 35.5193 88.8668 35.4245V35.4222C89.0135 35.3293 89.1887 35.2776 89.3767 35.2772C89.562 35.2768 89.7365 35.3285 89.8845 35.4214C90.0356 35.5167 90.158 35.6523 90.2365 35.8168L93.9602 43.6413C94.0318 43.7893 94.0611 43.9485 94.0504 44.1072C94.04 44.2627 93.9894 44.4154 93.9004 44.5544C93.8111 44.6943 93.6931 44.803 93.5577 44.8772L93.5144 44.8984C93.3854 44.9609 93.2447 44.9943 93.1003 44.9943ZM92.8466 43.9129H92.8923L91.0586 40.061L92.8466 43.9129ZM89.9064 37.9321C90.0018 37.9926 90.0862 38.0706 90.1552 38.163L89.3779 36.5301L85.9073 43.9129H85.9864L88.53 38.343C88.5971 38.1952 88.6997 38.0702 88.8265 37.9758L88.8811 37.9358C89.029 37.8407 89.2053 37.7874 89.3945 37.787C89.5829 37.7866 89.7583 37.8383 89.9064 37.9321ZM97.2536 38.3595H97.8414C98.2972 38.3595 98.7156 38.3787 99.0956 38.4164C99.4788 38.4546 99.8123 38.5132 100.095 38.591C100.41 38.6783 100.704 38.8185 100.975 39.0108C101.236 39.1967 101.477 39.4335 101.695 39.7196C101.915 40.0079 102.081 40.3195 102.191 40.6532C102.303 40.9891 102.359 41.3402 102.359 41.7057C102.359 42.1515 102.278 42.5702 102.117 42.9619C101.957 43.3506 101.719 43.7049 101.405 44.0243C101.081 44.3541 100.675 44.6003 100.191 44.7623C99.7292 44.9168 99.2007 44.9943 98.6073 44.9943H95.9511C95.6898 44.9943 95.4509 44.8874 95.2788 44.7158L95.2371 44.6689C95.09 44.5018 94.9997 44.2834 94.9997 44.0449V35.6758C94.9997 35.4139 95.1068 35.1763 95.2786 35.0048C95.4504 34.8334 95.6886 34.7265 95.9511 34.7265H96.3022C96.5631 34.7265 96.8 34.8338 96.9722 35.005H96.9745C97.1465 35.1767 97.2536 35.4151 97.2536 35.6758V38.3595ZM97.8414 39.4408H97.1213C96.8826 39.4408 96.6635 39.3508 96.4959 39.204L96.4491 39.1624C96.277 38.9907 96.1699 38.7523 96.1699 38.4915V35.8078H96.0834V43.9129H96.7898C96.698 43.8731 96.6135 43.8191 96.5391 43.7539L96.4922 43.7122C96.3203 43.5406 96.2132 43.3021 96.2132 43.0414V40.3988C96.2132 40.1385 96.3209 39.9 96.4929 39.7284C96.6647 39.5569 96.9026 39.4495 97.1645 39.4495H97.7663C98.1938 39.4495 98.5682 39.466 98.8878 39.4995C99.225 39.5346 99.4995 39.5917 99.7087 39.6699C99.9344 39.7539 100.136 39.8722 100.31 40.0222C100.484 40.1718 100.63 40.3524 100.746 40.5614C100.854 40.7545 100.935 40.9509 100.99 41.1493C101.047 41.3563 101.076 41.5621 101.076 41.7662C101.076 42.513 100.798 43.0815 100.24 43.4705C99.9905 43.6449 99.6876 43.7754 99.3319 43.862C99.5185 43.8334 99.6905 43.793 99.848 43.7403C100.168 43.6332 100.431 43.4757 100.635 43.2683C100.85 43.049 101.012 42.8099 101.118 42.5521C101.223 42.2974 101.276 42.0153 101.276 41.7057C101.276 41.4466 101.239 41.2082 101.167 40.9911C101.094 40.7709 100.983 40.5637 100.836 40.3702C100.688 40.1753 100.524 40.0147 100.348 39.8894C100.18 39.7702 99.9993 39.6834 99.8068 39.6303C99.5822 39.5684 99.3096 39.521 98.99 39.4891C98.6673 39.4572 98.2844 39.4408 97.8414 39.4408ZM97.2967 40.5308V42.9094H98.1218C98.8151 42.9094 99.3153 42.802 99.6223 42.5878C99.8692 42.4156 99.9927 42.1413 99.9927 41.7662C99.9927 41.6521 99.9778 41.542 99.9487 41.4366C99.9164 41.3195 99.8674 41.202 99.8025 41.0854C99.7482 40.9879 99.6812 40.9047 99.6033 40.8375C99.5257 40.7707 99.4348 40.7175 99.3319 40.6793C99.2105 40.634 99.0252 40.598 98.7776 40.5723C98.5129 40.5447 98.1752 40.5308 97.7663 40.5308H97.2967ZM103.874 34.7265H104.234C104.495 34.7265 104.732 34.8338 104.904 35.005H104.906C105.078 35.1767 105.185 35.4151 105.185 35.6758V44.0449C105.185 44.3061 105.078 44.5439 104.906 44.7155C104.734 44.8872 104.495 44.9943 104.234 44.9943H103.874C103.613 44.9943 103.374 44.8874 103.202 44.7158L103.16 44.6689C103.013 44.5018 102.923 44.2834 102.923 44.0449V35.6758C102.923 35.4139 103.03 35.1763 103.202 35.0048C103.373 34.8334 103.612 34.7265 103.874 34.7265ZM104.102 35.8078H104.006V43.9129H104.102V35.8078Z" fill="black"/>
<path d="M56.276 1.08127H63.189C63.4147 1.08127 63.5985 1.26477 63.5985 1.48994V9.85905C63.5985 10.0842 63.4147 10.2677 63.189 10.2677H62.8292C62.6036 10.2677 62.4197 10.0842 62.4197 9.85905V2.59726C62.4197 2.3721 62.2359 2.18855 62.0102 2.18855H57.4548C57.2291 2.18855 57.0453 2.3721 57.0453 2.59726V9.85905C57.0453 10.0842 56.8614 10.2677 56.6357 10.2677H56.276C56.0503 10.2677 55.8665 10.0842 55.8665 9.85905V1.48994C55.8665 1.26477 56.0503 1.08127 56.276 1.08127ZM75.408 1.48994V9.85905C75.408 10.0842 75.2241 10.2677 74.9984 10.2677H74.6384C74.4128 10.2677 74.2289 10.0842 74.2289 9.85905V9.69394C74.2289 9.5303 74.1389 9.39033 73.9898 9.32226C73.8407 9.25424 73.6757 9.27774 73.5516 9.38479C73.2405 9.65291 72.9096 9.87213 72.5589 10.0428C71.9432 10.3421 71.2672 10.4927 70.5362 10.4927C69.2359 10.4927 68.1234 10.0227 67.2018 9.08262C66.28 8.13981 65.8207 6.99797 65.8207 5.64858C65.8207 4.33079 66.2859 3.20064 67.2161 2.26338C68.1437 1.32629 69.2619 0.856364 70.5708 0.856364C71.3249 0.856364 72.007 1.01489 72.6195 1.33199C72.9477 1.50286 73.2551 1.72047 73.5407 1.98506C73.6627 2.09805 73.8305 2.12665 73.983 2.06023C74.1358 1.99383 74.2289 1.85161 74.2289 1.68553V1.48994C74.2289 1.26477 74.4128 1.08127 74.6384 1.08127H74.9984C75.2241 1.08127 75.408 1.26477 75.408 1.48994ZM70.6634 1.99814C70.0047 1.99814 69.3949 2.15954 68.8401 2.48261C68.2824 2.8026 67.8403 3.2554 67.511 3.83775C67.1816 4.42033 67.0169 5.03718 67.0169 5.68882C67.0169 6.33185 67.1816 6.94896 67.5139 7.53725C67.8462 8.12529 68.2911 8.58381 68.8516 8.90974C69.4122 9.23831 70.0132 9.40279 70.6548 9.40279C71.2989 9.40279 71.9145 9.24114 72.4923 8.91545C73.0732 8.5895 73.5182 8.15124 73.8303 7.59484C74.1423 7.04131 74.2983 6.41546 74.2983 5.72069C74.2983 4.66244 73.9486 3.77728 73.2465 3.06494C72.5472 2.35285 71.6862 1.99814 70.6634 1.99814ZM78.5075 1.08127H78.8675C79.0931 1.08127 79.277 1.26477 79.277 1.48994V1.69002C79.277 1.85611 79.3702 1.99814 79.5227 2.06456C79.6753 2.13114 79.843 2.10254 79.965 1.98955C80.2531 1.72289 80.5621 1.50367 80.8922 1.33199C81.5016 1.01489 82.1808 0.856364 82.932 0.856364C84.2411 0.856364 85.3593 1.32629 86.2898 2.26338C87.22 3.20064 87.6853 4.33079 87.6853 5.64858C87.6853 6.99797 87.2229 8.13981 86.3013 9.08262C85.3794 10.0227 84.2671 10.4927 82.964 10.4927C82.2328 10.4927 81.5597 10.3399 80.9442 10.037C80.5951 9.86355 80.2652 9.64288 79.9548 9.37436C79.8309 9.26709 79.6655 9.24339 79.5163 9.31148C79.3673 9.37948 79.277 9.52107 79.277 9.68313V11.5806C79.277 11.8041 79.0915 11.9893 78.8675 11.9893H78.5075C78.2835 11.9893 78.098 11.8058 78.098 11.5806V1.48994C78.098 1.26477 78.2819 1.08127 78.5075 1.08127ZM82.8454 1.99814C81.8198 1.99814 80.9585 2.35285 80.2595 3.06494C79.5571 3.77728 79.2076 4.66244 79.2076 5.72069C79.2076 6.41546 79.3636 7.04131 79.6757 7.59484C79.9877 8.15124 80.4355 8.5895 81.0165 8.91545C81.6001 9.24114 82.2156 9.40279 82.86 9.40279C83.4956 9.40279 84.0937 9.23831 84.6543 8.90974C85.2148 8.58381 85.6597 8.12529 85.9921 7.53725C86.3244 6.94896 86.489 6.33185 86.489 5.68882C86.489 5.03718 86.3244 4.42033 85.9949 3.83775C85.6657 3.2554 85.2234 2.8026 84.6658 2.48261C84.1111 2.15954 83.5013 1.99814 82.8454 1.99814ZM90.3169 1.08127H90.6767C90.9023 1.08127 91.0862 1.26477 91.0862 1.48994V4.03022C91.0862 4.19533 91.1782 4.33657 91.3295 4.40378C91.4808 4.47076 91.6475 4.44401 91.7703 4.33326L95.2573 1.18694C95.3355 1.11621 95.4264 1.08127 95.5319 1.08127H95.933C96.1058 1.08127 96.2532 1.18246 96.3153 1.34346C96.3771 1.50446 96.3356 1.67792 96.2074 1.79339L92.6637 4.98468C92.5771 5.06273 92.5317 5.16183 92.5288 5.2781C92.5259 5.3946 92.5664 5.49571 92.6492 5.57785L96.6679 9.56949C96.7879 9.68866 96.8221 9.85887 96.7574 10.0152C96.6929 10.1713 96.5483 10.2677 96.379 10.2677H95.865C95.752 10.2677 95.6548 10.2273 95.5749 10.1474L91.4589 6.02047L91.2244 6.22724C91.1333 6.30753 91.0862 6.41194 91.0862 6.53332V9.85905C91.0862 10.0842 90.9023 10.2677 90.6767 10.2677H90.3169C90.0913 10.2677 89.9074 10.0842 89.9074 9.85905V1.48994C89.9074 1.26477 90.0913 1.08127 90.3169 1.08127Z" fill="black"/>
<path d="M56.2761 0.540714H63.1892C63.4494 0.540714 63.6873 0.647604 63.8603 0.820239C64.0334 0.990474 64.1405 1.2281 64.1405 1.49003V9.85915C64.1405 10.1211 64.0334 10.3588 63.8616 10.5302C63.6898 10.7016 63.4516 10.8085 63.1892 10.8085H62.8294C62.5669 10.8085 62.3287 10.7016 62.1569 10.5302C61.9851 10.3563 61.8781 10.1188 61.8781 9.85915V2.72936H57.5872V9.85915C57.5872 10.1211 57.4801 10.3588 57.3083 10.5302C57.1365 10.7016 56.8983 10.8085 56.6359 10.8085H56.2761C56.0136 10.8085 55.7754 10.7016 55.6036 10.5302C55.4318 10.3563 55.3247 10.1188 55.3247 9.85915V1.49003C55.3247 1.23074 55.4314 0.993761 55.6036 0.821269L55.6059 0.819035C55.7787 0.647193 56.0162 0.540714 56.2761 0.540714ZM63.0569 1.62203H56.4084V9.72715H56.5036V2.59735C56.5036 2.33807 56.6103 2.10103 56.7825 1.92854L56.7847 1.92631C56.9575 1.75447 57.195 1.64797 57.4549 1.64797H62.0103C62.2706 1.64797 62.5085 1.75486 62.6815 1.9275C62.8545 2.09773 62.9617 2.3354 62.9617 2.59735V9.72715H63.0569V1.62203ZM75.9499 1.49003V9.85915C75.9499 10.1188 75.8428 10.3563 75.6698 10.5289C75.4992 10.7016 75.261 10.8085 74.9985 10.8085H74.6385C74.376 10.8085 74.1379 10.7016 73.9661 10.5302C73.8181 10.3825 73.7181 10.1856 73.6933 9.96642C73.5865 10.0496 73.4782 10.1277 73.3686 10.2004C73.1807 10.3248 72.9896 10.4343 72.7961 10.5285C72.4546 10.6947 72.0907 10.8207 71.7068 10.9062C71.3259 10.9907 70.935 11.0334 70.5363 11.0334C69.8165 11.0334 69.1429 10.901 68.5173 10.6364C67.8938 10.3728 67.3264 9.98056 66.8167 9.4607L66.8147 9.45866C66.3042 8.93655 65.9205 8.35646 65.6639 7.71872C65.4073 7.08059 65.2789 6.39055 65.2789 5.64865C65.2789 4.92179 65.4096 4.24076 65.6705 3.60792C65.9297 2.97837 66.3169 2.40382 66.831 1.88541C67.345 1.36618 67.9155 0.97471 68.5411 0.712128C69.1707 0.448123 69.8474 0.315718 70.5709 0.315718C71.4113 0.315718 72.176 0.494938 72.8671 0.852734H72.8694C73.051 0.947094 73.2316 1.05807 73.41 1.18454C73.506 1.25262 73.5998 1.32433 73.6915 1.39992C73.713 1.17394 73.8142 0.970616 73.9661 0.81901C74.1403 0.647575 74.3783 0.540689 74.6385 0.540689H74.9985C75.2584 0.540689 75.4959 0.647168 75.6687 0.81901L75.671 0.821257C75.8432 0.993749 75.9499 1.23074 75.9499 1.49003ZM74.8663 9.72715V1.62203H74.7708V1.68562C74.7708 1.87562 74.7158 2.05444 74.6162 2.20604C74.5184 2.35519 74.3756 2.47676 74.1985 2.55383C74.0237 2.6306 73.8377 2.65269 73.6596 2.62225C73.6176 2.61471 73.5763 2.60468 73.5357 2.59205L73.6318 2.68706C74.0343 3.09506 74.3368 3.55463 74.5387 4.06484C74.7399 4.57121 74.8403 5.12353 74.8403 5.72079C74.8403 6.1088 74.7954 6.48213 74.7061 6.83993C74.6158 7.20177 74.4809 7.54199 74.3023 7.85893C74.1228 8.17893 73.9026 8.46762 73.642 8.7249L73.5965 8.77107L73.6852 8.7539C73.8605 8.7286 74.0427 8.75389 74.2143 8.83235C74.3859 8.91087 74.5243 9.03181 74.6203 9.181C74.7174 9.33175 74.7708 9.50808 74.7708 9.69404V9.72715H74.8663ZM70.5363 9.95213C70.6983 9.95213 70.8557 9.94434 71.0087 9.92884C70.8914 9.93864 70.7734 9.94354 70.6549 9.94354C70.291 9.94354 69.9327 9.89535 69.5811 9.79908C69.235 9.70447 68.9015 9.56326 68.5812 9.3759C68.2577 9.18854 67.9671 8.96193 67.7102 8.69793C67.4565 8.4372 67.2343 8.13783 67.044 7.8013C66.8545 7.46909 66.7132 7.12638 66.6185 6.77473C66.5229 6.41876 66.4752 6.05629 66.4752 5.68891C66.4752 5.31928 66.5229 4.95594 66.6177 4.60022C66.7111 4.24979 66.8528 3.9073 67.0412 3.57382C67.2302 3.23954 67.4509 2.94289 67.7028 2.68584C67.9571 2.42608 68.2458 2.20318 68.5683 2.01784L68.5673 2.01601C68.8843 1.83132 69.2209 1.69177 69.5745 1.59798C69.9263 1.50457 70.2898 1.4576 70.6635 1.4576C71.2432 1.4576 71.7825 1.56037 72.2807 1.76595C71.7705 1.52031 71.2008 1.39714 70.571 1.39714C69.986 1.39714 69.4486 1.49991 68.9601 1.70484C68.468 1.91121 68.0146 2.22406 67.6014 2.64147L67.5994 2.64354C67.1847 3.06118 66.8745 3.51995 66.6693 4.01789C66.465 4.51383 66.3626 5.05795 66.3626 5.6487C66.3626 6.25618 66.4644 6.81233 66.6673 7.31748C66.8708 7.82316 67.1782 8.2864 67.5891 8.70671C67.9999 9.12539 68.4495 9.43806 68.9363 9.64381C69.4222 9.84936 69.9558 9.95213 70.5363 9.95213ZM70.6635 2.53891C70.378 2.53891 70.1063 2.57319 69.8497 2.64128C69.5962 2.70849 69.3501 2.81146 69.1132 2.9494H69.1091C68.8755 3.08344 68.6644 3.24651 68.4772 3.43777C68.2866 3.63227 68.1211 3.85422 67.981 4.10185C67.8405 4.35032 67.7343 4.60858 67.6633 4.87484C67.5938 5.13535 67.5588 5.40713 67.5588 5.68891C67.5588 5.96538 67.5941 6.23488 67.6641 6.49602C67.7349 6.75939 67.8422 7.01893 67.9859 7.27331C68.1262 7.52483 68.2931 7.74918 68.4845 7.94599C68.6727 8.13927 68.8857 8.30518 69.1226 8.44314L69.1247 8.44517C69.364 8.58536 69.611 8.69057 69.8649 8.75985C70.1139 8.8281 70.3776 8.86222 70.6549 8.86222C70.9338 8.86222 71.2038 8.82772 71.463 8.75904C71.727 8.68919 71.9824 8.58496 72.2279 8.44661C72.4742 8.30648 72.6923 8.14378 72.8813 7.95724C73.0678 7.77537 73.2263 7.56636 73.3583 7.33092C73.4914 7.09492 73.591 6.84503 73.6565 6.58251C73.723 6.31544 73.7567 6.0279 73.7567 5.7208C73.7567 5.25982 73.6817 4.84016 73.532 4.46188V4.45963C73.3842 4.0855 73.1604 3.74631 72.8614 3.4431C72.5629 3.13907 72.2324 2.912 71.871 2.76306C71.5091 2.61369 71.1062 2.53891 70.6635 2.53891ZM78.5076 0.540714H78.8676C79.1274 0.540714 79.3649 0.647193 79.5378 0.819035L79.54 0.821269C79.6932 0.974503 79.7944 1.17846 79.8151 1.40403C79.9078 1.32742 80.0028 1.25466 80.0997 1.186C80.2788 1.0589 80.46 0.947514 80.6425 0.852746C80.9916 0.673361 81.3563 0.538064 81.7363 0.449398C82.118 0.360508 82.5169 0.31573 82.9321 0.31573C83.6593 0.31573 84.3362 0.447548 84.9624 0.71013C85.5861 0.971451 86.1564 1.36315 86.673 1.88341C87.1882 2.40239 87.576 2.97758 87.8357 3.60795C88.0965 4.24079 88.2272 4.92181 88.2272 5.64867C88.2272 6.39082 88.0982 7.08083 87.8406 7.71874C87.5832 8.35667 87.199 8.93658 86.6886 9.45869L86.6865 9.46072C86.1767 9.98057 85.6093 10.3731 84.9852 10.6366C84.3592 10.9011 83.6851 11.0335 82.9641 11.0335C82.5638 11.0335 82.1731 10.9906 81.7939 10.9048C81.4142 10.8193 81.0508 10.6908 80.7051 10.5208C80.5143 10.4268 80.3243 10.3161 80.1344 10.1892C80.0272 10.1173 79.9219 10.041 79.8189 9.96073V11.5807C79.8189 11.8396 79.7112 12.0772 79.5382 12.2499C79.3676 12.4225 79.1293 12.53 78.8676 12.53H78.5076C78.2482 12.53 78.0098 12.423 77.8366 12.2501C77.6638 12.0801 77.5563 11.8426 77.5563 11.5807V1.49005C77.5563 1.22812 77.6634 0.990494 77.8352 0.819059C78.0094 0.647625 78.2474 0.540714 78.5076 0.540714ZM78.7353 1.62203H78.6399V11.4487H78.7353V9.68322C78.7353 9.4981 78.7889 9.32113 78.8862 9.17034C78.982 9.02138 79.1209 8.89962 79.2921 8.82157C79.4637 8.74306 79.6459 8.71776 79.8214 8.74289L79.899 8.75735L79.8666 8.72593C79.6051 8.46884 79.3838 8.17974 79.2038 7.85893C78.8455 7.22304 78.6659 6.50847 78.6659 5.72079C78.6659 5.12497 78.7662 4.57347 78.9665 4.06691V4.06468C79.1678 3.55629 79.4704 3.09673 79.8744 2.68706L79.9637 2.59856C79.9246 2.61043 79.8847 2.62002 79.8441 2.62677C79.6672 2.65662 79.4817 2.63534 79.307 2.5589C79.1328 2.48292 78.9903 2.36136 78.8909 2.20975C78.7904 2.05872 78.7353 1.87995 78.7353 1.69011V1.62203ZM81.9816 1.50128C81.7222 1.5618 81.4769 1.64717 81.2461 1.75751C81.7392 1.55771 82.2726 1.45757 82.8455 1.45757C83.2176 1.45757 83.5811 1.50455 83.9325 1.59795C84.2856 1.69191 84.6221 1.83148 84.9389 2.01599L84.9379 2.01781C85.2596 2.20275 85.5473 2.42468 85.8001 2.68252L85.8022 2.68456C86.0545 2.942 86.2756 3.23892 86.465 3.5738C86.6538 3.90727 86.7951 4.24976 86.8884 4.60019C86.9832 4.95592 87.031 5.31927 87.031 5.6889C87.031 6.05627 86.9833 6.41875 86.8876 6.77471C86.793 7.12637 86.6519 7.46882 86.4642 7.80128C86.2758 8.13475 86.053 8.43389 85.796 8.69791C85.539 8.96192 85.2487 9.18852 84.9254 9.37651C84.6058 9.56283 84.2734 9.70407 83.9292 9.79843C83.5792 9.89533 83.2227 9.94352 82.8601 9.94352C82.728 9.94352 82.5966 9.9374 82.4657 9.92537C82.6269 9.94312 82.7929 9.95211 82.9641 9.95211C83.5459 9.95211 84.0803 9.84933 84.5662 9.64399C85.0536 9.43819 85.5032 9.12517 85.9142 8.70667C86.3253 8.2862 86.6333 7.82272 86.8373 7.31744C87.0414 6.8119 87.1436 6.25572 87.1436 5.64865C87.1436 5.0579 87.0412 4.51379 86.8369 4.01785C86.6315 3.51967 86.3212 3.06115 85.9068 2.6435C85.4932 2.22708 85.0388 1.91446 84.5435 1.70681C84.0514 1.50068 83.5143 1.39709 82.9322 1.39709C82.5964 1.39709 82.2792 1.43205 81.9816 1.50128ZM82.8455 2.53891C82.4014 2.53891 81.9978 2.61367 81.6354 2.76304C81.2736 2.91199 80.9433 3.13906 80.6447 3.44309C80.3466 3.74526 80.123 4.08508 79.9739 4.46187C79.8242 4.83927 79.7495 5.25921 79.7495 5.72079C79.7495 6.32215 79.8824 6.86016 80.1478 7.3309C80.2796 7.56609 80.439 7.77495 80.6243 7.95722C80.812 8.14194 81.0313 8.30438 81.2811 8.44456C81.5311 8.58494 81.7886 8.68973 82.0517 8.7592C82.3113 8.82786 82.5812 8.86221 82.8601 8.86221C83.1328 8.86221 83.3935 8.82808 83.6415 8.75983C83.8956 8.69077 84.1419 8.58551 84.3815 8.44515L84.3836 8.44312C84.6205 8.3054 84.8334 8.13925 85.0216 7.94598C85.2102 7.75221 85.3765 7.52768 85.5202 7.27329C85.6639 7.01891 85.7713 6.75938 85.8421 6.496C85.9121 6.23486 85.9473 5.96537 85.9473 5.6889C85.9473 5.40712 85.9123 5.13532 85.8429 4.87482C85.7718 4.60855 85.6658 4.35052 85.5251 4.10183C85.3849 3.85379 85.2188 3.63146 85.0277 3.4365C84.8402 3.24568 84.6295 3.08282 84.3971 2.94938H84.393C84.1561 2.81144 83.9101 2.70848 83.6573 2.64127C83.4009 2.57318 83.1295 2.53891 82.8455 2.53891ZM90.317 0.540714H90.6768C90.9366 0.540714 91.1742 0.647193 91.347 0.819035L91.3493 0.821269C91.5215 0.993761 91.6281 1.23074 91.6281 1.49003V3.73626L94.8956 0.787954C94.9853 0.706854 95.0838 0.645977 95.1898 0.605122C95.301 0.562395 95.4155 0.540714 95.532 0.540714H95.9331C96.1288 0.540714 96.314 0.600385 96.4702 0.706865C96.6258 0.812695 96.7479 0.964544 96.8191 1.14924L96.8212 1.15126C96.891 1.33337 96.9017 1.52665 96.8574 1.71037C96.8136 1.89403 96.7155 2.06345 96.5693 2.19485L93.1286 5.29332L97.0489 9.1873C97.1859 9.32364 97.2747 9.49196 97.3112 9.67279L97.3132 9.67504C97.3485 9.85241 97.3312 10.041 97.257 10.2202C97.1832 10.3993 97.0609 10.546 96.9082 10.6477C96.7536 10.7511 96.5716 10.8085 96.3791 10.8085H95.8652C95.7382 10.8085 95.6166 10.7844 95.5002 10.736C95.387 10.6892 95.2834 10.6195 95.1919 10.5276L91.6281 6.95438V9.85917C91.6281 10.1189 91.5211 10.3563 91.348 10.529C91.1775 10.7017 90.9393 10.8085 90.6768 10.8085H90.317C90.0545 10.8085 89.8164 10.7017 89.6446 10.5302C89.4728 10.3588 89.3657 10.1211 89.3657 9.85917V1.49005C89.3657 1.22812 89.4728 0.990494 89.6446 0.819059C89.8188 0.647625 90.0568 0.540714 90.317 0.540714ZM90.5445 1.62203H90.4493V9.72715H90.5445V6.53342C90.5445 6.39836 90.573 6.26819 90.6283 6.14518C90.6823 6.0232 90.7626 5.91569 90.8668 5.82397L91.4829 5.28066L95.9179 9.72715H96.0609L92.2685 5.96026C92.1742 5.86669 92.103 5.75958 92.0553 5.6417C92.0081 5.52173 91.986 5.39629 91.9892 5.26549C91.9922 5.13355 92.0211 5.00869 92.0739 4.89306C92.1269 4.77719 92.2039 4.6744 92.302 4.58567L95.5903 1.62203H95.5793L92.1322 4.7324C91.9912 4.8595 91.8227 4.93899 91.6451 4.96759C91.4694 4.99536 91.2851 4.97271 91.1115 4.89588C90.9373 4.81862 90.7958 4.69705 90.6983 4.54752C90.5992 4.39528 90.5445 4.21773 90.5445 4.03031V1.62203Z" fill="black"/>
<path fill-rule="evenodd" clip-rule="evenodd" d="M48.3037 24.0427C48.4733 24.0427 48.6109 24.1799 48.6109 24.3493C48.6109 24.5185 48.4733 24.6558 48.3037 24.6558C48.1341 24.6558 47.9966 24.5185 47.9966 24.3493C47.9966 24.1799 48.1341 24.0427 48.3037 24.0427Z" fill="white"/>
<path fill-rule="evenodd" clip-rule="evenodd" d="M5.93336 24.1776C6.10297 24.1776 6.24051 24.3148 6.24051 24.4841C6.24051 24.6534 6.10297 24.7906 5.93336 24.7906C5.7637 24.7906 5.62622 24.6534 5.62622 24.4841C5.62622 24.3148 5.7637 24.1776 5.93336 24.1776Z" fill="white"/>
</svg>
