<svg width="24" height="24" viewBox="0 0 24 24" fill="none" xmlns="http://www.w3.org/2000/svg">
<path fill-rule="evenodd" clip-rule="evenodd" d="M18.0989 0.618345C14.0821 -0.206115 9.91666 -0.206115 5.89988 0.618345L5.46707 0.706268C4.3372 0.938222 3.29947 1.45324 2.46917 2.19412C1.63887 2.935 1.0485 3.87272 0.76364 4.90313C-0.254547 8.58714 -0.254547 12.4463 0.76364 16.1303C1.03529 17.113 1.58509 18.0123 2.35728 18.737C3.12948 19.4617 4.09662 19.986 5.16066 20.2569L5.75433 23.5112C5.77328 23.6145 5.82206 23.7113 5.89558 23.7915C5.9691 23.8716 6.06468 23.9322 6.17236 23.9669C6.28005 24.0016 6.39589 24.0092 6.50785 23.9888C6.6198 23.9685 6.72376 23.9209 6.8089 23.8511L10.2956 20.9872C12.913 21.1339 15.5399 20.9417 18.0989 20.4163L18.533 20.3284C19.6629 20.0964 20.7006 19.5814 21.5309 18.8405C22.3612 18.0996 22.9516 17.1619 23.2364 16.1315C24.2545 12.4475 24.2545 8.58832 23.2364 4.9043C22.9515 3.87375 22.3609 2.93592 21.5304 2.19503C20.6998 1.45414 19.6618 0.939201 18.5317 0.70744L18.0989 0.618345ZM6.97743 4.80817C6.74015 4.77646 6.49819 4.82032 6.29183 4.93244H6.27396C5.79519 5.19035 5.36366 5.51508 4.99596 5.89725C4.68955 6.22198 4.52358 6.55022 4.48017 6.86675C4.45463 7.05432 4.47251 7.24423 4.53251 7.42359L4.55549 7.43532C4.90021 8.36496 5.34961 9.25943 5.8986 10.1011C6.60648 11.2834 7.47759 12.3768 8.49034 13.3543L8.52098 13.3942L8.5695 13.427L8.59886 13.4586L8.63461 13.4868C9.70288 14.4195 10.8965 15.2232 12.1864 15.8783C13.6611 16.6157 14.556 16.9638 15.0935 17.1092V17.1162C15.2506 17.1608 15.3936 17.1807 15.5378 17.1807C15.9956 17.1497 16.4289 16.9788 16.7686 16.6954C17.1835 16.3578 17.5346 15.9603 17.8078 15.5184V15.5102C18.0645 15.0647 17.9776 14.645 17.6074 14.3601C16.8637 13.7635 16.0595 13.2335 15.2059 12.7775C14.6339 12.4927 14.053 12.665 13.8181 12.9534L13.3163 13.5348C13.0584 13.8232 12.5912 13.7834 12.5912 13.7834L12.5784 13.7904C9.09168 12.9733 8.16095 9.73187 8.16095 9.73187C8.16095 9.73187 8.11754 9.29108 8.44055 9.066L9.06869 8.60176C9.37 8.37668 9.57938 7.84445 9.25637 7.31926C8.76305 6.53471 8.18705 5.79652 7.53663 5.11532C7.39477 4.955 7.19583 4.84581 6.97488 4.807L6.97743 4.80817ZM12.8682 3.39906C12.6989 3.39906 12.5365 3.46082 12.4168 3.57074C12.2971 3.68067 12.2298 3.82976 12.2298 3.98521C12.2298 4.14067 12.2971 4.28976 12.4168 4.39969C12.5365 4.50961 12.6989 4.57137 12.8682 4.57137C14.4833 4.57137 15.8238 5.05553 16.8848 5.984C17.4299 6.49161 17.8551 7.093 18.1334 7.75184C18.413 8.41185 18.5407 9.11641 18.5075 9.82214C18.504 9.89911 18.517 9.97597 18.5458 10.0483C18.5746 10.1207 18.6187 10.1871 18.6755 10.2438C18.7902 10.3584 18.9497 10.4264 19.119 10.4329C19.2883 10.4394 19.4535 10.3839 19.5783 10.2786C19.703 10.1733 19.7771 10.0268 19.7842 9.87137C19.8238 9.00326 19.6669 8.13705 19.3233 7.32746C18.9782 6.51404 18.4551 5.7743 17.7861 5.15401L17.7734 5.14228C16.4571 3.98756 14.7909 3.39906 12.8682 3.39906ZM12.8248 5.32633C12.6555 5.32633 12.4931 5.38809 12.3734 5.49802C12.2537 5.60794 12.1864 5.75703 12.1864 5.91249C12.1864 6.06795 12.2537 6.21704 12.3734 6.32696C12.4931 6.43689 12.6555 6.49864 12.8248 6.49864H12.8465C14.0109 6.57484 14.8586 6.93122 15.4523 7.51621C16.0613 8.11877 16.3766 8.86788 16.3524 9.794C16.3485 9.94946 16.412 10.1 16.529 10.2124C16.6459 10.3249 16.8067 10.3901 16.9761 10.3936C17.1454 10.3972 17.3093 10.3389 17.4317 10.2315C17.5542 10.1241 17.6252 9.97642 17.6291 9.82096C17.6597 8.60528 17.2333 7.55606 16.3881 6.71904V6.71669C15.5238 5.8656 14.3377 5.41543 12.9103 5.32751L12.8886 5.32516L12.8248 5.32633ZM12.8005 7.28995C12.7151 7.28303 12.629 7.29199 12.5475 7.31628C12.4659 7.34058 12.3905 7.37973 12.3257 7.43138C12.261 7.48303 12.2083 7.54612 12.1707 7.6169C12.1331 7.68769 12.1114 7.7647 12.1069 7.84334C12.1025 7.92198 12.1153 8.00064 12.1447 8.07462C12.1741 8.14861 12.2194 8.2164 12.2779 8.27395C12.3365 8.3315 12.407 8.37762 12.4854 8.40957C12.5638 8.44153 12.6484 8.45865 12.7342 8.45992C13.2678 8.48571 13.6087 8.63342 13.8232 8.83154C14.039 9.03083 14.1998 9.35087 14.2292 9.85144C14.2308 9.9301 14.2496 10.0077 14.2845 10.0795C14.3195 10.1513 14.3698 10.216 14.4325 10.2696C14.4952 10.3232 14.5691 10.3647 14.6496 10.3915C14.7301 10.4184 14.8157 10.43 14.9013 10.4259C14.9869 10.4217 15.0706 10.4018 15.1476 10.3672C15.2246 10.3327 15.2932 10.2843 15.3494 10.2249C15.4056 10.1655 15.4482 10.0963 15.4746 10.0215C15.5011 9.94664 15.5108 9.86769 15.5034 9.78931C15.4625 9.08593 15.2225 8.4646 14.7309 8.0074C14.2369 7.5502 13.564 7.32747 12.8005 7.28995Z" fill="white"/>
</svg>
